<svg xmlns="http://www.w3.org/2000/svg" width="920" height="560" viewBox="0 0 920 560">
<rect width="100%" height="100%" fill="white"/>
<text x="460.0" y="30" text-anchor="middle" font-family="Arial" font-size="20" font-weight="600">1D Gaussian mixture after noising at representative log-SNR levels</text>
<line x1="76.00" y1="58" x2="76.00" y2="490" stroke="#E5E7EB" stroke-width="1"/>
<text x="76.00" y="514" text-anchor="middle" font-family="Arial" font-size="12" fill="#374151">-8</text>
<line x1="239.60" y1="58" x2="239.60" y2="490" stroke="#E5E7EB" stroke-width="1"/>
<text x="239.60" y="514" text-anchor="middle" font-family="Arial" font-size="12" fill="#374151">-4.8</text>
<line x1="403.20" y1="58" x2="403.20" y2="490" stroke="#E5E7EB" stroke-width="1"/>
<text x="403.20" y="514" text-anchor="middle" font-family="Arial" font-size="12" fill="#374151">-1.6</text>
<line x1="566.80" y1="58" x2="566.80" y2="490" stroke="#E5E7EB" stroke-width="1"/>
<text x="566.80" y="514" text-anchor="middle" font-family="Arial" font-size="12" fill="#374151">1.6</text>
<line x1="730.40" y1="58" x2="730.40" y2="490" stroke="#E5E7EB" stroke-width="1"/>
<text x="730.40" y="514" text-anchor="middle" font-family="Arial" font-size="12" fill="#374151">4.8</text>
<line x1="894.00" y1="58" x2="894.00" y2="490" stroke="#E5E7EB" stroke-width="1"/>
<text x="894.00" y="514" text-anchor="middle" font-family="Arial" font-size="12" fill="#374151">8</text>
<line x1="76" y1="490.00" x2="894" y2="490.00" stroke="#E5E7EB" stroke-width="1"/>
<text x="66" y="494.00" text-anchor="end" font-family="Arial" font-size="12" fill="#374151">0</text>
<line x1="76" y1="403.60" x2="894" y2="403.60" stroke="#E5E7EB" stroke-width="1"/>
<text x="66" y="407.60" text-anchor="end" font-family="Arial" font-size="12" fill="#374151">0.064</text>
<line x1="76" y1="317.20" x2="894" y2="317.20" stroke="#E5E7EB" stroke-width="1"/>
<text x="66" y="321.20" text-anchor="end" font-family="Arial" font-size="12" fill="#374151">0.13</text>
<line x1="76" y1="230.80" x2="894" y2="230.80" stroke="#E5E7EB" stroke-width="1"/>
<text x="66" y="234.80" text-anchor="end" font-family="Arial" font-size="12" fill="#374151">0.19</text>
<line x1="76" y1="144.40" x2="894" y2="144.40" stroke="#E5E7EB" stroke-width="1"/>
<text x="66" y="148.40" text-anchor="end" font-family="Arial" font-size="12" fill="#374151">0.26</text>
<line x1="76" y1="58.00" x2="894" y2="58.00" stroke="#E5E7EB" stroke-width="1"/>
<text x="66" y="62.00" text-anchor="end" font-family="Arial" font-size="12" fill="#374151">0.32</text>
<line x1="331.62" y1="58" x2="331.62" y2="490" stroke="#6B7280" stroke-width="1.7" stroke-dasharray="6 5"/>
<line x1="638.38" y1="58" x2="638.38" y2="490" stroke="#6B7280" stroke-width="1.7" stroke-dasharray="6 5"/>
<line x1="76" y1="490" x2="894" y2="490" stroke="#111827" stroke-width="1.2"/>
<line x1="76" y1="58" x2="76" y2="490" stroke="#111827" stroke-width="1.2"/>
<polyline points="76.00,490.00 76.82,490.00 77.64,490.00 78.46,490.00 79.28,490.00 80.09,490.00 80.91,490.00 81.73,490.00 82.55,490.00 83.37,490.00 84.19,490.00 85.01,490.00 85.83,490.00 86.64,490.00 87.46,490.00 88.28,490.00 89.10,490.00 89.92,490.00 90.74,490.00 91.56,490.00 92.38,490.00 93.20,490.00 94.01,490.00 94.83,489.99 95.65,489.99 96.47,489.99 97.29,489.99 98.11,489.99 98.93,489.99 99.75,489.99 100.56,489.99 101.38,489.99 102.20,489.99 103.02,489.99 103.84,489.99 104.66,489.99 105.48,489.99 106.30,489.99 107.12,489.98 107.93,489.98 108.75,489.98 109.57,489.98 110.39,489.98 111.21,489.98 112.03,489.98 112.85,489.97 113.67,489.97 114.48,489.97 115.30,489.97 116.12,489.97 116.94,489.96 117.76,489.96 118.58,489.96 119.40,489.96 120.22,489.95 121.04,489.95 121.85,489.95 122.67,489.94 123.49,489.94 124.31,489.94 125.13,489.93 125.95,489.93 126.77,489.92 127.59,489.92 128.40,489.91 129.22,489.90 130.04,489.90 130.86,489.89 131.68,489.88 132.50,489.88 133.32,489.87 134.14,489.86 134.95,489.85 135.77,489.84 136.59,489.83 137.41,489.82 138.23,489.81 139.05,489.80 139.87,489.79 140.69,489.77 141.51,489.76 142.32,489.74 143.14,489.73 143.96,489.71 144.78,489.69 145.60,489.67 146.42,489.66 147.24,489.63 148.06,489.61 148.87,489.59 149.69,489.57 150.51,489.54 151.33,489.51 152.15,489.48 152.97,489.45 153.79,489.42 154.61,489.39 155.43,489.35 156.24,489.32 157.06,489.28 157.88,489.24 158.70,489.19 159.52,489.15 160.34,489.10 161.16,489.05 161.98,489.00 162.79,488.95 163.61,488.89 164.43,488.83 165.25,488.76 166.07,488.70 166.89,488.63 167.71,488.55 168.53,488.48 169.35,488.40 170.16,488.31 170.98,488.23 171.80,488.13 172.62,488.04 173.44,487.94 174.26,487.83 175.08,487.72 175.90,487.60 176.71,487.48 177.53,487.36 178.35,487.23 179.17,487.09 179.99,486.95 180.81,486.80 181.63,486.64 182.45,486.48 183.27,486.31 184.08,486.13 184.90,485.95 185.72,485.75 186.54,485.55 187.36,485.35 188.18,485.13 189.00,484.90 189.82,484.67 190.63,484.43 191.45,484.17 192.27,483.91 193.09,483.64 193.91,483.35 194.73,483.06 195.55,482.75 196.37,482.43 197.19,482.10 198.00,481.76 198.82,481.40 199.64,481.04 200.46,480.66 201.28,480.26 202.10,479.85 202.92,479.43 203.74,478.99 204.55,478.54 205.37,478.07 206.19,477.58 207.01,477.08 207.83,476.56 208.65,476.03 209.47,475.47 210.29,474.90 211.11,474.31 211.92,473.70 212.74,473.07 213.56,472.43 214.38,471.76 215.20,471.07 216.02,470.36 216.84,469.63 217.66,468.88 218.47,468.10 219.29,467.31 220.11,466.49 220.93,465.64 221.75,464.78 222.57,463.89 223.39,462.97 224.21,462.03 225.03,461.06 225.84,460.07 226.66,459.05 227.48,458.01 228.30,456.94 229.12,455.84 229.94,454.71 230.76,453.56 231.58,452.38 232.39,451.17 233.21,449.93 234.03,448.67 234.85,447.37 235.67,446.04 236.49,444.69 237.31,443.30 238.13,441.89 238.94,440.44 239.76,438.97 240.58,437.46 241.40,435.92 242.22,434.36 243.04,432.76 243.86,431.13 244.68,429.47 245.50,427.78 246.31,426.06 247.13,424.31 247.95,422.52 248.77,420.71 249.59,418.87 250.41,416.99 251.23,415.09 252.05,413.16 252.86,411.19 253.68,409.20 254.50,407.18 255.32,405.12 256.14,403.04 256.96,400.94 257.78,398.80 258.60,396.64 259.42,394.45 260.23,392.23 261.05,389.99 261.87,387.72 262.69,385.43 263.51,383.12 264.33,380.78 265.15,378.42 265.97,376.03 266.78,373.63 267.60,371.20 268.42,368.76 269.24,366.30 270.06,363.82 270.88,361.32 271.70,358.81 272.52,356.28 273.34,353.74 274.15,351.19 274.97,348.62 275.79,346.05 276.61,343.46 277.43,340.87 278.25,338.27 279.07,335.67 279.89,333.05 280.70,330.44 281.52,327.83 282.34,325.21 283.16,322.60 283.98,319.98 284.80,317.37 285.62,314.77 286.44,312.17 287.26,309.58 288.07,307.00 288.89,304.43 289.71,301.87 290.53,299.32 291.35,296.80 292.17,294.28 292.99,291.79 293.81,289.31 294.62,286.86 295.44,284.43 296.26,282.02 297.08,279.64 297.90,277.28 298.72,274.96 299.54,272.67 300.36,270.40 301.18,268.17 301.99,265.98 302.81,263.82 303.63,261.70 304.45,259.62 305.27,257.58 306.09,255.58 306.91,253.62 307.73,251.71 308.54,249.85 309.36,248.03 310.18,246.26 311.00,244.55 311.82,242.88 312.64,241.27 313.46,239.71 314.28,238.20 315.10,236.75 315.91,235.36 316.73,234.02 317.55,232.75 318.37,231.53 319.19,230.38 320.01,229.28 320.83,228.25 321.65,227.29 322.46,226.38 323.28,225.54 324.10,224.77 324.92,224.06 325.74,223.42 326.56,222.85 327.38,222.34 328.20,221.91 329.02,221.54 329.83,221.23 330.65,221.00 331.47,220.84 332.29,220.74 333.11,220.71 333.93,220.76 334.75,220.87 335.57,221.05 336.38,221.30 337.20,221.62 338.02,222.00 338.84,222.46 339.66,222.98 340.48,223.57 341.30,224.23 342.12,224.95 342.93,225.74 343.75,226.59 344.57,227.51 345.39,228.50 346.21,229.54 347.03,230.65 347.85,231.82 348.67,233.05 349.49,234.34 350.30,235.69 351.12,237.09 351.94,238.56 352.76,240.08 353.58,241.65 354.40,243.28 355.22,244.96 356.04,246.69 356.85,248.47 357.67,250.29 358.49,252.17 359.31,254.09 360.13,256.06 360.95,258.06 361.77,260.12 362.59,262.21 363.41,264.34 364.22,266.50 365.04,268.71 365.86,270.94 366.68,273.21 367.50,275.52 368.32,277.85 369.14,280.21 369.96,282.60 370.77,285.01 371.59,287.45 372.41,289.91 373.23,292.39 374.05,294.88 374.87,297.40 375.69,299.94 376.51,302.48 377.33,305.04 378.14,307.62 378.96,310.20 379.78,312.79 380.60,315.39 381.42,318.00 382.24,320.61 383.06,323.22 383.88,325.84 384.69,328.45 385.51,331.07 386.33,333.68 387.15,336.29 387.97,338.90 388.79,341.49 389.61,344.08 390.43,346.67 391.25,349.24 392.06,351.80 392.88,354.35 393.70,356.89 394.52,359.41 395.34,361.92 396.16,364.41 396.98,366.89 397.80,369.35 398.61,371.78 399.43,374.20 400.25,376.60 401.07,378.98 401.89,381.34 402.71,383.67 403.53,385.98 404.35,388.26 405.17,390.52 405.98,392.76 406.80,394.97 407.62,397.15 408.44,399.30 409.26,401.43 410.08,403.53 410.90,405.61 411.72,407.65 412.53,409.66 413.35,411.65 414.17,413.60 414.99,415.53 415.81,417.42 416.63,419.29 417.45,421.12 418.27,422.93 419.09,424.70 419.90,426.44 420.72,428.16 421.54,429.84 422.36,431.49 423.18,433.10 424.00,434.69 424.82,436.25 425.64,437.77 426.45,439.27 427.27,440.73 428.09,442.17 428.91,443.57 429.73,444.94 430.55,446.29 431.37,447.60 432.19,448.88 433.01,450.14 433.82,451.36 434.64,452.56 435.46,453.73 436.28,454.87 437.10,455.98 437.92,457.06 438.74,458.12 439.56,459.15 440.37,460.15 441.19,461.12 442.01,462.07 442.83,462.99 443.65,463.89 444.47,464.76 445.29,465.61 446.11,466.43 446.92,467.23 447.74,468.01 448.56,468.76 449.38,469.49 450.20,470.19 451.02,470.88 451.84,471.54 452.66,472.18 453.48,472.80 454.29,473.40 455.11,473.97 455.93,474.53 456.75,475.07 457.57,475.59 458.39,476.08 459.21,476.56 460.03,477.03 460.84,477.47 461.66,477.89 462.48,478.30 463.30,478.69 464.12,479.06 464.94,479.42 465.76,479.76 466.58,480.08 467.40,480.39 468.21,480.68 469.03,480.96 469.85,481.22 470.67,481.47 471.49,481.70 472.31,481.92 473.13,482.12 473.95,482.31 474.76,482.48 475.58,482.64 476.40,482.79 477.22,482.92 478.04,483.04 478.86,483.14 479.68,483.24 480.50,483.31 481.32,483.38 482.13,483.43 482.95,483.47 483.77,483.50 484.59,483.51 485.41,483.51 486.23,483.50 487.05,483.47 487.87,483.43 488.68,483.38 489.50,483.31 490.32,483.24 491.14,483.14 491.96,483.04 492.78,482.92 493.60,482.79 494.42,482.64 495.24,482.48 496.05,482.31 496.87,482.12 497.69,481.92 498.51,481.70 499.33,481.47 500.15,481.22 500.97,480.96 501.79,480.68 502.60,480.39 503.42,480.08 504.24,479.76 505.06,479.42 505.88,479.06 506.70,478.69 507.52,478.30 508.34,477.89 509.16,477.47 509.97,477.03 510.79,476.56 511.61,476.08 512.43,475.59 513.25,475.07 514.07,474.53 514.89,473.97 515.71,473.40 516.52,472.80 517.34,472.18 518.16,471.54 518.98,470.88 519.80,470.19 520.62,469.49 521.44,468.76 522.26,468.01 523.08,467.23 523.89,466.43 524.71,465.61 525.53,464.76 526.35,463.89 527.17,462.99 527.99,462.07 528.81,461.12 529.63,460.15 530.44,459.15 531.26,458.12 532.08,457.06 532.90,455.98 533.72,454.87 534.54,453.73 535.36,452.56 536.18,451.36 536.99,450.14 537.81,448.88 538.63,447.60 539.45,446.29 540.27,444.94 541.09,443.57 541.91,442.17 542.73,440.73 543.55,439.27 544.36,437.77 545.18,436.25 546.00,434.69 546.82,433.10 547.64,431.49 548.46,429.84 549.28,428.16 550.10,426.44 550.91,424.70 551.73,422.93 552.55,421.12 553.37,419.29 554.19,417.42 555.01,415.53 555.83,413.60 556.65,411.65 557.47,409.66 558.28,407.65 559.10,405.61 559.92,403.53 560.74,401.43 561.56,399.30 562.38,397.15 563.20,394.97 564.02,392.76 564.83,390.52 565.65,388.26 566.47,385.98 567.29,383.67 568.11,381.34 568.93,378.98 569.75,376.60 570.57,374.20 571.39,371.78 572.20,369.35 573.02,366.89 573.84,364.41 574.66,361.92 575.48,359.41 576.30,356.89 577.12,354.35 577.94,351.80 578.75,349.24 579.57,346.67 580.39,344.08 581.21,341.49 582.03,338.90 582.85,336.29 583.67,333.68 584.49,331.07 585.31,328.45 586.12,325.84 586.94,323.22 587.76,320.61 588.58,318.00 589.40,315.39 590.22,312.79 591.04,310.20 591.86,307.62 592.67,305.04 593.49,302.48 594.31,299.94 595.13,297.40 595.95,294.88 596.77,292.39 597.59,289.91 598.41,287.45 599.23,285.01 600.04,282.60 600.86,280.21 601.68,277.85 602.50,275.52 603.32,273.21 604.14,270.94 604.96,268.71 605.78,266.50 606.59,264.34 607.41,262.21 608.23,260.12 609.05,258.06 609.87,256.06 610.69,254.09 611.51,252.17 612.33,250.29 613.15,248.47 613.96,246.69 614.78,244.96 615.60,243.28 616.42,241.65 617.24,240.08 618.06,238.56 618.88,237.09 619.70,235.69 620.51,234.34 621.33,233.05 622.15,231.82 622.97,230.65 623.79,229.54 624.61,228.50 625.43,227.51 626.25,226.59 627.07,225.74 627.88,224.95 628.70,224.23 629.52,223.57 630.34,222.98 631.16,222.46 631.98,222.00 632.80,221.62 633.62,221.30 634.43,221.05 635.25,220.87 636.07,220.76 636.89,220.71 637.71,220.74 638.53,220.84 639.35,221.00 640.17,221.23 640.98,221.54 641.80,221.91 642.62,222.34 643.44,222.85 644.26,223.42 645.08,224.06 645.90,224.77 646.72,225.54 647.54,226.38 648.35,227.29 649.17,228.25 649.99,229.28 650.81,230.38 651.63,231.53 652.45,232.75 653.27,234.02 654.09,235.36 654.90,236.75 655.72,238.20 656.54,239.71 657.36,241.27 658.18,242.88 659.00,244.55 659.82,246.26 660.64,248.03 661.46,249.85 662.27,251.71 663.09,253.62 663.91,255.58 664.73,257.58 665.55,259.62 666.37,261.70 667.19,263.82 668.01,265.98 668.82,268.17 669.64,270.40 670.46,272.67 671.28,274.96 672.10,277.28 672.92,279.64 673.74,282.02 674.56,284.43 675.38,286.86 676.19,289.31 677.01,291.79 677.83,294.28 678.65,296.80 679.47,299.32 680.29,301.87 681.11,304.43 681.93,307.00 682.74,309.58 683.56,312.17 684.38,314.77 685.20,317.37 686.02,319.98 686.84,322.60 687.66,325.21 688.48,327.83 689.30,330.44 690.11,333.05 690.93,335.67 691.75,338.27 692.57,340.87 693.39,343.46 694.21,346.05 695.03,348.62 695.85,351.19 696.66,353.74 697.48,356.28 698.30,358.81 699.12,361.32 699.94,363.82 700.76,366.30 701.58,368.76 702.40,371.20 703.22,373.63 704.03,376.03 704.85,378.42 705.67,380.78 706.49,383.12 707.31,385.43 708.13,387.72 708.95,389.99 709.77,392.23 710.58,394.45 711.40,396.64 712.22,398.80 713.04,400.94 713.86,403.04 714.68,405.12 715.50,407.18 716.32,409.20 717.14,411.19 717.95,413.16 718.77,415.09 719.59,416.99 720.41,418.87 721.23,420.71 722.05,422.52 722.87,424.31 723.69,426.06 724.50,427.78 725.32,429.47 726.14,431.13 726.96,432.76 727.78,434.36 728.60,435.92 729.42,437.46 730.24,438.97 731.06,440.44 731.87,441.89 732.69,443.30 733.51,444.69 734.33,446.04 735.15,447.37 735.97,448.67 736.79,449.93 737.61,451.17 738.42,452.38 739.24,453.56 740.06,454.71 740.88,455.84 741.70,456.94 742.52,458.01 743.34,459.05 744.16,460.07 744.97,461.06 745.79,462.03 746.61,462.97 747.43,463.89 748.25,464.78 749.07,465.64 749.89,466.49 750.71,467.31 751.53,468.10 752.34,468.88 753.16,469.63 753.98,470.36 754.80,471.07 755.62,471.76 756.44,472.43 757.26,473.07 758.08,473.70 758.89,474.31 759.71,474.90 760.53,475.47 761.35,476.03 762.17,476.56 762.99,477.08 763.81,477.58 764.63,478.07 765.45,478.54 766.26,478.99 767.08,479.43 767.90,479.85 768.72,480.26 769.54,480.66 770.36,481.04 771.18,481.40 772.00,481.76 772.81,482.10 773.63,482.43 774.45,482.75 775.27,483.06 776.09,483.35 776.91,483.64 777.73,483.91 778.55,484.17 779.37,484.43 780.18,484.67 781.00,484.90 781.82,485.13 782.64,485.35 783.46,485.55 784.28,485.75 785.10,485.95 785.92,486.13 786.73,486.31 787.55,486.48 788.37,486.64 789.19,486.80 790.01,486.95 790.83,487.09 791.65,487.23 792.47,487.36 793.29,487.48 794.10,487.60 794.92,487.72 795.74,487.83 796.56,487.94 797.38,488.04 798.20,488.13 799.02,488.23 799.84,488.31 800.65,488.40 801.47,488.48 802.29,488.55 803.11,488.63 803.93,488.70 804.75,488.76 805.57,488.83 806.39,488.89 807.21,488.95 808.02,489.00 808.84,489.05 809.66,489.10 810.48,489.15 811.30,489.19 812.12,489.24 812.94,489.28 813.76,489.32 814.57,489.35 815.39,489.39 816.21,489.42 817.03,489.45 817.85,489.48 818.67,489.51 819.49,489.54 820.31,489.57 821.13,489.59 821.94,489.61 822.76,489.63 823.58,489.66 824.40,489.67 825.22,489.69 826.04,489.71 826.86,489.73 827.68,489.74 828.49,489.76 829.31,489.77 830.13,489.79 830.95,489.80 831.77,489.81 832.59,489.82 833.41,489.83 834.23,489.84 835.05,489.85 835.86,489.86 836.68,489.87 837.50,489.88 838.32,489.88 839.14,489.89 839.96,489.90 840.78,489.90 841.60,489.91 842.41,489.92 843.23,489.92 844.05,489.93 844.87,489.93 845.69,489.94 846.51,489.94 847.33,489.94 848.15,489.95 848.96,489.95 849.78,489.95 850.60,489.96 851.42,489.96 852.24,489.96 853.06,489.96 853.88,489.97 854.70,489.97 855.52,489.97 856.33,489.97 857.15,489.97 857.97,489.98 858.79,489.98 859.61,489.98 860.43,489.98 861.25,489.98 862.07,489.98 862.88,489.98 863.70,489.99 864.52,489.99 865.34,489.99 866.16,489.99 866.98,489.99 867.80,489.99 868.62,489.99 869.44,489.99 870.25,489.99 871.07,489.99 871.89,489.99 872.71,489.99 873.53,489.99 874.35,489.99 875.17,489.99 875.99,490.00 876.80,490.00 877.62,490.00 878.44,490.00 879.26,490.00 880.08,490.00 880.90,490.00 881.72,490.00 882.54,490.00 883.36,490.00 884.17,490.00 884.99,490.00 885.81,490.00 886.63,490.00 887.45,490.00 888.27,490.00 889.09,490.00 889.91,490.00 890.72,490.00 891.54,490.00 892.36,490.00 893.18,490.00 894.00,490.00" fill="none" stroke="#0F766E" stroke-width="2.4" stroke-linejoin="round" stroke-linecap="round"/>
<polyline points="76.00,490.00 76.82,490.00 77.64,490.00 78.46,490.00 79.28,490.00 80.09,490.00 80.91,490.00 81.73,490.00 82.55,490.00 83.37,490.00 84.19,490.00 85.01,490.00 85.83,490.00 86.64,490.00 87.46,490.00 88.28,490.00 89.10,490.00 89.92,490.00 90.74,490.00 91.56,490.00 92.38,490.00 93.20,490.00 94.01,490.00 94.83,490.00 95.65,490.00 96.47,490.00 97.29,490.00 98.11,490.00 98.93,490.00 99.75,490.00 100.56,490.00 101.38,490.00 102.20,490.00 103.02,490.00 103.84,490.00 104.66,490.00 105.48,490.00 106.30,490.00 107.12,490.00 107.93,490.00 108.75,490.00 109.57,490.00 110.39,490.00 111.21,490.00 112.03,490.00 112.85,490.00 113.67,490.00 114.48,490.00 115.30,490.00 116.12,490.00 116.94,490.00 117.76,490.00 118.58,490.00 119.40,490.00 120.22,490.00 121.04,490.00 121.85,490.00 122.67,490.00 123.49,490.00 124.31,490.00 125.13,490.00 125.95,490.00 126.77,490.00 127.59,490.00 128.40,490.00 129.22,490.00 130.04,490.00 130.86,490.00 131.68,490.00 132.50,490.00 133.32,490.00 134.14,490.00 134.95,490.00 135.77,490.00 136.59,490.00 137.41,490.00 138.23,489.99 139.05,489.99 139.87,489.99 140.69,489.99 141.51,489.99 142.32,489.99 143.14,489.99 143.96,489.99 144.78,489.99 145.60,489.99 146.42,489.99 147.24,489.99 148.06,489.99 148.87,489.99 149.69,489.99 150.51,489.98 151.33,489.98 152.15,489.98 152.97,489.98 153.79,489.98 154.61,489.98 155.43,489.98 156.24,489.97 157.06,489.97 157.88,489.97 158.70,489.97 159.52,489.97 160.34,489.96 161.16,489.96 161.98,489.96 162.79,489.96 163.61,489.95 164.43,489.95 165.25,489.95 166.07,489.94 166.89,489.94 167.71,489.94 168.53,489.93 169.35,489.93 170.16,489.92 170.98,489.92 171.80,489.91 172.62,489.91 173.44,489.90 174.26,489.89 175.08,489.89 175.90,489.88 176.71,489.87 177.53,489.86 178.35,489.85 179.17,489.84 179.99,489.83 180.81,489.82 181.63,489.81 182.45,489.80 183.27,489.79 184.08,489.77 184.90,489.76 185.72,489.75 186.54,489.73 187.36,489.71 188.18,489.70 189.00,489.68 189.82,489.66 190.63,489.64 191.45,489.62 192.27,489.59 193.09,489.57 193.91,489.54 194.73,489.52 195.55,489.49 196.37,489.46 197.19,489.43 198.00,489.39 198.82,489.36 199.64,489.32 200.46,489.29 201.28,489.24 202.10,489.20 202.92,489.16 203.74,489.11 204.55,489.06 205.37,489.01 206.19,488.95 207.01,488.90 207.83,488.84 208.65,488.77 209.47,488.71 210.29,488.64 211.11,488.57 211.92,488.49 212.74,488.41 213.56,488.33 214.38,488.24 215.20,488.15 216.02,488.05 216.84,487.95 217.66,487.85 218.47,487.74 219.29,487.62 220.11,487.50 220.93,487.38 221.75,487.25 222.57,487.11 223.39,486.97 224.21,486.82 225.03,486.67 225.84,486.51 226.66,486.34 227.48,486.16 228.30,485.98 229.12,485.79 229.94,485.59 230.76,485.38 231.58,485.17 232.39,484.94 233.21,484.71 234.03,484.47 234.85,484.22 235.67,483.96 236.49,483.68 237.31,483.40 238.13,483.11 238.94,482.80 239.76,482.49 240.58,482.16 241.40,481.82 242.22,481.47 243.04,481.10 243.86,480.72 244.68,480.33 245.50,479.92 246.31,479.50 247.13,479.07 247.95,478.61 248.77,478.15 249.59,477.67 250.41,477.17 251.23,476.65 252.05,476.12 252.86,475.57 253.68,475.00 254.50,474.41 255.32,473.81 256.14,473.18 256.96,472.54 257.78,471.87 258.60,471.19 259.42,470.48 260.23,469.76 261.05,469.01 261.87,468.24 262.69,467.45 263.51,466.63 264.33,465.79 265.15,464.93 265.97,464.04 266.78,463.13 267.60,462.19 268.42,461.23 269.24,460.24 270.06,459.23 270.88,458.19 271.70,457.12 272.52,456.03 273.34,454.91 274.15,453.76 274.97,452.58 275.79,451.38 276.61,450.15 277.43,448.88 278.25,447.59 279.07,446.27 279.89,444.92 280.70,443.54 281.52,442.13 282.34,440.69 283.16,439.22 283.98,437.72 284.80,436.19 285.62,434.63 286.44,433.03 287.26,431.41 288.07,429.76 288.89,428.07 289.71,426.35 290.53,424.61 291.35,422.83 292.17,421.02 292.99,419.18 293.81,417.32 294.62,415.42 295.44,413.49 296.26,411.53 297.08,409.54 297.90,407.52 298.72,405.48 299.54,403.40 300.36,401.30 301.18,399.17 301.99,397.01 302.81,394.82 303.63,392.61 304.45,390.37 305.27,388.11 306.09,385.82 306.91,383.51 307.73,381.18 308.54,378.82 309.36,376.44 310.18,374.04 311.00,371.62 311.82,369.18 312.64,366.72 313.46,364.24 314.28,361.75 315.10,359.24 315.91,356.71 316.73,354.18 317.55,351.62 318.37,349.06 319.19,346.49 320.01,343.90 320.83,341.31 321.65,338.71 322.46,336.11 323.28,333.50 324.10,330.89 324.92,328.27 325.74,325.66 326.56,323.04 327.38,320.43 328.20,317.82 329.02,315.21 329.83,312.61 330.65,310.02 331.47,307.44 332.29,304.86 333.11,302.30 333.93,299.76 334.75,297.22 335.57,294.71 336.38,292.21 337.20,289.73 338.02,287.27 338.84,284.84 339.66,282.43 340.48,280.04 341.30,277.68 342.12,275.35 342.93,273.05 343.75,270.78 344.57,268.55 345.39,266.35 346.21,264.18 347.03,262.06 347.85,259.97 348.67,257.92 349.49,255.91 350.30,253.95 351.12,252.03 351.94,250.16 352.76,248.33 353.58,246.56 354.40,244.83 355.22,243.16 356.04,241.53 356.85,239.96 357.67,238.45 358.49,236.99 359.31,235.58 360.13,234.24 360.95,232.95 361.77,231.73 362.59,230.56 363.41,229.45 364.22,228.41 365.04,227.43 365.86,226.52 366.68,225.67 367.50,224.88 368.32,224.16 369.14,223.51 369.96,222.92 370.77,222.40 371.59,221.95 372.41,221.57 373.23,221.25 374.05,221.01 374.87,220.83 375.69,220.72 376.51,220.68 377.33,220.71 378.14,220.81 378.96,220.97 379.78,221.21 380.60,221.51 381.42,221.88 382.24,222.32 383.06,222.83 383.88,223.41 384.69,224.05 385.51,224.75 386.33,225.53 387.15,226.37 387.97,227.27 388.79,228.23 389.61,229.26 390.43,230.35 391.25,231.51 392.06,232.72 392.88,233.99 393.70,235.32 394.52,236.71 395.34,238.16 396.16,239.66 396.98,241.21 397.80,242.82 398.61,244.48 399.43,246.19 400.25,247.95 401.07,249.75 401.89,251.61 402.71,253.50 403.53,255.45 404.35,257.43 405.17,259.46 405.98,261.52 406.80,263.63 407.62,265.77 408.44,267.94 409.26,270.15 410.08,272.39 410.90,274.66 411.72,276.96 412.53,279.29 413.35,281.64 414.17,284.02 414.99,286.42 415.81,288.84 416.63,291.28 417.45,293.74 418.27,296.21 419.09,298.70 419.90,301.20 420.72,303.71 421.54,306.24 422.36,308.77 423.18,311.30 424.00,313.84 424.82,316.39 425.64,318.93 426.45,321.48 427.27,324.03 428.09,326.57 428.91,329.11 429.73,331.64 430.55,334.17 431.37,336.69 432.19,339.19 433.01,341.69 433.82,344.17 434.64,346.64 435.46,349.10 436.28,351.53 437.10,353.95 437.92,356.35 438.74,358.73 439.56,361.09 440.37,363.43 441.19,365.74 442.01,368.03 442.83,370.29 443.65,372.52 444.47,374.73 445.29,376.90 446.11,379.05 446.92,381.16 447.74,383.24 448.56,385.29 449.38,387.31 450.20,389.29 451.02,391.23 451.84,393.14 452.66,395.01 453.48,396.85 454.29,398.64 455.11,400.40 455.93,402.11 456.75,403.78 457.57,405.42 458.39,407.01 459.21,408.56 460.03,410.06 460.84,411.52 461.66,412.94 462.48,414.31 463.30,415.64 464.12,416.92 464.94,418.16 465.76,419.35 466.58,420.49 467.40,421.58 468.21,422.63 469.03,423.63 469.85,424.58 470.67,425.49 471.49,426.34 472.31,427.15 473.13,427.90 473.95,428.61 474.76,429.27 475.58,429.88 476.40,430.43 477.22,430.94 478.04,431.40 478.86,431.80 479.68,432.16 480.50,432.46 481.32,432.72 482.13,432.92 482.95,433.08 483.77,433.18 484.59,433.23 485.41,433.23 486.23,433.18 487.05,433.08 487.87,432.92 488.68,432.72 489.50,432.46 490.32,432.16 491.14,431.80 491.96,431.40 492.78,430.94 493.60,430.43 494.42,429.88 495.24,429.27 496.05,428.61 496.87,427.90 497.69,427.15 498.51,426.34 499.33,425.49 500.15,424.58 500.97,423.63 501.79,422.63 502.60,421.58 503.42,420.49 504.24,419.35 505.06,418.16 505.88,416.92 506.70,415.64 507.52,414.31 508.34,412.94 509.16,411.52 509.97,410.06 510.79,408.56 511.61,407.01 512.43,405.42 513.25,403.78 514.07,402.11 514.89,400.40 515.71,398.64 516.52,396.85 517.34,395.01 518.16,393.14 518.98,391.23 519.80,389.29 520.62,387.31 521.44,385.29 522.26,383.24 523.08,381.16 523.89,379.05 524.71,376.90 525.53,374.73 526.35,372.52 527.17,370.29 527.99,368.03 528.81,365.74 529.63,363.43 530.44,361.09 531.26,358.73 532.08,356.35 532.90,353.95 533.72,351.53 534.54,349.10 535.36,346.64 536.18,344.17 536.99,341.69 537.81,339.19 538.63,336.69 539.45,334.17 540.27,331.64 541.09,329.11 541.91,326.57 542.73,324.03 543.55,321.48 544.36,318.93 545.18,316.39 546.00,313.84 546.82,311.30 547.64,308.77 548.46,306.24 549.28,303.71 550.10,301.20 550.91,298.70 551.73,296.21 552.55,293.74 553.37,291.28 554.19,288.84 555.01,286.42 555.83,284.02 556.65,281.64 557.47,279.29 558.28,276.96 559.10,274.66 559.92,272.39 560.74,270.15 561.56,267.94 562.38,265.77 563.20,263.63 564.02,261.52 564.83,259.46 565.65,257.43 566.47,255.45 567.29,253.50 568.11,251.61 568.93,249.75 569.75,247.95 570.57,246.19 571.39,244.48 572.20,242.82 573.02,241.21 573.84,239.66 574.66,238.16 575.48,236.71 576.30,235.32 577.12,233.99 577.94,232.72 578.75,231.51 579.57,230.35 580.39,229.26 581.21,228.23 582.03,227.27 582.85,226.37 583.67,225.53 584.49,224.75 585.31,224.05 586.12,223.41 586.94,222.83 587.76,222.32 588.58,221.88 589.40,221.51 590.22,221.21 591.04,220.97 591.86,220.81 592.67,220.71 593.49,220.68 594.31,220.72 595.13,220.83 595.95,221.01 596.77,221.25 597.59,221.57 598.41,221.95 599.23,222.40 600.04,222.92 600.86,223.51 601.68,224.16 602.50,224.88 603.32,225.67 604.14,226.52 604.96,227.43 605.78,228.41 606.59,229.45 607.41,230.56 608.23,231.73 609.05,232.95 609.87,234.24 610.69,235.58 611.51,236.99 612.33,238.45 613.15,239.96 613.96,241.53 614.78,243.16 615.60,244.83 616.42,246.56 617.24,248.33 618.06,250.16 618.88,252.03 619.70,253.95 620.51,255.91 621.33,257.92 622.15,259.97 622.97,262.06 623.79,264.18 624.61,266.35 625.43,268.55 626.25,270.78 627.07,273.05 627.88,275.35 628.70,277.68 629.52,280.04 630.34,282.43 631.16,284.84 631.98,287.27 632.80,289.73 633.62,292.21 634.43,294.71 635.25,297.22 636.07,299.76 636.89,302.30 637.71,304.86 638.53,307.44 639.35,310.02 640.17,312.61 640.98,315.21 641.80,317.82 642.62,320.43 643.44,323.04 644.26,325.66 645.08,328.27 645.90,330.89 646.72,333.50 647.54,336.11 648.35,338.71 649.17,341.31 649.99,343.90 650.81,346.49 651.63,349.06 652.45,351.62 653.27,354.18 654.09,356.71 654.90,359.24 655.72,361.75 656.54,364.24 657.36,366.72 658.18,369.18 659.00,371.62 659.82,374.04 660.64,376.44 661.46,378.82 662.27,381.18 663.09,383.51 663.91,385.82 664.73,388.11 665.55,390.37 666.37,392.61 667.19,394.82 668.01,397.01 668.82,399.17 669.64,401.30 670.46,403.40 671.28,405.48 672.10,407.52 672.92,409.54 673.74,411.53 674.56,413.49 675.38,415.42 676.19,417.32 677.01,419.18 677.83,421.02 678.65,422.83 679.47,424.61 680.29,426.35 681.11,428.07 681.93,429.76 682.74,431.41 683.56,433.03 684.38,434.63 685.20,436.19 686.02,437.72 686.84,439.22 687.66,440.69 688.48,442.13 689.30,443.54 690.11,444.92 690.93,446.27 691.75,447.59 692.57,448.88 693.39,450.15 694.21,451.38 695.03,452.58 695.85,453.76 696.66,454.91 697.48,456.03 698.30,457.12 699.12,458.19 699.94,459.23 700.76,460.24 701.58,461.23 702.40,462.19 703.22,463.13 704.03,464.04 704.85,464.93 705.67,465.79 706.49,466.63 707.31,467.45 708.13,468.24 708.95,469.01 709.77,469.76 710.58,470.48 711.40,471.19 712.22,471.87 713.04,472.54 713.86,473.18 714.68,473.81 715.50,474.41 716.32,475.00 717.14,475.57 717.95,476.12 718.77,476.65 719.59,477.17 720.41,477.67 721.23,478.15 722.05,478.61 722.87,479.07 723.69,479.50 724.50,479.92 725.32,480.33 726.14,480.72 726.96,481.10 727.78,481.47 728.60,481.82 729.42,482.16 730.24,482.49 731.06,482.80 731.87,483.11 732.69,483.40 733.51,483.68 734.33,483.96 735.15,484.22 735.97,484.47 736.79,484.71 737.61,484.94 738.42,485.17 739.24,485.38 740.06,485.59 740.88,485.79 741.70,485.98 742.52,486.16 743.34,486.34 744.16,486.51 744.97,486.67 745.79,486.82 746.61,486.97 747.43,487.11 748.25,487.25 749.07,487.38 749.89,487.50 750.71,487.62 751.53,487.74 752.34,487.85 753.16,487.95 753.98,488.05 754.80,488.15 755.62,488.24 756.44,488.33 757.26,488.41 758.08,488.49 758.89,488.57 759.71,488.64 760.53,488.71 761.35,488.77 762.17,488.84 762.99,488.90 763.81,488.95 764.63,489.01 765.45,489.06 766.26,489.11 767.08,489.16 767.90,489.20 768.72,489.24 769.54,489.29 770.36,489.32 771.18,489.36 772.00,489.39 772.81,489.43 773.63,489.46 774.45,489.49 775.27,489.52 776.09,489.54 776.91,489.57 777.73,489.59 778.55,489.62 779.37,489.64 780.18,489.66 781.00,489.68 781.82,489.70 782.64,489.71 783.46,489.73 784.28,489.75 785.10,489.76 785.92,489.77 786.73,489.79 787.55,489.80 788.37,489.81 789.19,489.82 790.01,489.83 790.83,489.84 791.65,489.85 792.47,489.86 793.29,489.87 794.10,489.88 794.92,489.89 795.74,489.89 796.56,489.90 797.38,489.91 798.20,489.91 799.02,489.92 799.84,489.92 800.65,489.93 801.47,489.93 802.29,489.94 803.11,489.94 803.93,489.94 804.75,489.95 805.57,489.95 806.39,489.95 807.21,489.96 808.02,489.96 808.84,489.96 809.66,489.96 810.48,489.97 811.30,489.97 812.12,489.97 812.94,489.97 813.76,489.97 814.57,489.98 815.39,489.98 816.21,489.98 817.03,489.98 817.85,489.98 818.67,489.98 819.49,489.98 820.31,489.99 821.13,489.99 821.94,489.99 822.76,489.99 823.58,489.99 824.40,489.99 825.22,489.99 826.04,489.99 826.86,489.99 827.68,489.99 828.49,489.99 829.31,489.99 830.13,489.99 830.95,489.99 831.77,489.99 832.59,490.00 833.41,490.00 834.23,490.00 835.05,490.00 835.86,490.00 836.68,490.00 837.50,490.00 838.32,490.00 839.14,490.00 839.96,490.00 840.78,490.00 841.60,490.00 842.41,490.00 843.23,490.00 844.05,490.00 844.87,490.00 845.69,490.00 846.51,490.00 847.33,490.00 848.15,490.00 848.96,490.00 849.78,490.00 850.60,490.00 851.42,490.00 852.24,490.00 853.06,490.00 853.88,490.00 854.70,490.00 855.52,490.00 856.33,490.00 857.15,490.00 857.97,490.00 858.79,490.00 859.61,490.00 860.43,490.00 861.25,490.00 862.07,490.00 862.88,490.00 863.70,490.00 864.52,490.00 865.34,490.00 866.16,490.00 866.98,490.00 867.80,490.00 868.62,490.00 869.44,490.00 870.25,490.00 871.07,490.00 871.89,490.00 872.71,490.00 873.53,490.00 874.35,490.00 875.17,490.00 875.99,490.00 876.80,490.00 877.62,490.00 878.44,490.00 879.26,490.00 880.08,490.00 880.90,490.00 881.72,490.00 882.54,490.00 883.36,490.00 884.17,490.00 884.99,490.00 885.81,490.00 886.63,490.00 887.45,490.00 888.27,490.00 889.09,490.00 889.91,490.00 890.72,490.00 891.54,490.00 892.36,490.00 893.18,490.00 894.00,490.00" fill="none" stroke="#D85A30" stroke-width="2.4" stroke-linejoin="round" stroke-linecap="round"/>
<polyline points="76.00,490.00 76.82,490.00 77.64,490.00 78.46,490.00 79.28,490.00 80.09,490.00 80.91,490.00 81.73,490.00 82.55,490.00 83.37,490.00 84.19,490.00 85.01,490.00 85.83,490.00 86.64,490.00 87.46,490.00 88.28,490.00 89.10,490.00 89.92,490.00 90.74,490.00 91.56,490.00 92.38,490.00 93.20,490.00 94.01,490.00 94.83,490.00 95.65,490.00 96.47,490.00 97.29,490.00 98.11,490.00 98.93,490.00 99.75,490.00 100.56,490.00 101.38,490.00 102.20,490.00 103.02,490.00 103.84,490.00 104.66,490.00 105.48,490.00 106.30,490.00 107.12,490.00 107.93,490.00 108.75,490.00 109.57,490.00 110.39,490.00 111.21,490.00 112.03,490.00 112.85,490.00 113.67,490.00 114.48,490.00 115.30,490.00 116.12,490.00 116.94,490.00 117.76,490.00 118.58,490.00 119.40,490.00 120.22,490.00 121.04,490.00 121.85,490.00 122.67,490.00 123.49,490.00 124.31,490.00 125.13,490.00 125.95,490.00 126.77,490.00 127.59,490.00 128.40,490.00 129.22,490.00 130.04,490.00 130.86,490.00 131.68,490.00 132.50,490.00 133.32,490.00 134.14,490.00 134.95,490.00 135.77,490.00 136.59,490.00 137.41,490.00 138.23,490.00 139.05,490.00 139.87,490.00 140.69,490.00 141.51,490.00 142.32,490.00 143.14,490.00 143.96,490.00 144.78,490.00 145.60,490.00 146.42,490.00 147.24,490.00 148.06,490.00 148.87,490.00 149.69,490.00 150.51,490.00 151.33,490.00 152.15,490.00 152.97,490.00 153.79,490.00 154.61,490.00 155.43,490.00 156.24,490.00 157.06,490.00 157.88,490.00 158.70,490.00 159.52,490.00 160.34,490.00 161.16,490.00 161.98,490.00 162.79,490.00 163.61,490.00 164.43,490.00 165.25,490.00 166.07,490.00 166.89,490.00 167.71,490.00 168.53,490.00 169.35,490.00 170.16,490.00 170.98,490.00 171.80,490.00 172.62,490.00 173.44,490.00 174.26,490.00 175.08,490.00 175.90,490.00 176.71,490.00 177.53,490.00 178.35,490.00 179.17,490.00 179.99,490.00 180.81,490.00 181.63,490.00 182.45,490.00 183.27,490.00 184.08,490.00 184.90,490.00 185.72,490.00 186.54,490.00 187.36,490.00 188.18,490.00 189.00,490.00 189.82,490.00 190.63,490.00 191.45,490.00 192.27,490.00 193.09,490.00 193.91,490.00 194.73,490.00 195.55,490.00 196.37,490.00 197.19,490.00 198.00,490.00 198.82,490.00 199.64,490.00 200.46,490.00 201.28,490.00 202.10,490.00 202.92,490.00 203.74,490.00 204.55,489.99 205.37,489.99 206.19,489.99 207.01,489.99 207.83,489.99 208.65,489.99 209.47,489.99 210.29,489.99 211.11,489.99 211.92,489.99 212.74,489.99 213.56,489.99 214.38,489.99 215.20,489.99 216.02,489.99 216.84,489.98 217.66,489.98 218.47,489.98 219.29,489.98 220.11,489.98 220.93,489.98 221.75,489.98 222.57,489.97 223.39,489.97 224.21,489.97 225.03,489.97 225.84,489.97 226.66,489.96 227.48,489.96 228.30,489.96 229.12,489.96 229.94,489.95 230.76,489.95 231.58,489.95 232.39,489.94 233.21,489.94 234.03,489.94 234.85,489.93 235.67,489.93 236.49,489.92 237.31,489.92 238.13,489.91 238.94,489.90 239.76,489.90 240.58,489.89 241.40,489.88 242.22,489.88 243.04,489.87 243.86,489.86 244.68,489.85 245.50,489.84 246.31,489.83 247.13,489.82 247.95,489.81 248.77,489.80 249.59,489.79 250.41,489.77 251.23,489.76 252.05,489.74 252.86,489.73 253.68,489.71 254.50,489.69 255.32,489.68 256.14,489.66 256.96,489.63 257.78,489.61 258.60,489.59 259.42,489.57 260.23,489.54 261.05,489.51 261.87,489.48 262.69,489.45 263.51,489.42 264.33,489.39 265.15,489.35 265.97,489.32 266.78,489.28 267.60,489.24 268.42,489.20 269.24,489.15 270.06,489.10 270.88,489.05 271.70,489.00 272.52,488.95 273.34,488.89 274.15,488.83 274.97,488.76 275.79,488.70 276.61,488.63 277.43,488.55 278.25,488.48 279.07,488.40 279.89,488.31 280.70,488.23 281.52,488.13 282.34,488.04 283.16,487.94 283.98,487.83 284.80,487.72 285.62,487.60 286.44,487.48 287.26,487.36 288.07,487.23 288.89,487.09 289.71,486.94 290.53,486.79 291.35,486.64 292.17,486.48 292.99,486.31 293.81,486.13 294.62,485.94 295.44,485.75 296.26,485.55 297.08,485.34 297.90,485.13 298.72,484.90 299.54,484.66 300.36,484.42 301.18,484.17 301.99,483.90 302.81,483.63 303.63,483.34 304.45,483.04 305.27,482.74 306.09,482.42 306.91,482.09 307.73,481.74 308.54,481.39 309.36,481.02 310.18,480.63 311.00,480.24 311.82,479.83 312.64,479.40 313.46,478.96 314.28,478.50 315.10,478.03 315.91,477.54 316.73,477.04 317.55,476.52 318.37,475.98 319.19,475.42 320.01,474.85 320.83,474.25 321.65,473.64 322.46,473.01 323.28,472.35 324.10,471.68 324.92,470.99 325.74,470.27 326.56,469.53 327.38,468.77 328.20,467.99 329.02,467.19 329.83,466.36 330.65,465.50 331.47,464.63 332.29,463.73 333.11,462.80 333.93,461.85 334.75,460.87 335.57,459.86 336.38,458.83 337.20,457.77 338.02,456.69 338.84,455.57 339.66,454.43 340.48,453.26 341.30,452.05 342.12,450.82 342.93,449.56 343.75,448.27 344.57,446.95 345.39,445.60 346.21,444.22 347.03,442.81 347.85,441.36 348.67,439.88 349.49,438.37 350.30,436.83 351.12,435.26 351.94,433.65 352.76,432.01 353.58,430.34 354.40,428.63 355.22,426.89 356.04,425.12 356.85,423.32 357.67,421.48 358.49,419.61 359.31,417.70 360.13,415.76 360.95,413.79 361.77,411.78 362.59,409.74 363.41,407.67 364.22,405.57 365.04,403.43 365.86,401.26 366.68,399.06 367.50,396.82 368.32,394.56 369.14,392.26 369.96,389.93 370.77,387.57 371.59,385.18 372.41,382.76 373.23,380.30 374.05,377.82 374.87,375.32 375.69,372.78 376.51,370.21 377.33,367.62 378.14,365.00 378.96,362.36 379.78,359.69 380.60,357.00 381.42,354.28 382.24,351.54 383.06,348.77 383.88,345.99 384.69,343.18 385.51,340.35 386.33,337.51 387.15,334.64 387.97,331.76 388.79,328.86 389.61,325.95 390.43,323.02 391.25,320.08 392.06,317.12 392.88,314.15 393.70,311.18 394.52,308.19 395.34,305.19 396.16,302.19 396.98,299.18 397.80,296.16 398.61,293.14 399.43,290.11 400.25,287.09 401.07,284.06 401.89,281.03 402.71,278.00 403.53,274.98 404.35,271.95 405.17,268.94 405.98,265.92 406.80,262.92 407.62,259.92 408.44,256.93 409.26,253.95 410.08,250.98 410.90,248.03 411.72,245.08 412.53,242.15 413.35,239.24 414.17,236.34 414.99,233.46 415.81,230.60 416.63,227.76 417.45,224.94 418.27,222.13 419.09,219.36 419.90,216.60 420.72,213.87 421.54,211.16 422.36,208.48 423.18,205.83 424.00,203.20 424.82,200.60 425.64,198.03 426.45,195.49 427.27,192.98 428.09,190.50 428.91,188.06 429.73,185.64 430.55,183.26 431.37,180.91 432.19,178.60 433.01,176.32 433.82,174.07 434.64,171.87 435.46,169.69 436.28,167.56 437.10,165.46 437.92,163.39 438.74,161.37 439.56,159.38 440.37,157.43 441.19,155.52 442.01,153.65 442.83,151.81 443.65,150.01 444.47,148.26 445.29,146.54 446.11,144.86 446.92,143.21 447.74,141.61 448.56,140.05 449.38,138.52 450.20,137.04 451.02,135.59 451.84,134.18 452.66,132.81 453.48,131.48 454.29,130.18 455.11,128.93 455.93,127.71 456.75,126.53 457.57,125.39 458.39,124.28 459.21,123.21 460.03,122.18 460.84,121.19 461.66,120.23 462.48,119.31 463.30,118.42 464.12,117.57 464.94,116.75 465.76,115.97 466.58,115.23 467.40,114.52 468.21,113.84 469.03,113.20 469.85,112.59 470.67,112.01 471.49,111.47 472.31,110.96 473.13,110.49 473.95,110.04 474.76,109.63 475.58,109.25 476.40,108.91 477.22,108.59 478.04,108.31 478.86,108.06 479.68,107.84 480.50,107.65 481.32,107.50 482.13,107.37 482.95,107.28 483.77,107.22 484.59,107.19 485.41,107.19 486.23,107.22 487.05,107.28 487.87,107.37 488.68,107.50 489.50,107.65 490.32,107.84 491.14,108.06 491.96,108.31 492.78,108.59 493.60,108.91 494.42,109.25 495.24,109.63 496.05,110.04 496.87,110.49 497.69,110.96 498.51,111.47 499.33,112.01 500.15,112.59 500.97,113.20 501.79,113.84 502.60,114.52 503.42,115.23 504.24,115.97 505.06,116.75 505.88,117.57 506.70,118.42 507.52,119.31 508.34,120.23 509.16,121.19 509.97,122.18 510.79,123.21 511.61,124.28 512.43,125.39 513.25,126.53 514.07,127.71 514.89,128.93 515.71,130.18 516.52,131.48 517.34,132.81 518.16,134.18 518.98,135.59 519.80,137.04 520.62,138.52 521.44,140.05 522.26,141.61 523.08,143.21 523.89,144.86 524.71,146.54 525.53,148.26 526.35,150.01 527.17,151.81 527.99,153.65 528.81,155.52 529.63,157.43 530.44,159.38 531.26,161.37 532.08,163.39 532.90,165.46 533.72,167.56 534.54,169.69 535.36,171.87 536.18,174.07 536.99,176.32 537.81,178.60 538.63,180.91 539.45,183.26 540.27,185.64 541.09,188.06 541.91,190.50 542.73,192.98 543.55,195.49 544.36,198.03 545.18,200.60 546.00,203.20 546.82,205.83 547.64,208.48 548.46,211.16 549.28,213.87 550.10,216.60 550.91,219.36 551.73,222.13 552.55,224.94 553.37,227.76 554.19,230.60 555.01,233.46 555.83,236.34 556.65,239.24 557.47,242.15 558.28,245.08 559.10,248.03 559.92,250.98 560.74,253.95 561.56,256.93 562.38,259.92 563.20,262.92 564.02,265.92 564.83,268.94 565.65,271.95 566.47,274.98 567.29,278.00 568.11,281.03 568.93,284.06 569.75,287.09 570.57,290.11 571.39,293.14 572.20,296.16 573.02,299.18 573.84,302.19 574.66,305.19 575.48,308.19 576.30,311.18 577.12,314.15 577.94,317.12 578.75,320.08 579.57,323.02 580.39,325.95 581.21,328.86 582.03,331.76 582.85,334.64 583.67,337.51 584.49,340.35 585.31,343.18 586.12,345.99 586.94,348.77 587.76,351.54 588.58,354.28 589.40,357.00 590.22,359.69 591.04,362.36 591.86,365.00 592.67,367.62 593.49,370.21 594.31,372.78 595.13,375.32 595.95,377.82 596.77,380.30 597.59,382.76 598.41,385.18 599.23,387.57 600.04,389.93 600.86,392.26 601.68,394.56 602.50,396.82 603.32,399.06 604.14,401.26 604.96,403.43 605.78,405.57 606.59,407.67 607.41,409.74 608.23,411.78 609.05,413.79 609.87,415.76 610.69,417.70 611.51,419.61 612.33,421.48 613.15,423.32 613.96,425.12 614.78,426.89 615.60,428.63 616.42,430.34 617.24,432.01 618.06,433.65 618.88,435.26 619.70,436.83 620.51,438.37 621.33,439.88 622.15,441.36 622.97,442.81 623.79,444.22 624.61,445.60 625.43,446.95 626.25,448.27 627.07,449.56 627.88,450.82 628.70,452.05 629.52,453.26 630.34,454.43 631.16,455.57 631.98,456.69 632.80,457.77 633.62,458.83 634.43,459.86 635.25,460.87 636.07,461.85 636.89,462.80 637.71,463.73 638.53,464.63 639.35,465.50 640.17,466.36 640.98,467.19 641.80,467.99 642.62,468.77 643.44,469.53 644.26,470.27 645.08,470.99 645.90,471.68 646.72,472.35 647.54,473.01 648.35,473.64 649.17,474.25 649.99,474.85 650.81,475.42 651.63,475.98 652.45,476.52 653.27,477.04 654.09,477.54 654.90,478.03 655.72,478.50 656.54,478.96 657.36,479.40 658.18,479.83 659.00,480.24 659.82,480.63 660.64,481.02 661.46,481.39 662.27,481.74 663.09,482.09 663.91,482.42 664.73,482.74 665.55,483.04 666.37,483.34 667.19,483.63 668.01,483.90 668.82,484.17 669.64,484.42 670.46,484.66 671.28,484.90 672.10,485.13 672.92,485.34 673.74,485.55 674.56,485.75 675.38,485.94 676.19,486.13 677.01,486.31 677.83,486.48 678.65,486.64 679.47,486.79 680.29,486.94 681.11,487.09 681.93,487.23 682.74,487.36 683.56,487.48 684.38,487.60 685.20,487.72 686.02,487.83 686.84,487.94 687.66,488.04 688.48,488.13 689.30,488.23 690.11,488.31 690.93,488.40 691.75,488.48 692.57,488.55 693.39,488.63 694.21,488.70 695.03,488.76 695.85,488.83 696.66,488.89 697.48,488.95 698.30,489.00 699.12,489.05 699.94,489.10 700.76,489.15 701.58,489.20 702.40,489.24 703.22,489.28 704.03,489.32 704.85,489.35 705.67,489.39 706.49,489.42 707.31,489.45 708.13,489.48 708.95,489.51 709.77,489.54 710.58,489.57 711.40,489.59 712.22,489.61 713.04,489.63 713.86,489.66 714.68,489.68 715.50,489.69 716.32,489.71 717.14,489.73 717.95,489.74 718.77,489.76 719.59,489.77 720.41,489.79 721.23,489.80 722.05,489.81 722.87,489.82 723.69,489.83 724.50,489.84 725.32,489.85 726.14,489.86 726.96,489.87 727.78,489.88 728.60,489.88 729.42,489.89 730.24,489.90 731.06,489.90 731.87,489.91 732.69,489.92 733.51,489.92 734.33,489.93 735.15,489.93 735.97,489.94 736.79,489.94 737.61,489.94 738.42,489.95 739.24,489.95 740.06,489.95 740.88,489.96 741.70,489.96 742.52,489.96 743.34,489.96 744.16,489.97 744.97,489.97 745.79,489.97 746.61,489.97 747.43,489.97 748.25,489.98 749.07,489.98 749.89,489.98 750.71,489.98 751.53,489.98 752.34,489.98 753.16,489.98 753.98,489.99 754.80,489.99 755.62,489.99 756.44,489.99 757.26,489.99 758.08,489.99 758.89,489.99 759.71,489.99 760.53,489.99 761.35,489.99 762.17,489.99 762.99,489.99 763.81,489.99 764.63,489.99 765.45,489.99 766.26,490.00 767.08,490.00 767.90,490.00 768.72,490.00 769.54,490.00 770.36,490.00 771.18,490.00 772.00,490.00 772.81,490.00 773.63,490.00 774.45,490.00 775.27,490.00 776.09,490.00 776.91,490.00 777.73,490.00 778.55,490.00 779.37,490.00 780.18,490.00 781.00,490.00 781.82,490.00 782.64,490.00 783.46,490.00 784.28,490.00 785.10,490.00 785.92,490.00 786.73,490.00 787.55,490.00 788.37,490.00 789.19,490.00 790.01,490.00 790.83,490.00 791.65,490.00 792.47,490.00 793.29,490.00 794.10,490.00 794.92,490.00 795.74,490.00 796.56,490.00 797.38,490.00 798.20,490.00 799.02,490.00 799.84,490.00 800.65,490.00 801.47,490.00 802.29,490.00 803.11,490.00 803.93,490.00 804.75,490.00 805.57,490.00 806.39,490.00 807.21,490.00 808.02,490.00 808.84,490.00 809.66,490.00 810.48,490.00 811.30,490.00 812.12,490.00 812.94,490.00 813.76,490.00 814.57,490.00 815.39,490.00 816.21,490.00 817.03,490.00 817.85,490.00 818.67,490.00 819.49,490.00 820.31,490.00 821.13,490.00 821.94,490.00 822.76,490.00 823.58,490.00 824.40,490.00 825.22,490.00 826.04,490.00 826.86,490.00 827.68,490.00 828.49,490.00 829.31,490.00 830.13,490.00 830.95,490.00 831.77,490.00 832.59,490.00 833.41,490.00 834.23,490.00 835.05,490.00 835.86,490.00 836.68,490.00 837.50,490.00 838.32,490.00 839.14,490.00 839.96,490.00 840.78,490.00 841.60,490.00 842.41,490.00 843.23,490.00 844.05,490.00 844.87,490.00 845.69,490.00 846.51,490.00 847.33,490.00 848.15,490.00 848.96,490.00 849.78,490.00 850.60,490.00 851.42,490.00 852.24,490.00 853.06,490.00 853.88,490.00 854.70,490.00 855.52,490.00 856.33,490.00 857.15,490.00 857.97,490.00 858.79,490.00 859.61,490.00 860.43,490.00 861.25,490.00 862.07,490.00 862.88,490.00 863.70,490.00 864.52,490.00 865.34,490.00 866.16,490.00 866.98,490.00 867.80,490.00 868.62,490.00 869.44,490.00 870.25,490.00 871.07,490.00 871.89,490.00 872.71,490.00 873.53,490.00 874.35,490.00 875.17,490.00 875.99,490.00 876.80,490.00 877.62,490.00 878.44,490.00 879.26,490.00 880.08,490.00 880.90,490.00 881.72,490.00 882.54,490.00 883.36,490.00 884.17,490.00 884.99,490.00 885.81,490.00 886.63,490.00 887.45,490.00 888.27,490.00 889.09,490.00 889.91,490.00 890.72,490.00 891.54,490.00 892.36,490.00 893.18,490.00 894.00,490.00" fill="none" stroke="#378ADD" stroke-width="2.4" stroke-linejoin="round" stroke-linecap="round"/>
<polyline points="76.00,490.00 76.82,490.00 77.64,490.00 78.46,490.00 79.28,490.00 80.09,490.00 80.91,490.00 81.73,490.00 82.55,490.00 83.37,490.00 84.19,490.00 85.01,490.00 85.83,490.00 86.64,490.00 87.46,490.00 88.28,490.00 89.10,490.00 89.92,490.00 90.74,490.00 91.56,490.00 92.38,490.00 93.20,490.00 94.01,490.00 94.83,490.00 95.65,490.00 96.47,490.00 97.29,490.00 98.11,490.00 98.93,490.00 99.75,490.00 100.56,490.00 101.38,490.00 102.20,490.00 103.02,490.00 103.84,490.00 104.66,490.00 105.48,490.00 106.30,490.00 107.12,490.00 107.93,490.00 108.75,490.00 109.57,490.00 110.39,490.00 111.21,490.00 112.03,490.00 112.85,490.00 113.67,490.00 114.48,490.00 115.30,490.00 116.12,490.00 116.94,490.00 117.76,490.00 118.58,490.00 119.40,490.00 120.22,490.00 121.04,490.00 121.85,490.00 122.67,490.00 123.49,490.00 124.31,490.00 125.13,490.00 125.95,490.00 126.77,490.00 127.59,490.00 128.40,490.00 129.22,490.00 130.04,490.00 130.86,490.00 131.68,490.00 132.50,490.00 133.32,490.00 134.14,490.00 134.95,490.00 135.77,490.00 136.59,490.00 137.41,490.00 138.23,490.00 139.05,490.00 139.87,490.00 140.69,490.00 141.51,490.00 142.32,490.00 143.14,490.00 143.96,490.00 144.78,490.00 145.60,490.00 146.42,490.00 147.24,490.00 148.06,490.00 148.87,490.00 149.69,490.00 150.51,490.00 151.33,490.00 152.15,490.00 152.97,490.00 153.79,490.00 154.61,490.00 155.43,490.00 156.24,490.00 157.06,490.00 157.88,490.00 158.70,490.00 159.52,490.00 160.34,490.00 161.16,490.00 161.98,490.00 162.79,490.00 163.61,490.00 164.43,490.00 165.25,490.00 166.07,490.00 166.89,490.00 167.71,490.00 168.53,490.00 169.35,490.00 170.16,490.00 170.98,490.00 171.80,490.00 172.62,490.00 173.44,490.00 174.26,490.00 175.08,490.00 175.90,490.00 176.71,490.00 177.53,490.00 178.35,490.00 179.17,490.00 179.99,490.00 180.81,490.00 181.63,490.00 182.45,490.00 183.27,490.00 184.08,490.00 184.90,490.00 185.72,490.00 186.54,490.00 187.36,490.00 188.18,490.00 189.00,490.00 189.82,490.00 190.63,490.00 191.45,490.00 192.27,490.00 193.09,490.00 193.91,490.00 194.73,490.00 195.55,490.00 196.37,490.00 197.19,490.00 198.00,490.00 198.82,490.00 199.64,490.00 200.46,490.00 201.28,490.00 202.10,490.00 202.92,490.00 203.74,490.00 204.55,490.00 205.37,490.00 206.19,490.00 207.01,490.00 207.83,490.00 208.65,490.00 209.47,490.00 210.29,490.00 211.11,490.00 211.92,490.00 212.74,490.00 213.56,490.00 214.38,490.00 215.20,490.00 216.02,490.00 216.84,490.00 217.66,490.00 218.47,490.00 219.29,490.00 220.11,490.00 220.93,490.00 221.75,490.00 222.57,490.00 223.39,490.00 224.21,490.00 225.03,490.00 225.84,490.00 226.66,490.00 227.48,490.00 228.30,490.00 229.12,490.00 229.94,490.00 230.76,490.00 231.58,490.00 232.39,490.00 233.21,490.00 234.03,490.00 234.85,490.00 235.67,490.00 236.49,489.99 237.31,489.99 238.13,489.99 238.94,489.99 239.76,489.99 240.58,489.99 241.40,489.99 242.22,489.99 243.04,489.99 243.86,489.99 244.68,489.99 245.50,489.99 246.31,489.99 247.13,489.99 247.95,489.99 248.77,489.98 249.59,489.98 250.41,489.98 251.23,489.98 252.05,489.98 252.86,489.98 253.68,489.98 254.50,489.97 255.32,489.97 256.14,489.97 256.96,489.97 257.78,489.97 258.60,489.96 259.42,489.96 260.23,489.96 261.05,489.96 261.87,489.95 262.69,489.95 263.51,489.95 264.33,489.94 265.15,489.94 265.97,489.93 266.78,489.93 267.60,489.92 268.42,489.92 269.24,489.91 270.06,489.91 270.88,489.90 271.70,489.89 272.52,489.89 273.34,489.88 274.15,489.87 274.97,489.86 275.79,489.85 276.61,489.84 277.43,489.83 278.25,489.82 279.07,489.81 279.89,489.80 280.70,489.79 281.52,489.77 282.34,489.76 283.16,489.74 283.98,489.72 284.80,489.71 285.62,489.69 286.44,489.67 287.26,489.65 288.07,489.63 288.89,489.60 289.71,489.58 290.53,489.55 291.35,489.52 292.17,489.50 292.99,489.47 293.81,489.43 294.62,489.40 295.44,489.36 296.26,489.32 297.08,489.28 297.90,489.24 298.72,489.20 299.54,489.15 300.36,489.10 301.18,489.05 301.99,488.99 302.81,488.93 303.63,488.87 304.45,488.81 305.27,488.74 306.09,488.67 306.91,488.60 307.73,488.52 308.54,488.43 309.36,488.35 310.18,488.26 311.00,488.16 311.82,488.06 312.64,487.95 313.46,487.84 314.28,487.73 315.10,487.60 315.91,487.48 316.73,487.34 317.55,487.20 318.37,487.05 319.19,486.90 320.01,486.74 320.83,486.57 321.65,486.39 322.46,486.21 323.28,486.02 324.10,485.81 324.92,485.60 325.74,485.38 326.56,485.15 327.38,484.91 328.20,484.66 329.02,484.40 329.83,484.12 330.65,483.84 331.47,483.54 332.29,483.23 333.11,482.90 333.93,482.57 334.75,482.21 335.57,481.85 336.38,481.47 337.20,481.07 338.02,480.66 338.84,480.23 339.66,479.78 340.48,479.32 341.30,478.83 342.12,478.33 342.93,477.81 343.75,477.27 344.57,476.71 345.39,476.12 346.21,475.52 347.03,474.89 347.85,474.24 348.67,473.57 349.49,472.87 350.30,472.14 351.12,471.39 351.94,470.61 352.76,469.81 353.58,468.98 354.40,468.11 355.22,467.22 356.04,466.30 356.85,465.35 357.67,464.36 358.49,463.35 359.31,462.30 360.13,461.21 360.95,460.09 361.77,458.94 362.59,457.74 363.41,456.51 364.22,455.25 365.04,453.94 365.86,452.59 366.68,451.21 367.50,449.78 368.32,448.31 369.14,446.80 369.96,445.24 370.77,443.64 371.59,441.99 372.41,440.30 373.23,438.56 374.05,436.78 374.87,434.94 375.69,433.06 376.51,431.13 377.33,429.14 378.14,427.11 378.96,425.02 379.78,422.89 380.60,420.69 381.42,418.45 382.24,416.15 383.06,413.80 383.88,411.39 384.69,408.92 385.51,406.40 386.33,403.83 387.15,401.19 387.97,398.50 388.79,395.75 389.61,392.94 390.43,390.07 391.25,387.15 392.06,384.16 392.88,381.12 393.70,378.02 394.52,374.85 395.34,371.63 396.16,368.35 396.98,365.01 397.80,361.61 398.61,358.14 399.43,354.62 400.25,351.05 401.07,347.41 401.89,343.71 402.71,339.96 403.53,336.14 404.35,332.27 405.17,328.35 405.98,324.37 406.80,320.33 407.62,316.23 408.44,312.09 409.26,307.89 410.08,303.63 410.90,299.33 411.72,294.98 412.53,290.57 413.35,286.12 414.17,281.62 414.99,277.08 415.81,272.49 416.63,267.86 417.45,263.18 418.27,258.47 419.09,253.71 419.90,248.92 420.72,244.10 421.54,239.24 422.36,234.35 423.18,229.43 424.00,224.48 424.82,219.50 425.64,214.50 426.45,209.48 427.27,204.44 428.09,199.38 428.91,194.31 429.73,189.22 430.55,184.12 431.37,179.02 432.19,173.90 433.01,168.79 433.82,163.67 434.64,158.56 435.46,153.45 436.28,148.34 437.10,143.25 437.92,138.17 438.74,133.10 439.56,128.05 440.37,123.02 441.19,118.02 442.01,113.04 442.83,108.09 443.65,103.18 444.47,98.29 445.29,93.45 446.11,88.65 446.92,83.89 447.74,79.17 448.56,74.51 449.38,69.90 450.20,65.34 451.02,60.85" fill="none" stroke="#B91C1C" stroke-width="2.4" stroke-linejoin="round" stroke-linecap="round"/>
<polyline points="518.98,60.85 519.80,65.34 520.62,69.90 521.44,74.51 522.26,79.17 523.08,83.89 523.89,88.65 524.71,93.45 525.53,98.29 526.35,103.18 527.17,108.09 527.99,113.04 528.81,118.02 529.63,123.02 530.44,128.05 531.26,133.10 532.08,138.17 532.90,143.25 533.72,148.34 534.54,153.45 535.36,158.56 536.18,163.67 536.99,168.79 537.81,173.90 538.63,179.02 539.45,184.12 540.27,189.22 541.09,194.31 541.91,199.38 542.73,204.44 543.55,209.48 544.36,214.50 545.18,219.50 546.00,224.48 546.82,229.43 547.64,234.35 548.46,239.24 549.28,244.10 550.10,248.92 550.91,253.71 551.73,258.47 552.55,263.18 553.37,267.86 554.19,272.49 555.01,277.08 555.83,281.62 556.65,286.12 557.47,290.57 558.28,294.98 559.10,299.33 559.92,303.63 560.74,307.89 561.56,312.09 562.38,316.23 563.20,320.33 564.02,324.37 564.83,328.35 565.65,332.27 566.47,336.14 567.29,339.96 568.11,343.71 568.93,347.41 569.75,351.05 570.57,354.62 571.39,358.14 572.20,361.61 573.02,365.01 573.84,368.35 574.66,371.63 575.48,374.85 576.30,378.02 577.12,381.12 577.94,384.16 578.75,387.15 579.57,390.07 580.39,392.94 581.21,395.75 582.03,398.50 582.85,401.19 583.67,403.83 584.49,406.40 585.31,408.92 586.12,411.39 586.94,413.80 587.76,416.15 588.58,418.45 589.40,420.69 590.22,422.89 591.04,425.02 591.86,427.11 592.67,429.14 593.49,431.13 594.31,433.06 595.13,434.94 595.95,436.78 596.77,438.56 597.59,440.30 598.41,441.99 599.23,443.64 600.04,445.24 600.86,446.80 601.68,448.31 602.50,449.78 603.32,451.21 604.14,452.59 604.96,453.94 605.78,455.25 606.59,456.51 607.41,457.74 608.23,458.94 609.05,460.09 609.87,461.21 610.69,462.30 611.51,463.35 612.33,464.36 613.15,465.35 613.96,466.30 614.78,467.22 615.60,468.11 616.42,468.98 617.24,469.81 618.06,470.61 618.88,471.39 619.70,472.14 620.51,472.87 621.33,473.57 622.15,474.24 622.97,474.89 623.79,475.52 624.61,476.12 625.43,476.71 626.25,477.27 627.07,477.81 627.88,478.33 628.70,478.83 629.52,479.32 630.34,479.78 631.16,480.23 631.98,480.66 632.80,481.07 633.62,481.47 634.43,481.85 635.25,482.21 636.07,482.57 636.89,482.90 637.71,483.23 638.53,483.54 639.35,483.84 640.17,484.12 640.98,484.40 641.80,484.66 642.62,484.91 643.44,485.15 644.26,485.38 645.08,485.60 645.90,485.81 646.72,486.02 647.54,486.21 648.35,486.39 649.17,486.57 649.99,486.74 650.81,486.90 651.63,487.05 652.45,487.20 653.27,487.34 654.09,487.48 654.90,487.60 655.72,487.73 656.54,487.84 657.36,487.95 658.18,488.06 659.00,488.16 659.82,488.26 660.64,488.35 661.46,488.43 662.27,488.52 663.09,488.60 663.91,488.67 664.73,488.74 665.55,488.81 666.37,488.87 667.19,488.93 668.01,488.99 668.82,489.05 669.64,489.10 670.46,489.15 671.28,489.20 672.10,489.24 672.92,489.28 673.74,489.32 674.56,489.36 675.38,489.40 676.19,489.43 677.01,489.47 677.83,489.50 678.65,489.52 679.47,489.55 680.29,489.58 681.11,489.60 681.93,489.63 682.74,489.65 683.56,489.67 684.38,489.69 685.20,489.71 686.02,489.72 686.84,489.74 687.66,489.76 688.48,489.77 689.30,489.79 690.11,489.80 690.93,489.81 691.75,489.82 692.57,489.83 693.39,489.84 694.21,489.85 695.03,489.86 695.85,489.87 696.66,489.88 697.48,489.89 698.30,489.89 699.12,489.90 699.94,489.91 700.76,489.91 701.58,489.92 702.40,489.92 703.22,489.93 704.03,489.93 704.85,489.94 705.67,489.94 706.49,489.95 707.31,489.95 708.13,489.95 708.95,489.96 709.77,489.96 710.58,489.96 711.40,489.96 712.22,489.97 713.04,489.97 713.86,489.97 714.68,489.97 715.50,489.97 716.32,489.98 717.14,489.98 717.95,489.98 718.77,489.98 719.59,489.98 720.41,489.98 721.23,489.98 722.05,489.99 722.87,489.99 723.69,489.99 724.50,489.99 725.32,489.99 726.14,489.99 726.96,489.99 727.78,489.99 728.60,489.99 729.42,489.99 730.24,489.99 731.06,489.99 731.87,489.99 732.69,489.99 733.51,489.99 734.33,490.00 735.15,490.00 735.97,490.00 736.79,490.00 737.61,490.00 738.42,490.00 739.24,490.00 740.06,490.00 740.88,490.00 741.70,490.00 742.52,490.00 743.34,490.00 744.16,490.00 744.97,490.00 745.79,490.00 746.61,490.00 747.43,490.00 748.25,490.00 749.07,490.00 749.89,490.00 750.71,490.00 751.53,490.00 752.34,490.00 753.16,490.00 753.98,490.00 754.80,490.00 755.62,490.00 756.44,490.00 757.26,490.00 758.08,490.00 758.89,490.00 759.71,490.00 760.53,490.00 761.35,490.00 762.17,490.00 762.99,490.00 763.81,490.00 764.63,490.00 765.45,490.00 766.26,490.00 767.08,490.00 767.90,490.00 768.72,490.00 769.54,490.00 770.36,490.00 771.18,490.00 772.00,490.00 772.81,490.00 773.63,490.00 774.45,490.00 775.27,490.00 776.09,490.00 776.91,490.00 777.73,490.00 778.55,490.00 779.37,490.00 780.18,490.00 781.00,490.00 781.82,490.00 782.64,490.00 783.46,490.00 784.28,490.00 785.10,490.00 785.92,490.00 786.73,490.00 787.55,490.00 788.37,490.00 789.19,490.00 790.01,490.00 790.83,490.00 791.65,490.00 792.47,490.00 793.29,490.00 794.10,490.00 794.92,490.00 795.74,490.00 796.56,490.00 797.38,490.00 798.20,490.00 799.02,490.00 799.84,490.00 800.65,490.00 801.47,490.00 802.29,490.00 803.11,490.00 803.93,490.00 804.75,490.00 805.57,490.00 806.39,490.00 807.21,490.00 808.02,490.00 808.84,490.00 809.66,490.00 810.48,490.00 811.30,490.00 812.12,490.00 812.94,490.00 813.76,490.00 814.57,490.00 815.39,490.00 816.21,490.00 817.03,490.00 817.85,490.00 818.67,490.00 819.49,490.00 820.31,490.00 821.13,490.00 821.94,490.00 822.76,490.00 823.58,490.00 824.40,490.00 825.22,490.00 826.04,490.00 826.86,490.00 827.68,490.00 828.49,490.00 829.31,490.00 830.13,490.00 830.95,490.00 831.77,490.00 832.59,490.00 833.41,490.00 834.23,490.00 835.05,490.00 835.86,490.00 836.68,490.00 837.50,490.00 838.32,490.00 839.14,490.00 839.96,490.00 840.78,490.00 841.60,490.00 842.41,490.00 843.23,490.00 844.05,490.00 844.87,490.00 845.69,490.00 846.51,490.00 847.33,490.00 848.15,490.00 848.96,490.00 849.78,490.00 850.60,490.00 851.42,490.00 852.24,490.00 853.06,490.00 853.88,490.00 854.70,490.00 855.52,490.00 856.33,490.00 857.15,490.00 857.97,490.00 858.79,490.00 859.61,490.00 860.43,490.00 861.25,490.00 862.07,490.00 862.88,490.00 863.70,490.00 864.52,490.00 865.34,490.00 866.16,490.00 866.98,490.00 867.80,490.00 868.62,490.00 869.44,490.00 870.25,490.00 871.07,490.00 871.89,490.00 872.71,490.00 873.53,490.00 874.35,490.00 875.17,490.00 875.99,490.00 876.80,490.00 877.62,490.00 878.44,490.00 879.26,490.00 880.08,490.00 880.90,490.00 881.72,490.00 882.54,490.00 883.36,490.00 884.17,490.00 884.99,490.00 885.81,490.00 886.63,490.00 887.45,490.00 888.27,490.00 889.09,490.00 889.91,490.00 890.72,490.00 891.54,490.00 892.36,490.00 893.18,490.00 894.00,490.00" fill="none" stroke="#B91C1C" stroke-width="2.4" stroke-linejoin="round" stroke-linecap="round"/>
<rect x="712" y="58" width="164" height="108" fill="white" opacity="0.86" stroke="#D1D5DB"/>
<line x1="724" y1="74" x2="752" y2="74" stroke="#0F766E" stroke-width="3"/>
<text x="760" y="78" font-family="Arial" font-size="13" fill="#111827">lambda=4, R=5.95</text>
<line x1="724" y1="98" x2="752" y2="98" stroke="#D85A30" stroke-width="3"/>
<text x="760" y="102" font-family="Arial" font-size="13" fill="#111827">lambda=0, R=4.24</text>
<line x1="724" y1="122" x2="752" y2="122" stroke="#378ADD" stroke-width="3"/>
<text x="760" y="126" font-family="Arial" font-size="13" fill="#111827">lambda=-2.5, R=1.65</text>
<line x1="724" y1="146" x2="752" y2="146" stroke="#B91C1C" stroke-width="3"/>
<text x="760" y="150" font-family="Arial" font-size="13" fill="#111827">lambda=-6, R=0.30</text>
<text x="485.0" y="540" text-anchor="middle" font-family="Arial" font-size="15">x_lambda</text>
<text x="20" y="274.0" text-anchor="middle" font-family="Arial" font-size="15" transform="rotate(-90 20 274.0)">density</text>
</svg>