<svg xmlns="http://www.w3.org/2000/svg" width="920" height="560" viewBox="0 0 920 560">
<rect width="100%" height="100%" fill="white"/>
<text x="460.0" y="30" text-anchor="middle" font-family="Arial" font-size="20" font-weight="600">Mode separability is a function of log SNR, not of the schedule</text>
<line x1="76.00" y1="58" x2="76.00" y2="490" stroke="#E5E7EB" stroke-width="1"/>
<text x="76.00" y="514" text-anchor="middle" font-family="Arial" font-size="12" fill="#374151">-12</text>
<line x1="239.60" y1="58" x2="239.60" y2="490" stroke="#E5E7EB" stroke-width="1"/>
<text x="239.60" y="514" text-anchor="middle" font-family="Arial" font-size="12" fill="#374151">-7.2</text>
<line x1="403.20" y1="58" x2="403.20" y2="490" stroke="#E5E7EB" stroke-width="1"/>
<text x="403.20" y="514" text-anchor="middle" font-family="Arial" font-size="12" fill="#374151">-2.4</text>
<line x1="566.80" y1="58" x2="566.80" y2="490" stroke="#E5E7EB" stroke-width="1"/>
<text x="566.80" y="514" text-anchor="middle" font-family="Arial" font-size="12" fill="#374151">2.4</text>
<line x1="730.40" y1="58" x2="730.40" y2="490" stroke="#E5E7EB" stroke-width="1"/>
<text x="730.40" y="514" text-anchor="middle" font-family="Arial" font-size="12" fill="#374151">7.2</text>
<line x1="894.00" y1="58" x2="894.00" y2="490" stroke="#E5E7EB" stroke-width="1"/>
<text x="894.00" y="514" text-anchor="middle" font-family="Arial" font-size="12" fill="#374151">12</text>
<line x1="76" y1="490.00" x2="894" y2="490.00" stroke="#E5E7EB" stroke-width="1"/>
<text x="66" y="494.00" text-anchor="end" font-family="Arial" font-size="12" fill="#374151">0</text>
<line x1="76" y1="403.60" x2="894" y2="403.60" stroke="#E5E7EB" stroke-width="1"/>
<text x="66" y="407.60" text-anchor="end" font-family="Arial" font-size="12" fill="#374151">1.3</text>
<line x1="76" y1="317.20" x2="894" y2="317.20" stroke="#E5E7EB" stroke-width="1"/>
<text x="66" y="321.20" text-anchor="end" font-family="Arial" font-size="12" fill="#374151">2.6</text>
<line x1="76" y1="230.80" x2="894" y2="230.80" stroke="#E5E7EB" stroke-width="1"/>
<text x="66" y="234.80" text-anchor="end" font-family="Arial" font-size="12" fill="#374151">3.9</text>
<line x1="76" y1="144.40" x2="894" y2="144.40" stroke="#E5E7EB" stroke-width="1"/>
<text x="66" y="148.40" text-anchor="end" font-family="Arial" font-size="12" fill="#374151">5.2</text>
<line x1="76" y1="58.00" x2="894" y2="58.00" stroke="#E5E7EB" stroke-width="1"/>
<text x="66" y="62.00" text-anchor="end" font-family="Arial" font-size="12" fill="#374151">6.5</text>
<rect x="392.78" y="58" width="100.65" height="432" fill="#F97316" opacity="0.10"/>
<line x1="485.00" y1="58" x2="485.00" y2="490" stroke="#D85A30" stroke-width="1.7" stroke-dasharray="6 5"/>
<text x="491.00" y="76" font-family="Arial" font-size="12" fill="#D85A30">lambda=0</text>
<line x1="76" y1="390.00" x2="894" y2="390.00" stroke="#6B7280" stroke-width="1.5" stroke-dasharray="5 5"/>
<text x="84" y="384.00" font-family="Arial" font-size="12" fill="#6B7280">ambiguous low</text>
<line x1="76" y1="190.00" x2="894" y2="190.00" stroke="#6B7280" stroke-width="1.5" stroke-dasharray="5 5"/>
<text x="84" y="184.00" font-family="Arial" font-size="12" fill="#6B7280">ambiguous high</text>
<line x1="76" y1="490" x2="894" y2="490" stroke="#111827" stroke-width="1.2"/>
<line x1="76" y1="58" x2="76" y2="490" stroke="#111827" stroke-width="1.2"/>
<polyline points="76.00,489.01 76.68,489.00 77.36,488.99 78.05,488.98 78.73,488.97 79.41,488.96 80.09,488.95 80.77,488.94 81.45,488.93 82.13,488.92 82.82,488.90 83.50,488.89 84.18,488.88 84.86,488.87 85.54,488.86 86.23,488.85 86.91,488.84 87.59,488.82 88.27,488.81 88.95,488.80 89.63,488.79 90.31,488.78 91.00,488.76 91.68,488.75 92.36,488.74 93.04,488.73 93.72,488.71 94.40,488.70 95.09,488.69 95.77,488.67 96.45,488.66 97.13,488.65 97.81,488.63 98.50,488.62 99.18,488.61 99.86,488.59 100.54,488.58 101.22,488.56 101.90,488.55 102.58,488.54 103.27,488.52 103.95,488.51 104.63,488.49 105.31,488.48 105.99,488.46 106.68,488.45 107.36,488.43 108.04,488.41 108.72,488.40 109.40,488.38 110.08,488.37 110.76,488.35 111.45,488.33 112.13,488.32 112.81,488.30 113.49,488.28 114.17,488.26 114.86,488.25 115.54,488.23 116.22,488.21 116.90,488.19 117.58,488.18 118.26,488.16 118.94,488.14 119.63,488.12 120.31,488.10 120.99,488.08 121.67,488.06 122.35,488.04 123.04,488.02 123.72,488.00 124.40,487.98 125.08,487.96 125.76,487.94 126.44,487.92 127.12,487.90 127.81,487.88 128.49,487.86 129.17,487.84 129.85,487.82 130.53,487.79 131.22,487.77 131.90,487.75 132.58,487.73 133.26,487.70 133.94,487.68 134.62,487.66 135.31,487.63 135.99,487.61 136.67,487.59 137.35,487.56 138.03,487.54 138.71,487.51 139.39,487.49 140.08,487.46 140.76,487.44 141.44,487.41 142.12,487.38 142.80,487.36 143.49,487.33 144.17,487.30 144.85,487.28 145.53,487.25 146.21,487.22 146.89,487.19 147.57,487.17 148.26,487.14 148.94,487.11 149.62,487.08 150.30,487.05 150.98,487.02 151.67,486.99 152.35,486.96 153.03,486.93 153.71,486.90 154.39,486.87 155.07,486.84 155.75,486.81 156.44,486.77 157.12,486.74 157.80,486.71 158.48,486.68 159.16,486.64 159.85,486.61 160.53,486.57 161.21,486.54 161.89,486.50 162.57,486.47 163.25,486.43 163.94,486.40 164.62,486.36 165.30,486.33 165.98,486.29 166.66,486.25 167.34,486.21 168.02,486.18 168.71,486.14 169.39,486.10 170.07,486.06 170.75,486.02 171.43,485.98 172.12,485.94 172.80,485.90 173.48,485.86 174.16,485.82 174.84,485.77 175.52,485.73 176.20,485.69 176.89,485.64 177.57,485.60 178.25,485.56 178.93,485.51 179.61,485.47 180.30,485.42 180.98,485.38 181.66,485.33 182.34,485.28 183.02,485.23 183.70,485.19 184.38,485.14 185.07,485.09 185.75,485.04 186.43,484.99 187.11,484.94 187.79,484.89 188.48,484.84 189.16,484.79 189.84,484.73 190.52,484.68 191.20,484.63 191.88,484.57 192.56,484.52 193.25,484.46 193.93,484.41 194.61,484.35 195.29,484.29 195.97,484.24 196.65,484.18 197.34,484.12 198.02,484.06 198.70,484.00 199.38,483.94 200.06,483.88 200.75,483.82 201.43,483.76 202.11,483.70 202.79,483.63 203.47,483.57 204.15,483.50 204.84,483.44 205.52,483.37 206.20,483.31 206.88,483.24 207.56,483.17 208.24,483.10 208.93,483.03 209.61,482.96 210.29,482.89 210.97,482.82 211.65,482.75 212.33,482.67 213.02,482.60 213.70,482.53 214.38,482.45 215.06,482.38 215.74,482.30 216.42,482.22 217.10,482.14 217.79,482.07 218.47,481.99 219.15,481.90 219.83,481.82 220.51,481.74 221.19,481.66 221.88,481.57 222.56,481.49 223.24,481.40 223.92,481.32 224.60,481.23 225.28,481.14 225.97,481.05 226.65,480.96 227.33,480.87 228.01,480.78 228.69,480.69 229.38,480.60 230.06,480.50 230.74,480.41 231.42,480.31 232.10,480.21 232.78,480.11 233.47,480.01 234.15,479.91 234.83,479.81 235.51,479.71 236.19,479.61 236.87,479.50 237.56,479.40 238.24,479.29 238.92,479.18 239.60,479.07 240.28,478.96 240.96,478.85 241.65,478.74 242.33,478.63 243.01,478.51 243.69,478.40 244.37,478.28 245.05,478.17 245.74,478.05 246.42,477.93 247.10,477.81 247.78,477.68 248.46,477.56 249.14,477.43 249.83,477.31 250.51,477.18 251.19,477.05 251.87,476.92 252.55,476.79 253.23,476.66 253.91,476.52 254.60,476.39 255.28,476.25 255.96,476.11 256.64,475.97 257.32,475.83 258.00,475.69 258.69,475.55 259.37,475.40 260.05,475.26 260.73,475.11 261.41,474.96 262.10,474.81 262.78,474.66 263.46,474.50 264.14,474.35 264.82,474.19 265.50,474.03 266.19,473.87 266.87,473.71 267.55,473.55 268.23,473.38 268.91,473.21 269.59,473.04 270.27,472.87 270.96,472.70 271.64,472.53 272.32,472.35 273.00,472.18 273.68,472.00 274.37,471.82 275.05,471.64 275.73,471.45 276.41,471.27 277.09,471.08 277.77,470.89 278.46,470.70 279.14,470.50 279.82,470.31 280.50,470.11 281.18,469.91 281.86,469.71 282.55,469.51 283.23,469.30 283.91,469.09 284.59,468.88 285.27,468.67 285.95,468.46 286.63,468.24 287.32,468.02 288.00,467.80 288.68,467.58 289.36,467.36 290.04,467.13 290.73,466.90 291.41,466.67 292.09,466.44 292.77,466.20 293.45,465.96 294.13,465.72 294.82,465.48 295.50,465.23 296.18,464.98 296.86,464.73 297.54,464.48 298.22,464.23 298.91,463.97 299.59,463.71 300.27,463.44 300.95,463.18 301.63,462.91 302.31,462.64 303.00,462.37 303.68,462.09 304.36,461.81 305.04,461.53 305.72,461.24 306.40,460.96 307.09,460.67 307.77,460.37 308.45,460.08 309.13,459.78 309.81,459.48 310.49,459.17 311.18,458.86 311.86,458.55 312.54,458.24 313.22,457.92 313.90,457.60 314.58,457.28 315.27,456.95 315.95,456.62 316.63,456.29 317.31,455.95 317.99,455.61 318.67,455.27 319.36,454.92 320.04,454.57 320.72,454.22 321.40,453.86 322.08,453.50 322.76,453.14 323.44,452.77 324.13,452.40 324.81,452.02 325.49,451.65 326.17,451.26 326.85,450.88 327.53,450.49 328.22,450.10 328.90,449.70 329.58,449.30 330.26,448.89 330.94,448.49 331.62,448.07 332.31,447.66 332.99,447.24 333.67,446.81 334.35,446.38 335.03,445.95 335.72,445.51 336.40,445.07 337.08,444.62 337.76,444.17 338.44,443.72 339.12,443.26 339.81,442.80 340.49,442.33 341.17,441.86 341.85,441.38 342.53,440.90 343.21,440.41 343.90,439.92 344.58,439.43 345.26,438.93 345.94,438.42 346.62,437.91 347.30,437.40 347.99,436.88 348.67,436.35 349.35,435.83 350.03,435.29 350.71,434.75 351.39,434.21 352.07,433.66 352.76,433.10 353.44,432.54 354.12,431.98 354.80,431.41 355.48,430.83 356.17,430.25 356.85,429.66 357.53,429.07 358.21,428.47 358.89,427.87 359.57,427.26 360.25,426.64 360.94,426.02 361.62,425.40 362.30,424.77 362.98,424.13 363.66,423.48 364.35,422.83 365.03,422.18 365.71,421.52 366.39,420.85 367.07,420.18 367.75,419.49 368.44,418.81 369.12,418.12 369.80,417.42 370.48,416.71 371.16,416.00 371.84,415.28 372.53,414.56 373.21,413.83 373.89,413.09 374.57,412.35 375.25,411.60 375.93,410.84 376.62,410.07 377.30,409.30 377.98,408.53 378.66,407.74 379.34,406.95 380.02,406.15 380.70,405.35 381.39,404.54 382.07,403.72 382.75,402.89 383.43,402.06 384.11,401.22 384.80,400.37 385.48,399.51 386.16,398.65 386.84,397.78 387.52,396.91 388.20,396.02 388.88,395.13 389.57,394.23 390.25,393.32 390.93,392.41 391.61,391.49 392.29,390.56 392.98,389.62 393.66,388.68 394.34,387.73 395.02,386.77 395.70,385.80 396.38,384.82 397.06,383.84 397.75,382.85 398.43,381.85 399.11,380.84 399.79,379.83 400.47,378.81 401.16,377.78 401.84,376.74 402.52,375.69 403.20,374.64 403.88,373.58 404.56,372.51 405.25,371.43 405.93,370.35 406.61,369.25 407.29,368.15 407.97,367.04 408.65,365.93 409.33,364.80 410.02,363.67 410.70,362.53 411.38,361.38 412.06,360.22 412.74,359.05 413.43,357.88 414.11,356.70 414.79,355.51 415.47,354.31 416.15,353.11 416.83,351.90 417.51,350.68 418.20,349.45 418.88,348.21 419.56,346.97 420.24,345.72 420.92,344.46 421.61,343.19 422.29,341.92 422.97,340.64 423.65,339.35 424.33,338.05 425.01,336.75 425.69,335.44 426.38,334.12 427.06,332.79 427.74,331.46 428.42,330.12 429.10,328.77 429.79,327.42 430.47,326.06 431.15,324.69 431.83,323.32 432.51,321.94 433.19,320.55 433.88,319.15 434.56,317.75 435.24,316.35 435.92,314.94 436.60,313.52 437.28,312.09 437.97,310.66 438.65,309.23 439.33,307.79 440.01,306.34 440.69,304.89 441.37,303.43 442.06,301.97 442.74,300.50 443.42,299.03 444.10,297.55 444.78,296.07 445.46,294.59 446.14,293.10 446.83,291.60 447.51,290.10 448.19,288.60 448.87,287.10 449.55,285.59 450.24,284.08 450.92,282.56 451.60,281.04 452.28,279.52 452.96,278.00 453.64,276.47 454.32,274.95 455.01,273.42 455.69,271.88 456.37,270.35 457.05,268.82 457.73,267.28 458.42,265.74 459.10,264.20 459.78,262.67 460.46,261.13 461.14,259.59 461.82,258.05 462.50,256.51 463.19,254.97 463.87,253.43 464.55,251.89 465.23,250.36 465.91,248.82 466.60,247.29 467.28,245.75 467.96,244.22 468.64,242.69 469.32,241.17 470.00,239.64 470.69,238.12 471.37,236.60 472.05,235.09 472.73,233.58 473.41,232.07 474.09,230.56 474.78,229.06 475.46,227.56 476.14,226.07 476.82,224.58 477.50,223.10 478.18,221.62 478.87,220.15 479.55,218.68 480.23,217.22 480.91,215.76 481.59,214.31 482.27,212.87 482.95,211.43 483.64,210.00 484.32,208.58 485.00,207.16 485.68,205.75 486.36,204.34 487.05,202.95 487.73,201.56 488.41,200.18 489.09,198.81 489.77,197.44 490.45,196.08 491.13,194.74 491.82,193.40 492.50,192.07 493.18,190.74 493.86,189.43 494.54,188.13 495.23,186.83 495.91,185.55 496.59,184.27 497.27,183.00 497.95,181.75 498.63,180.50 499.31,179.26 500.00,178.04 500.68,176.82 501.36,175.61 502.04,174.42 502.72,173.23 503.41,172.05 504.09,170.89 504.77,169.73 505.45,168.59 506.13,167.46 506.81,166.33 507.49,165.22 508.18,164.12 508.86,163.03 509.54,161.95 510.22,160.88 510.90,159.82 511.59,158.78 512.27,157.74 512.95,156.72 513.63,155.70 514.31,154.70 514.99,153.71 515.67,152.73 516.36,151.76 517.04,150.80 517.72,149.85 518.40,148.92 519.08,147.99 519.76,147.08 520.45,146.17 521.13,145.28 521.81,144.40 522.49,143.53 523.17,142.67 523.86,141.82 524.54,140.98 525.22,140.15 525.90,139.34 526.58,138.53 527.26,137.74 527.94,136.95 528.63,136.18 529.31,135.41 529.99,134.66 530.67,133.91 531.35,133.18 532.03,132.45 532.72,131.74 533.40,131.04 534.08,130.34 534.76,129.66 535.44,128.99 536.12,128.32 536.81,127.67 537.49,127.02 538.17,126.38 538.85,125.76 539.53,125.14 540.22,124.53 540.90,123.93 541.58,123.34 542.26,122.76 542.94,122.19 543.62,121.62 544.31,121.07 544.99,120.52 545.67,119.98 546.35,119.45 547.03,118.93 547.71,118.42 548.39,117.91 549.08,117.42 549.76,116.93 550.44,116.45 551.12,115.97 551.80,115.51 552.49,115.05 553.17,114.60 553.85,114.15 554.53,113.72 555.21,113.29 555.89,112.86 556.58,112.45 557.26,112.04 557.94,111.64 558.62,111.24 559.30,110.86 559.98,110.47 560.66,110.10 561.35,109.73 562.03,109.37 562.71,109.01 563.39,108.66 564.07,108.32 564.76,107.98 565.44,107.64 566.12,107.32 566.80,107.00 567.48,106.68 568.16,106.37 568.85,106.06 569.53,105.77 570.21,105.47 570.89,105.18 571.57,104.90 572.25,104.62 572.94,104.34 573.62,104.08 574.30,103.81 574.98,103.55 575.66,103.30 576.34,103.05 577.03,102.80 577.71,102.56 578.39,102.32 579.07,102.09 579.75,101.86 580.43,101.63 581.12,101.41 581.80,101.20 582.48,100.98 583.16,100.78 583.84,100.57 584.52,100.37 585.20,100.17 585.89,99.98 586.57,99.79 587.25,99.60 587.93,99.42 588.61,99.24 589.30,99.06 589.98,98.89 590.66,98.72 591.34,98.55 592.02,98.39 592.70,98.22 593.38,98.07 594.07,97.91 594.75,97.76 595.43,97.61 596.11,97.46 596.79,97.32 597.48,97.18 598.16,97.04 598.84,96.90 599.52,96.77 600.20,96.64 600.88,96.51 601.56,96.39 602.25,96.26 602.93,96.14 603.61,96.02 604.29,95.91 604.97,95.79 605.66,95.68 606.34,95.57 607.02,95.46 607.70,95.36 608.38,95.25 609.06,95.15 609.75,95.05 610.43,94.95 611.11,94.85 611.79,94.76 612.47,94.67 613.15,94.58 613.84,94.49 614.52,94.40 615.20,94.31 615.88,94.23 616.56,94.15 617.24,94.07 617.92,93.99 618.61,93.91 619.29,93.83 619.97,93.76 620.65,93.69 621.33,93.61 622.01,93.54 622.70,93.47 623.38,93.41 624.06,93.34 624.74,93.27 625.42,93.21 626.11,93.15 626.79,93.09 627.47,93.03 628.15,92.97 628.83,92.91 629.51,92.85 630.20,92.79 630.88,92.74 631.56,92.69 632.24,92.63 632.92,92.58 633.60,92.53 634.28,92.48 634.97,92.43 635.65,92.39 636.33,92.34 637.01,92.29 637.69,92.25 638.38,92.20 639.06,92.16 639.74,92.12 640.42,92.08 641.10,92.04 641.78,92.00 642.47,91.96 643.15,91.92 643.83,91.88 644.51,91.84 645.19,91.81 645.87,91.77 646.56,91.74 647.24,91.70 647.92,91.67 648.60,91.64 649.28,91.60 649.96,91.57 650.64,91.54 651.33,91.51 652.01,91.48 652.69,91.45 653.37,91.42 654.05,91.40 654.74,91.37 655.42,91.34 656.10,91.31 656.78,91.29 657.46,91.26 658.14,91.24 658.83,91.21 659.51,91.19 660.19,91.17 660.87,91.14 661.55,91.12 662.23,91.10 662.91,91.08 663.60,91.06 664.28,91.04 664.96,91.01 665.64,90.99 666.32,90.97 667.00,90.96 667.69,90.94 668.37,90.92 669.05,90.90 669.73,90.88 670.41,90.87 671.10,90.85 671.78,90.83 672.46,90.81 673.14,90.80 673.82,90.78 674.50,90.77 675.19,90.75 675.87,90.74 676.55,90.72 677.23,90.71 677.91,90.69 678.59,90.68 679.27,90.67 679.96,90.65 680.64,90.64 681.32,90.63 682.00,90.62 682.68,90.60 683.37,90.59 684.05,90.58 684.73,90.57 685.41,90.56 686.09,90.55 686.77,90.54 687.46,90.53 688.14,90.51 688.82,90.50 689.50,90.49 690.18,90.49 690.86,90.48 691.54,90.47 692.23,90.46 692.91,90.45 693.59,90.44 694.27,90.43 694.95,90.42 695.63,90.41 696.32,90.41 697.00,90.40 697.68,90.39 698.36,90.38 699.04,90.37 699.73,90.37 700.41,90.36 701.09,90.35 701.77,90.35 702.45,90.34 703.13,90.33 703.82,90.33 704.50,90.32 705.18,90.31 705.86,90.31 706.54,90.30 707.22,90.29 707.90,90.29 708.59,90.28 709.27,90.28 709.95,90.27 710.63,90.27 711.31,90.26 712.00,90.26 712.68,90.25 713.36,90.25 714.04,90.24 714.72,90.24 715.40,90.23 716.09,90.23 716.77,90.22 717.45,90.22 718.13,90.21 718.81,90.21 719.49,90.21 720.18,90.20 720.86,90.20 721.54,90.19 722.22,90.19 722.90,90.19 723.58,90.18 724.26,90.18 724.95,90.18 725.63,90.17 726.31,90.17 726.99,90.16 727.67,90.16 728.36,90.16 729.04,90.16 729.72,90.15 730.40,90.15 731.08,90.15 731.76,90.14 732.45,90.14 733.13,90.14 733.81,90.14 734.49,90.13 735.17,90.13 735.85,90.13 736.53,90.12 737.22,90.12 737.90,90.12 738.58,90.12 739.26,90.12 739.94,90.11 740.62,90.11 741.31,90.11 741.99,90.11 742.67,90.10 743.35,90.10 744.03,90.10 744.72,90.10 745.40,90.10 746.08,90.09 746.76,90.09 747.44,90.09 748.12,90.09 748.81,90.09 749.49,90.09 750.17,90.08 750.85,90.08 751.53,90.08 752.21,90.08 752.89,90.08 753.58,90.08 754.26,90.07 754.94,90.07 755.62,90.07 756.30,90.07 756.99,90.07 757.67,90.07 758.35,90.07 759.03,90.06 759.71,90.06 760.39,90.06 761.08,90.06 761.76,90.06 762.44,90.06 763.12,90.06 763.80,90.06 764.48,90.05 765.16,90.05 765.85,90.05 766.53,90.05 767.21,90.05 767.89,90.05 768.57,90.05 769.25,90.05 769.94,90.05 770.62,90.05 771.30,90.04 771.98,90.04 772.66,90.04 773.35,90.04 774.03,90.04 774.71,90.04 775.39,90.04 776.07,90.04 776.75,90.04 777.44,90.04 778.12,90.04 778.80,90.04 779.48,90.04 780.16,90.03 780.84,90.03 781.52,90.03 782.21,90.03 782.89,90.03 783.57,90.03 784.25,90.03 784.93,90.03 785.62,90.03 786.30,90.03 786.98,90.03 787.66,90.03 788.34,90.03 789.02,90.03 789.71,90.03 790.39,90.03 791.07,90.03 791.75,90.02 792.43,90.02 793.11,90.02 793.79,90.02 794.48,90.02 795.16,90.02 795.84,90.02 796.52,90.02 797.20,90.02 797.88,90.02 798.57,90.02 799.25,90.02 799.93,90.02 800.61,90.02 801.29,90.02 801.98,90.02 802.66,90.02 803.34,90.02 804.02,90.02 804.70,90.02 805.38,90.02 806.07,90.02 806.75,90.02 807.43,90.02 808.11,90.02 808.79,90.01 809.47,90.01 810.15,90.01 810.84,90.01 811.52,90.01 812.20,90.01 812.88,90.01 813.56,90.01 814.25,90.01 814.93,90.01 815.61,90.01 816.29,90.01 816.97,90.01 817.65,90.01 818.34,90.01 819.02,90.01 819.70,90.01 820.38,90.01 821.06,90.01 821.74,90.01 822.43,90.01 823.11,90.01 823.79,90.01 824.47,90.01 825.15,90.01 825.83,90.01 826.51,90.01 827.20,90.01 827.88,90.01 828.56,90.01 829.24,90.01 829.92,90.01 830.61,90.01 831.29,90.01 831.97,90.01 832.65,90.01 833.33,90.01 834.01,90.01 834.70,90.01 835.38,90.01 836.06,90.01 836.74,90.01 837.42,90.01 838.10,90.01 838.78,90.01 839.47,90.01 840.15,90.01 840.83,90.01 841.51,90.01 842.19,90.01 842.88,90.01 843.56,90.01 844.24,90.01 844.92,90.01 845.60,90.01 846.28,90.00 846.97,90.00 847.65,90.00 848.33,90.00 849.01,90.00 849.69,90.00 850.37,90.00 851.06,90.00 851.74,90.00 852.42,90.00 853.10,90.00 853.78,90.00 854.46,90.00 855.14,90.00 855.83,90.00 856.51,90.00 857.19,90.00 857.87,90.00 858.55,90.00 859.24,90.00 859.92,90.00 860.60,90.00 861.28,90.00 861.96,90.00 862.64,90.00 863.33,90.00 864.01,90.00 864.69,90.00 865.37,90.00 866.05,90.00 866.73,90.00 867.41,90.00 868.10,90.00 868.78,90.00 869.46,90.00 870.14,90.00 870.82,90.00 871.50,90.00 872.19,90.00 872.87,90.00 873.55,90.00 874.23,90.00 874.91,90.00 875.60,90.00 876.28,90.00 876.96,90.00 877.64,90.00 878.32,90.00 879.00,90.00 879.69,90.00 880.37,90.00 881.05,90.00 881.73,90.00 882.41,90.00 883.09,90.00 883.77,90.00 884.46,90.00 885.14,90.00 885.82,90.00 886.50,90.00 887.18,90.00 887.87,90.00 888.55,90.00 889.23,90.00 889.91,90.00 890.59,90.00 891.27,90.00 891.96,90.00 892.64,90.00 893.32,90.00 894.00,90.00" fill="none" stroke="#1D9E75" stroke-width="2.4" stroke-linejoin="round" stroke-linecap="round"/>
<rect x="712" y="58" width="164" height="36" fill="white" opacity="0.86" stroke="#D1D5DB"/>
<line x1="724" y1="74" x2="752" y2="74" stroke="#1D9E75" stroke-width="3"/>
<text x="760" y="78" font-family="Arial" font-size="13" fill="#111827">R(lambda)</text>
<text x="485.0" y="540" text-anchor="middle" font-family="Arial" font-size="15">lambda = log SNR</text>
<text x="20" y="274.0" text-anchor="middle" font-family="Arial" font-size="15" transform="rotate(-90 20 274.0)">R(lambda)</text>
</svg>