<svg xmlns="http://www.w3.org/2000/svg" width="920" height="560" viewBox="0 0 920 560">
<rect width="100%" height="100%" fill="white"/>
<text x="460.0" y="30" text-anchor="middle" font-family="Arial" font-size="20" font-weight="600">Induced p(lambda): where uniform timestep sampling spends probability</text>
<line x1="76.00" y1="58" x2="76.00" y2="490" stroke="#E5E7EB" stroke-width="1"/>
<text x="76.00" y="514" text-anchor="middle" font-family="Arial" font-size="12" fill="#374151">-12</text>
<line x1="239.60" y1="58" x2="239.60" y2="490" stroke="#E5E7EB" stroke-width="1"/>
<text x="239.60" y="514" text-anchor="middle" font-family="Arial" font-size="12" fill="#374151">-7.2</text>
<line x1="403.20" y1="58" x2="403.20" y2="490" stroke="#E5E7EB" stroke-width="1"/>
<text x="403.20" y="514" text-anchor="middle" font-family="Arial" font-size="12" fill="#374151">-2.4</text>
<line x1="566.80" y1="58" x2="566.80" y2="490" stroke="#E5E7EB" stroke-width="1"/>
<text x="566.80" y="514" text-anchor="middle" font-family="Arial" font-size="12" fill="#374151">2.4</text>
<line x1="730.40" y1="58" x2="730.40" y2="490" stroke="#E5E7EB" stroke-width="1"/>
<text x="730.40" y="514" text-anchor="middle" font-family="Arial" font-size="12" fill="#374151">7.2</text>
<line x1="894.00" y1="58" x2="894.00" y2="490" stroke="#E5E7EB" stroke-width="1"/>
<text x="894.00" y="514" text-anchor="middle" font-family="Arial" font-size="12" fill="#374151">12</text>
<line x1="76" y1="490.00" x2="894" y2="490.00" stroke="#E5E7EB" stroke-width="1"/>
<text x="66" y="494.00" text-anchor="end" font-family="Arial" font-size="12" fill="#374151">0</text>
<line x1="76" y1="403.60" x2="894" y2="403.60" stroke="#E5E7EB" stroke-width="1"/>
<text x="66" y="407.60" text-anchor="end" font-family="Arial" font-size="12" fill="#374151">0.27</text>
<line x1="76" y1="317.20" x2="894" y2="317.20" stroke="#E5E7EB" stroke-width="1"/>
<text x="66" y="321.20" text-anchor="end" font-family="Arial" font-size="12" fill="#374151">0.54</text>
<line x1="76" y1="230.80" x2="894" y2="230.80" stroke="#E5E7EB" stroke-width="1"/>
<text x="66" y="234.80" text-anchor="end" font-family="Arial" font-size="12" fill="#374151">0.81</text>
<line x1="76" y1="144.40" x2="894" y2="144.40" stroke="#E5E7EB" stroke-width="1"/>
<text x="66" y="148.40" text-anchor="end" font-family="Arial" font-size="12" fill="#374151">1.1</text>
<line x1="76" y1="58.00" x2="894" y2="58.00" stroke="#E5E7EB" stroke-width="1"/>
<text x="66" y="62.00" text-anchor="end" font-family="Arial" font-size="12" fill="#374151">1.4</text>
<rect x="392.78" y="58" width="100.65" height="432" fill="#F97316" opacity="0.10"/>
<line x1="485.00" y1="58" x2="485.00" y2="490" stroke="#D85A30" stroke-width="1.7" stroke-dasharray="6 5"/>
<text x="491.00" y="76" font-family="Arial" font-size="12" fill="#D85A30">lambda=0</text>
<line x1="76" y1="490" x2="894" y2="490" stroke="#111827" stroke-width="1.2"/>
<line x1="76" y1="58" x2="76" y2="490" stroke="#111827" stroke-width="1.2"/>
<polyline points="79.41,490.00 86.23,489.20 93.04,490.00 99.86,489.20 106.68,490.00 113.49,489.20 120.31,490.00 127.12,489.20 133.94,489.20 140.76,489.20 147.57,490.00 154.39,489.20 161.21,488.40 168.02,489.20 174.84,489.20 181.66,488.40 188.48,489.20 195.29,488.40 202.11,488.40 208.93,488.40 215.74,487.59 222.56,488.40 229.38,487.59 236.19,486.79 243.01,487.59 249.83,486.79 256.64,485.99 263.46,485.99 270.27,485.99 277.09,485.19 283.91,484.38 290.73,484.38 297.54,483.58 304.36,482.78 311.18,481.98 317.99,481.17 324.81,480.37 331.62,478.77 338.44,478.77 345.26,477.16 352.07,475.56 358.89,473.95 365.71,473.15 372.53,470.74 379.34,469.14 386.16,467.53 392.98,465.13 399.79,463.52 406.61,460.31 413.43,457.90 420.24,455.50 427.06,453.09 433.88,450.68 440.69,448.27 447.51,445.87 454.33,443.46 461.14,441.86 467.96,440.25 474.78,440.25 481.59,438.65 488.41,438.65 495.23,440.25 502.04,440.25 508.86,441.86 515.67,443.46 522.49,445.87 529.31,448.27 536.12,450.68 542.94,453.09 549.76,455.50 556.58,457.90 563.39,460.31 570.21,463.52 577.03,465.13 583.84,467.53 590.66,469.14 597.48,470.74 604.29,473.15 611.11,473.95 617.92,475.56 624.74,477.16 631.56,478.77 638.38,478.77 645.19,480.37 652.01,481.17 658.83,481.98 665.64,482.78 672.46,483.58 679.27,484.38 686.09,484.38 692.91,485.19 699.73,485.99 706.54,485.99 713.36,485.99 720.18,486.79 726.99,487.59 733.81,486.79 740.62,487.59 747.44,488.40 754.26,487.59 761.08,488.40 767.89,488.40 774.71,488.40 781.53,489.20 788.34,488.40 795.16,489.20 801.98,489.20 808.79,488.40 815.61,489.20 822.43,490.00 829.24,489.20 836.06,489.20 842.88,489.20 849.69,490.00 856.51,489.20 863.33,490.00 870.14,489.20 876.96,490.00 883.78,489.20 890.59,490.00" fill="none" stroke="#D85A30" stroke-width="2.4" stroke-linejoin="round" stroke-linecap="round"/>
<polyline points="79.41,490.00 86.23,490.00 93.04,490.00 99.86,490.00 106.68,490.00 113.49,490.00 120.31,490.00 127.12,490.00 133.94,490.00 140.76,480.40 147.57,474.00 154.39,474.00 161.21,474.00 168.02,473.20 174.84,473.20 181.66,473.20 188.48,473.20 195.29,472.40 202.11,472.40 208.93,472.40 215.74,471.60 222.56,472.40 229.38,471.60 236.19,470.80 243.01,471.60 249.83,470.80 256.64,470.00 263.46,470.80 270.27,470.00 277.09,469.20 283.91,469.20 290.73,469.20 297.54,468.40 304.36,468.40 311.18,467.60 317.99,467.60 324.81,466.80 331.62,466.80 338.44,466.00 345.26,465.20 352.07,465.20 358.89,464.40 365.71,463.60 372.53,463.60 379.34,462.80 386.16,462.00 392.98,461.20 399.79,461.20 406.61,460.40 413.43,459.60 420.24,458.80 427.06,458.80 433.88,458.00 440.69,458.00 447.51,458.00 454.33,458.00 461.14,457.20 467.96,458.80 474.78,458.00 481.59,459.60 488.41,459.60 495.23,461.20 502.04,462.00 508.86,463.60 515.67,465.20 522.49,466.00 529.31,468.40 536.12,469.20 542.94,470.80 549.76,472.40 556.58,474.00 563.39,474.80 570.21,476.40 577.03,477.20 583.84,478.80 590.66,479.60 597.48,480.40 604.29,481.20 611.11,482.80 617.92,482.80 624.74,483.60 631.56,484.40 638.38,484.40 645.19,485.20 652.01,486.00 658.83,486.00 665.64,486.00 672.46,487.60 679.27,486.80 686.09,487.60 692.91,487.60 699.73,487.60 706.54,488.40 713.36,488.40 720.18,488.40 726.99,489.20 733.81,488.40 740.62,489.20 747.44,489.20 754.26,489.20 761.08,489.20 767.89,489.20 774.71,490.00 781.53,489.20 788.34,490.00 795.16,489.20 801.98,490.00 808.79,490.00 815.61,490.00 822.43,490.00 829.24,490.00 836.06,490.00 842.88,490.00 849.69,490.00 856.51,490.00 863.33,490.00 870.14,490.00 876.96,490.00 883.78,490.00 890.59,490.00" fill="none" stroke="#378ADD" stroke-width="2.4" stroke-linejoin="round" stroke-linecap="round"/>
<polyline points="79.41,490.00 86.23,490.00 93.04,490.00 99.86,490.00 106.68,490.00 113.49,490.00 120.31,490.00 127.12,490.00 133.94,490.00 140.76,490.00 147.57,490.00 154.39,490.00 161.21,490.00 168.02,490.00 174.84,490.00 181.66,490.00 188.48,490.00 195.29,490.00 202.11,490.00 208.93,490.00 215.74,490.00 222.56,490.00 229.38,490.00 236.19,490.00 243.01,490.00 249.83,490.00 256.64,490.00 263.46,490.00 270.27,490.00 277.09,490.00 283.91,490.00 290.73,490.00 297.54,490.00 304.36,490.00 311.18,490.00 317.99,490.00 324.81,490.00 331.62,490.00 338.44,490.00 345.26,490.00 352.07,489.20 358.89,490.00 365.71,490.00 372.53,489.20 379.34,490.00 386.16,488.40 392.98,488.40 399.79,488.40 406.61,486.80 413.43,485.20 420.24,482.80 427.06,478.80 433.88,474.00 440.69,466.00 447.51,454.80 454.33,436.40 461.14,410.80 467.96,371.60 474.78,313.20 481.59,226.00 488.41,226.00 495.23,313.20 502.04,371.60 508.86,410.80 515.67,436.40 522.49,454.80 529.31,466.00 536.12,474.00 542.94,478.80 549.76,482.80 556.58,485.20 563.39,486.80 570.21,488.40 577.03,488.40 583.84,488.40 590.66,490.00 597.48,489.20 604.29,490.00 611.11,490.00 617.92,489.20 624.74,490.00 631.56,490.00 638.38,490.00 645.19,490.00 652.01,490.00 658.83,490.00 665.64,490.00 672.46,490.00 679.27,490.00 686.09,490.00 692.91,490.00 699.73,490.00 706.54,490.00 713.36,490.00 720.18,490.00 726.99,490.00 733.81,490.00 740.62,490.00 747.44,490.00 754.26,490.00 761.08,490.00 767.89,490.00 774.71,490.00 781.53,490.00 788.34,490.00 795.16,490.00 801.98,490.00 808.79,490.00 815.61,490.00 822.43,490.00 829.24,490.00 836.06,490.00 842.88,490.00 849.69,490.00 856.51,490.00 863.33,490.00 870.14,490.00 876.96,490.00 883.78,490.00 890.59,490.00" fill="none" stroke="#534AB7" stroke-width="2.4" stroke-linejoin="round" stroke-linecap="round"/>
<rect x="712" y="58" width="164" height="84" fill="white" opacity="0.86" stroke="#D1D5DB"/>
<line x1="724" y1="74" x2="752" y2="74" stroke="#D85A30" stroke-width="3"/>
<text x="760" y="78" font-family="Arial" font-size="13" fill="#111827">cosine</text>
<line x1="724" y1="98" x2="752" y2="98" stroke="#378ADD" stroke-width="3"/>
<text x="760" y="102" font-family="Arial" font-size="13" fill="#111827">linear_ddpm</text>
<line x1="724" y1="122" x2="752" y2="122" stroke="#534AB7" stroke-width="3"/>
<text x="760" y="126" font-family="Arial" font-size="13" fill="#111827">laplace_centered</text>
<text x="485.0" y="540" text-anchor="middle" font-family="Arial" font-size="15">lambda = log SNR</text>
<text x="20" y="274.0" text-anchor="middle" font-family="Arial" font-size="15" transform="rotate(-90 20 274.0)">p(lambda)</text>
</svg>