<svg xmlns="http://www.w3.org/2000/svg" width="920" height="560" viewBox="0 0 920 560">
<rect width="100%" height="100%" fill="white"/>
<text x="460.0" y="30" text-anchor="middle" font-family="Arial" font-size="20" font-weight="600">Schedule-dependent collapse speed: R(t) = R(lambda(t))</text>
<line x1="76.00" y1="58" x2="76.00" y2="490" stroke="#E5E7EB" stroke-width="1"/>
<text x="76.00" y="514" text-anchor="middle" font-family="Arial" font-size="12" fill="#374151">0</text>
<line x1="239.60" y1="58" x2="239.60" y2="490" stroke="#E5E7EB" stroke-width="1"/>
<text x="239.60" y="514" text-anchor="middle" font-family="Arial" font-size="12" fill="#374151">0.2</text>
<line x1="403.20" y1="58" x2="403.20" y2="490" stroke="#E5E7EB" stroke-width="1"/>
<text x="403.20" y="514" text-anchor="middle" font-family="Arial" font-size="12" fill="#374151">0.4</text>
<line x1="566.80" y1="58" x2="566.80" y2="490" stroke="#E5E7EB" stroke-width="1"/>
<text x="566.80" y="514" text-anchor="middle" font-family="Arial" font-size="12" fill="#374151">0.6</text>
<line x1="730.40" y1="58" x2="730.40" y2="490" stroke="#E5E7EB" stroke-width="1"/>
<text x="730.40" y="514" text-anchor="middle" font-family="Arial" font-size="12" fill="#374151">0.8</text>
<line x1="894.00" y1="58" x2="894.00" y2="490" stroke="#E5E7EB" stroke-width="1"/>
<text x="894.00" y="514" text-anchor="middle" font-family="Arial" font-size="12" fill="#374151">1</text>
<line x1="76" y1="490.00" x2="894" y2="490.00" stroke="#E5E7EB" stroke-width="1"/>
<text x="66" y="494.00" text-anchor="end" font-family="Arial" font-size="12" fill="#374151">0</text>
<line x1="76" y1="403.60" x2="894" y2="403.60" stroke="#E5E7EB" stroke-width="1"/>
<text x="66" y="407.60" text-anchor="end" font-family="Arial" font-size="12" fill="#374151">1.3</text>
<line x1="76" y1="317.20" x2="894" y2="317.20" stroke="#E5E7EB" stroke-width="1"/>
<text x="66" y="321.20" text-anchor="end" font-family="Arial" font-size="12" fill="#374151">2.6</text>
<line x1="76" y1="230.80" x2="894" y2="230.80" stroke="#E5E7EB" stroke-width="1"/>
<text x="66" y="234.80" text-anchor="end" font-family="Arial" font-size="12" fill="#374151">3.9</text>
<line x1="76" y1="144.40" x2="894" y2="144.40" stroke="#E5E7EB" stroke-width="1"/>
<text x="66" y="148.40" text-anchor="end" font-family="Arial" font-size="12" fill="#374151">5.2</text>
<line x1="76" y1="58.00" x2="894" y2="58.00" stroke="#E5E7EB" stroke-width="1"/>
<text x="66" y="62.00" text-anchor="end" font-family="Arial" font-size="12" fill="#374151">6.5</text>
<line x1="76" y1="390.00" x2="894" y2="390.00" stroke="#6B7280" stroke-width="1.5" stroke-dasharray="5 5"/>
<text x="84" y="384.00" font-family="Arial" font-size="12" fill="#6B7280">ambiguous low</text>
<line x1="76" y1="190.00" x2="894" y2="190.00" stroke="#6B7280" stroke-width="1.5" stroke-dasharray="5 5"/>
<text x="84" y="184.00" font-family="Arial" font-size="12" fill="#6B7280">ambiguous high</text>
<line x1="76" y1="490" x2="894" y2="490" stroke="#111827" stroke-width="1.2"/>
<line x1="76" y1="58" x2="76" y2="490" stroke="#111827" stroke-width="1.2"/>
<polyline points="76.20,90.00 76.61,90.00 77.02,90.00 77.43,90.00 77.84,90.00 78.25,90.00 78.66,90.01 79.07,90.01 79.48,90.01 79.89,90.01 80.29,90.01 80.70,90.02 81.11,90.02 81.52,90.02 81.93,90.03 82.34,90.03 82.75,90.03 83.16,90.04 83.57,90.04 83.98,90.05 84.38,90.05 84.79,90.06 85.20,90.06 85.61,90.07 86.02,90.07 86.43,90.08 86.84,90.09 87.25,90.09 87.66,90.10 88.07,90.11 88.47,90.11 88.88,90.12 89.29,90.13 89.70,90.14 90.11,90.15 90.52,90.16 90.93,90.16 91.34,90.17 91.75,90.18 92.16,90.19 92.56,90.20 92.97,90.21 93.38,90.22 93.79,90.23 94.20,90.24 94.61,90.26 95.02,90.27 95.43,90.28 95.84,90.29 96.25,90.30 96.65,90.31 97.06,90.33 97.47,90.34 97.88,90.35 98.29,90.37 98.70,90.38 99.11,90.39 99.52,90.41 99.93,90.42 100.34,90.44 100.74,90.45 101.15,90.47 101.56,90.48 101.97,90.50 102.38,90.51 102.79,90.53 103.20,90.55 103.61,90.56 104.02,90.58 104.43,90.60 104.83,90.61 105.24,90.63 105.65,90.65 106.06,90.67 106.47,90.68 106.88,90.70 107.29,90.72 107.70,90.74 108.11,90.76 108.52,90.78 108.92,90.80 109.33,90.82 109.74,90.84 110.15,90.86 110.56,90.88 110.97,90.90 111.38,90.92 111.79,90.94 112.20,90.97 112.61,90.99 113.01,91.01 113.42,91.03 113.83,91.06 114.24,91.08 114.65,91.10 115.06,91.12 115.47,91.15 115.88,91.17 116.29,91.20 116.70,91.22 117.10,91.25 117.51,91.27 117.92,91.30 118.33,91.32 118.74,91.35 119.15,91.37 119.56,91.40 119.97,91.42 120.38,91.45 120.79,91.48 121.19,91.51 121.60,91.53 122.01,91.56 122.42,91.59 122.83,91.62 123.24,91.64 123.65,91.67 124.06,91.70 124.47,91.73 124.88,91.76 125.28,91.79 125.69,91.82 126.10,91.85 126.51,91.88 126.92,91.91 127.33,91.94 127.74,91.97 128.15,92.00 128.56,92.04 128.97,92.07 129.37,92.10 129.78,92.13 130.19,92.16 130.60,92.20 131.01,92.23 131.42,92.26 131.83,92.30 132.24,92.33 132.65,92.36 133.06,92.40 133.46,92.43 133.87,92.47 134.28,92.50 134.69,92.54 135.10,92.57 135.51,92.61 135.92,92.64 136.33,92.68 136.74,92.72 137.15,92.75 137.55,92.79 137.96,92.83 138.37,92.87 138.78,92.90 139.19,92.94 139.60,92.98 140.01,93.02 140.42,93.06 140.83,93.10 141.24,93.13 141.64,93.17 142.05,93.21 142.46,93.25 142.87,93.29 143.28,93.33 143.69,93.37 144.10,93.42 144.51,93.46 144.92,93.50 145.33,93.54 145.73,93.58 146.14,93.62 146.55,93.67 146.96,93.71 147.37,93.75 147.78,93.79 148.19,93.84 148.60,93.88 149.01,93.92 149.42,93.97 149.82,94.01 150.23,94.06 150.64,94.10 151.05,94.15 151.46,94.19 151.87,94.24 152.28,94.28 152.69,94.33 153.10,94.38 153.51,94.42 153.91,94.47 154.32,94.52 154.73,94.56 155.14,94.61 155.55,94.66 155.96,94.71 156.37,94.75 156.78,94.80 157.19,94.85 157.60,94.90 158.00,94.95 158.41,95.00 158.82,95.05 159.23,95.10 159.64,95.15 160.05,95.20 160.46,95.25 160.87,95.30 161.28,95.35 161.69,95.40 162.09,95.45 162.50,95.51 162.91,95.56 163.32,95.61 163.73,95.66 164.14,95.72 164.55,95.77 164.96,95.82 165.37,95.88 165.78,95.93 166.18,95.98 166.59,96.04 167.00,96.09 167.41,96.15 167.82,96.20 168.23,96.26 168.64,96.31 169.05,96.37 169.46,96.42 169.87,96.48 170.27,96.54 170.68,96.59 171.09,96.65 171.50,96.71 171.91,96.76 172.32,96.82 172.73,96.88 173.14,96.94 173.55,97.00 173.96,97.06 174.36,97.11 174.77,97.17 175.18,97.23 175.59,97.29 176.00,97.35 176.41,97.41 176.82,97.47 177.23,97.53 177.64,97.59 178.05,97.66 178.45,97.72 178.86,97.78 179.27,97.84 179.68,97.90 180.09,97.96 180.50,98.03 180.91,98.09 181.32,98.15 181.73,98.22 182.14,98.28 182.54,98.34 182.95,98.41 183.36,98.47 183.77,98.54 184.18,98.60 184.59,98.66 185.00,98.73 185.41,98.80 185.82,98.86 186.23,98.93 186.63,98.99 187.04,99.06 187.45,99.13 187.86,99.19 188.27,99.26 188.68,99.33 189.09,99.39 189.50,99.46 189.91,99.53 190.32,99.60 190.72,99.67 191.13,99.74 191.54,99.81 191.95,99.87 192.36,99.94 192.77,100.01 193.18,100.08 193.59,100.15 194.00,100.22 194.41,100.30 194.81,100.37 195.22,100.44 195.63,100.51 196.04,100.58 196.45,100.65 196.86,100.72 197.27,100.80 197.68,100.87 198.09,100.94 198.50,101.02 198.90,101.09 199.31,101.16 199.72,101.24 200.13,101.31 200.54,101.38 200.95,101.46 201.36,101.53 201.77,101.61 202.18,101.68 202.59,101.76 202.99,101.84 203.40,101.91 203.81,101.99 204.22,102.06 204.63,102.14 205.04,102.22 205.45,102.29 205.86,102.37 206.27,102.45 206.68,102.53 207.08,102.61 207.49,102.68 207.90,102.76 208.31,102.84 208.72,102.92 209.13,103.00 209.54,103.08 209.95,103.16 210.36,103.24 210.77,103.32 211.17,103.40 211.58,103.48 211.99,103.56 212.40,103.64 212.81,103.72 213.22,103.81 213.63,103.89 214.04,103.97 214.45,104.05 214.86,104.14 215.26,104.22 215.67,104.30 216.08,104.39 216.49,104.47 216.90,104.55 217.31,104.64 217.72,104.72 218.13,104.81 218.54,104.89 218.95,104.98 219.35,105.06 219.76,105.15 220.17,105.23 220.58,105.32 220.99,105.40 221.40,105.49 221.81,105.58 222.22,105.66 222.63,105.75 223.04,105.84 223.44,105.93 223.85,106.01 224.26,106.10 224.67,106.19 225.08,106.28 225.49,106.37 225.90,106.46 226.31,106.55 226.72,106.64 227.13,106.73 227.53,106.82 227.94,106.91 228.35,107.00 228.76,107.09 229.17,107.18 229.58,107.27 229.99,107.36 230.40,107.45 230.81,107.54 231.22,107.64 231.62,107.73 232.03,107.82 232.44,107.91 232.85,108.01 233.26,108.10 233.67,108.19 234.08,108.29 234.49,108.38 234.90,108.48 235.31,108.57 235.71,108.67 236.12,108.76 236.53,108.86 236.94,108.95 237.35,109.05 237.76,109.14 238.17,109.24 238.58,109.34 238.99,109.43 239.40,109.53 239.80,109.63 240.21,109.72 240.62,109.82 241.03,109.92 241.44,110.02 241.85,110.11 242.26,110.21 242.67,110.31 243.08,110.41 243.49,110.51 243.89,110.61 244.30,110.71 244.71,110.81 245.12,110.91 245.53,111.01 245.94,111.11 246.35,111.21 246.76,111.31 247.17,111.41 247.58,111.52 247.98,111.62 248.39,111.72 248.80,111.82 249.21,111.92 249.62,112.03 250.03,112.13 250.44,112.23 250.85,112.34 251.26,112.44 251.67,112.54 252.07,112.65 252.48,112.75 252.89,112.86 253.30,112.96 253.71,113.07 254.12,113.17 254.53,113.28 254.94,113.38 255.35,113.49 255.76,113.59 256.16,113.70 256.57,113.81 256.98,113.91 257.39,114.02 257.80,114.13 258.21,114.24 258.62,114.34 259.03,114.45 259.44,114.56 259.85,114.67 260.25,114.78 260.66,114.89 261.07,115.00 261.48,115.11 261.89,115.22 262.30,115.33 262.71,115.44 263.12,115.55 263.53,115.66 263.94,115.77 264.34,115.88 264.75,115.99 265.16,116.10 265.57,116.21 265.98,116.32 266.39,116.44 266.80,116.55 267.21,116.66 267.62,116.77 268.03,116.89 268.43,117.00 268.84,117.11 269.25,117.23 269.66,117.34 270.07,117.46 270.48,117.57 270.89,117.69 271.30,117.80 271.71,117.92 272.12,118.03 272.52,118.15 272.93,118.26 273.34,118.38 273.75,118.50 274.16,118.61 274.57,118.73 274.98,118.85 275.39,118.96 275.80,119.08 276.21,119.20 276.61,119.32 277.02,119.43 277.43,119.55 277.84,119.67 278.25,119.79 278.66,119.91 279.07,120.03 279.48,120.15 279.89,120.27 280.30,120.39 280.70,120.51 281.11,120.63 281.52,120.75 281.93,120.87 282.34,120.99 282.75,121.11 283.16,121.23 283.57,121.36 283.98,121.48 284.39,121.60 284.79,121.72 285.20,121.85 285.61,121.97 286.02,122.09 286.43,122.22 286.84,122.34 287.25,122.46 287.66,122.59 288.07,122.71 288.48,122.84 288.88,122.96 289.29,123.09 289.70,123.21 290.11,123.34 290.52,123.46 290.93,123.59 291.34,123.71 291.75,123.84 292.16,123.97 292.57,124.09 292.97,124.22 293.38,124.35 293.79,124.48 294.20,124.60 294.61,124.73 295.02,124.86 295.43,124.99 295.84,125.12 296.25,125.25 296.66,125.37 297.06,125.50 297.47,125.63 297.88,125.76 298.29,125.89 298.70,126.02 299.11,126.15 299.52,126.28 299.93,126.41 300.34,126.55 300.75,126.68 301.15,126.81 301.56,126.94 301.97,127.07 302.38,127.20 302.79,127.34 303.20,127.47 303.61,127.60 304.02,127.74 304.43,127.87 304.84,128.00 305.24,128.14 305.65,128.27 306.06,128.40 306.47,128.54 306.88,128.67 307.29,128.81 307.70,128.94 308.11,129.08 308.52,129.21 308.93,129.35 309.33,129.49 309.74,129.62 310.15,129.76 310.56,129.90 310.97,130.03 311.38,130.17 311.79,130.31 312.20,130.44 312.61,130.58 313.02,130.72 313.42,130.86 313.83,131.00 314.24,131.14 314.65,131.27 315.06,131.41 315.47,131.55 315.88,131.69 316.29,131.83 316.70,131.97 317.11,132.11 317.51,132.25 317.92,132.39 318.33,132.53 318.74,132.67 319.15,132.82 319.56,132.96 319.97,133.10 320.38,133.24 320.79,133.38 321.20,133.53 321.60,133.67 322.01,133.81 322.42,133.95 322.83,134.10 323.24,134.24 323.65,134.39 324.06,134.53 324.47,134.67 324.88,134.82 325.29,134.96 325.69,135.11 326.10,135.25 326.51,135.40 326.92,135.54 327.33,135.69 327.74,135.83 328.15,135.98 328.56,136.13 328.97,136.27 329.38,136.42 329.78,136.57 330.19,136.71 330.60,136.86 331.01,137.01 331.42,137.16 331.83,137.31 332.24,137.45 332.65,137.60 333.06,137.75 333.47,137.90 333.87,138.05 334.28,138.20 334.69,138.35 335.10,138.50 335.51,138.65 335.92,138.80 336.33,138.95 336.74,139.10 337.15,139.25 337.56,139.40 337.96,139.55 338.37,139.70 338.78,139.86 339.19,140.01 339.60,140.16 340.01,140.31 340.42,140.47 340.83,140.62 341.24,140.77 341.65,140.92 342.05,141.08 342.46,141.23 342.87,141.39 343.28,141.54 343.69,141.69 344.10,141.85 344.51,142.00 344.92,142.16 345.33,142.31 345.74,142.47 346.14,142.63 346.55,142.78 346.96,142.94 347.37,143.09 347.78,143.25 348.19,143.41 348.60,143.56 349.01,143.72 349.42,143.88 349.83,144.04 350.23,144.19 350.64,144.35 351.05,144.51 351.46,144.67 351.87,144.83 352.28,144.99 352.69,145.14 353.10,145.30 353.51,145.46 353.92,145.62 354.32,145.78 354.73,145.94 355.14,146.10 355.55,146.26 355.96,146.42 356.37,146.59 356.78,146.75 357.19,146.91 357.60,147.07 358.01,147.23 358.41,147.39 358.82,147.56 359.23,147.72 359.64,147.88 360.05,148.04 360.46,148.21 360.87,148.37 361.28,148.53 361.69,148.70 362.10,148.86 362.50,149.03 362.91,149.19 363.32,149.35 363.73,149.52 364.14,149.68 364.55,149.85 364.96,150.02 365.37,150.18 365.78,150.35 366.19,150.51 366.59,150.68 367.00,150.85 367.41,151.01 367.82,151.18 368.23,151.35 368.64,151.51 369.05,151.68 369.46,151.85 369.87,152.02 370.28,152.18 370.68,152.35 371.09,152.52 371.50,152.69 371.91,152.86 372.32,153.03 372.73,153.20 373.14,153.37 373.55,153.54 373.96,153.71 374.37,153.88 374.77,154.05 375.18,154.22 375.59,154.39 376.00,154.56 376.41,154.73 376.82,154.90 377.23,155.07 377.64,155.25 378.05,155.42 378.46,155.59 378.86,155.76 379.27,155.94 379.68,156.11 380.09,156.28 380.50,156.46 380.91,156.63 381.32,156.80 381.73,156.98 382.14,157.15 382.55,157.32 382.95,157.50 383.36,157.67 383.77,157.85 384.18,158.02 384.59,158.20 385.00,158.38 385.41,158.55 385.82,158.73 386.23,158.90 386.64,159.08 387.04,159.26 387.45,159.43 387.86,159.61 388.27,159.79 388.68,159.96 389.09,160.14 389.50,160.32 389.91,160.50 390.32,160.68 390.73,160.85 391.13,161.03 391.54,161.21 391.95,161.39 392.36,161.57 392.77,161.75 393.18,161.93 393.59,162.11 394.00,162.29 394.41,162.47 394.82,162.65 395.22,162.83 395.63,163.01 396.04,163.19 396.45,163.37 396.86,163.56 397.27,163.74 397.68,163.92 398.09,164.10 398.50,164.28 398.91,164.47 399.31,164.65 399.72,164.83 400.13,165.01 400.54,165.20 400.95,165.38 401.36,165.56 401.77,165.75 402.18,165.93 402.59,166.12 403.00,166.30 403.40,166.49 403.81,166.67 404.22,166.86 404.63,167.04 405.04,167.23 405.45,167.41 405.86,167.60 406.27,167.78 406.68,167.97 407.09,168.16 407.49,168.34 407.90,168.53 408.31,168.72 408.72,168.90 409.13,169.09 409.54,169.28 409.95,169.47 410.36,169.66 410.77,169.84 411.18,170.03 411.58,170.22 411.99,170.41 412.40,170.60 412.81,170.79 413.22,170.98 413.63,171.17 414.04,171.36 414.45,171.55 414.86,171.74 415.27,171.93 415.67,172.12 416.08,172.31 416.49,172.50 416.90,172.69 417.31,172.88 417.72,173.07 418.13,173.27 418.54,173.46 418.95,173.65 419.36,173.84 419.76,174.03 420.17,174.23 420.58,174.42 420.99,174.61 421.40,174.81 421.81,175.00 422.22,175.19 422.63,175.39 423.04,175.58 423.45,175.78 423.85,175.97 424.26,176.17 424.67,176.36 425.08,176.56 425.49,176.75 425.90,176.95 426.31,177.14 426.72,177.34 427.13,177.53 427.54,177.73 427.94,177.93 428.35,178.12 428.76,178.32 429.17,178.52 429.58,178.71 429.99,178.91 430.40,179.11 430.81,179.31 431.22,179.50 431.63,179.70 432.03,179.90 432.44,180.10 432.85,180.30 433.26,180.50 433.67,180.70 434.08,180.90 434.49,181.09 434.90,181.29 435.31,181.49 435.72,181.69 436.12,181.89 436.53,182.10 436.94,182.30 437.35,182.50 437.76,182.70 438.17,182.90 438.58,183.10 438.99,183.30 439.40,183.50 439.81,183.71 440.21,183.91 440.62,184.11 441.03,184.31 441.44,184.52 441.85,184.72 442.26,184.92 442.67,185.12 443.08,185.33 443.49,185.53 443.90,185.74 444.30,185.94 444.71,186.14 445.12,186.35 445.53,186.55 445.94,186.76 446.35,186.96 446.76,187.17 447.17,187.37 447.58,187.58 447.99,187.78 448.39,187.99 448.80,188.20 449.21,188.40 449.62,188.61 450.03,188.82 450.44,189.02 450.85,189.23 451.26,189.44 451.67,189.64 452.08,189.85 452.48,190.06 452.89,190.27 453.30,190.48 453.71,190.68 454.12,190.89 454.53,191.10 454.94,191.31 455.35,191.52 455.76,191.73 456.17,191.94 456.57,192.15 456.98,192.36 457.39,192.57 457.80,192.78 458.21,192.99 458.62,193.20 459.03,193.41 459.44,193.62 459.85,193.83 460.26,194.04 460.66,194.25 461.07,194.46 461.48,194.68 461.89,194.89 462.30,195.10 462.71,195.31 463.12,195.53 463.53,195.74 463.94,195.95 464.35,196.16 464.75,196.38 465.16,196.59 465.57,196.80 465.98,197.02 466.39,197.23 466.80,197.45 467.21,197.66 467.62,197.88 468.03,198.09 468.44,198.31 468.84,198.52 469.25,198.74 469.66,198.95 470.07,199.17 470.48,199.38 470.89,199.60 471.30,199.81 471.71,200.03 472.12,200.25 472.53,200.46 472.93,200.68 473.34,200.90 473.75,201.11 474.16,201.33 474.57,201.55 474.98,201.77 475.39,201.99 475.80,202.20 476.21,202.42 476.62,202.64 477.02,202.86 477.43,203.08 477.84,203.30 478.25,203.52 478.66,203.74 479.07,203.95 479.48,204.17 479.89,204.39 480.30,204.61 480.71,204.83 481.11,205.05 481.52,205.28 481.93,205.50 482.34,205.72 482.75,205.94 483.16,206.16 483.57,206.38 483.98,206.60 484.39,206.82 484.80,207.05 485.20,207.27 485.61,207.49 486.02,207.71 486.43,207.94 486.84,208.16 487.25,208.38 487.66,208.60 488.07,208.83 488.48,209.05 488.89,209.28 489.29,209.50 489.70,209.72 490.11,209.95 490.52,210.17 490.93,210.40 491.34,210.62 491.75,210.85 492.16,211.07 492.57,211.30 492.98,211.52 493.38,211.75 493.79,211.97 494.20,212.20 494.61,212.43 495.02,212.65 495.43,212.88 495.84,213.10 496.25,213.33 496.66,213.56 497.07,213.79 497.47,214.01 497.88,214.24 498.29,214.47 498.70,214.70 499.11,214.92 499.52,215.15 499.93,215.38 500.34,215.61 500.75,215.84 501.16,216.07 501.56,216.30 501.97,216.52 502.38,216.75 502.79,216.98 503.20,217.21 503.61,217.44 504.02,217.67 504.43,217.90 504.84,218.13 505.25,218.36 505.65,218.60 506.06,218.83 506.47,219.06 506.88,219.29 507.29,219.52 507.70,219.75 508.11,219.98 508.52,220.21 508.93,220.45 509.34,220.68 509.74,220.91 510.15,221.14 510.56,221.38 510.97,221.61 511.38,221.84 511.79,222.08 512.20,222.31 512.61,222.54 513.02,222.78 513.43,223.01 513.83,223.24 514.24,223.48 514.65,223.71 515.06,223.95 515.47,224.18 515.88,224.42 516.29,224.65 516.70,224.89 517.11,225.12 517.52,225.36 517.92,225.59 518.33,225.83 518.74,226.06 519.15,226.30 519.56,226.54 519.97,226.77 520.38,227.01 520.79,227.25 521.20,227.48 521.61,227.72 522.01,227.96 522.42,228.20 522.83,228.43 523.24,228.67 523.65,228.91 524.06,229.15 524.47,229.39 524.88,229.62 525.29,229.86 525.70,230.10 526.10,230.34 526.51,230.58 526.92,230.82 527.33,231.06 527.74,231.30 528.15,231.54 528.56,231.78 528.97,232.02 529.38,232.26 529.79,232.50 530.19,232.74 530.60,232.98 531.01,233.22 531.42,233.46 531.83,233.70 532.24,233.94 532.65,234.18 533.06,234.43 533.47,234.67 533.88,234.91 534.28,235.15 534.69,235.39 535.10,235.64 535.51,235.88 535.92,236.12 536.33,236.36 536.74,236.61 537.15,236.85 537.56,237.09 537.97,237.34 538.37,237.58 538.78,237.82 539.19,238.07 539.60,238.31 540.01,238.56 540.42,238.80 540.83,239.05 541.24,239.29 541.65,239.54 542.06,239.78 542.46,240.03 542.87,240.27 543.28,240.52 543.69,240.76 544.10,241.01 544.51,241.25 544.92,241.50 545.33,241.75 545.74,241.99 546.15,242.24 546.55,242.49 546.96,242.73 547.37,242.98 547.78,243.23 548.19,243.47 548.60,243.72 549.01,243.97 549.42,244.22 549.83,244.46 550.24,244.71 550.64,244.96 551.05,245.21 551.46,245.46 551.87,245.71 552.28,245.96 552.69,246.20 553.10,246.45 553.51,246.70 553.92,246.95 554.33,247.20 554.73,247.45 555.14,247.70 555.55,247.95 555.96,248.20 556.37,248.45 556.78,248.70 557.19,248.95 557.60,249.20 558.01,249.46 558.42,249.71 558.82,249.96 559.23,250.21 559.64,250.46 560.05,250.71 560.46,250.96 560.87,251.22 561.28,251.47 561.69,251.72 562.10,251.97 562.51,252.23 562.91,252.48 563.32,252.73 563.73,252.98 564.14,253.24 564.55,253.49 564.96,253.74 565.37,254.00 565.78,254.25 566.19,254.50 566.60,254.76 567.00,255.01 567.41,255.27 567.82,255.52 568.23,255.78 568.64,256.03 569.05,256.29 569.46,256.54 569.87,256.80 570.28,257.05 570.69,257.31 571.09,257.56 571.50,257.82 571.91,258.07 572.32,258.33 572.73,258.59 573.14,258.84 573.55,259.10 573.96,259.36 574.37,259.61 574.78,259.87 575.18,260.13 575.59,260.38 576.00,260.64 576.41,260.90 576.82,261.16 577.23,261.41 577.64,261.67 578.05,261.93 578.46,262.19 578.87,262.45 579.27,262.70 579.68,262.96 580.09,263.22 580.50,263.48 580.91,263.74 581.32,264.00 581.73,264.26 582.14,264.52 582.55,264.78 582.96,265.04 583.36,265.30 583.77,265.56 584.18,265.82 584.59,266.08 585.00,266.34 585.41,266.60 585.82,266.86 586.23,267.12 586.64,267.38 587.05,267.64 587.45,267.90 587.86,268.16 588.27,268.43 588.68,268.69 589.09,268.95 589.50,269.21 589.91,269.47 590.32,269.73 590.73,270.00 591.14,270.26 591.54,270.52 591.95,270.78 592.36,271.05 592.77,271.31 593.18,271.57 593.59,271.84 594.00,272.10 594.41,272.36 594.82,272.63 595.23,272.89 595.63,273.16 596.04,273.42 596.45,273.68 596.86,273.95 597.27,274.21 597.68,274.48 598.09,274.74 598.50,275.01 598.91,275.27 599.32,275.54 599.72,275.80 600.13,276.07 600.54,276.33 600.95,276.60 601.36,276.86 601.77,277.13 602.18,277.40 602.59,277.66 603.00,277.93 603.41,278.20 603.81,278.46 604.22,278.73 604.63,279.00 605.04,279.26 605.45,279.53 605.86,279.80 606.27,280.06 606.68,280.33 607.09,280.60 607.50,280.87 607.90,281.13 608.31,281.40 608.72,281.67 609.13,281.94 609.54,282.21 609.95,282.48 610.36,282.74 610.77,283.01 611.18,283.28 611.59,283.55 611.99,283.82 612.40,284.09 612.81,284.36 613.22,284.63 613.63,284.90 614.04,285.17 614.45,285.44 614.86,285.71 615.27,285.98 615.68,286.25 616.08,286.52 616.49,286.79 616.90,287.06 617.31,287.33 617.72,287.60 618.13,287.87 618.54,288.14 618.95,288.42 619.36,288.69 619.77,288.96 620.17,289.23 620.58,289.50 620.99,289.77 621.40,290.05 621.81,290.32 622.22,290.59 622.63,290.86 623.04,291.13 623.45,291.41 623.86,291.68 624.26,291.95 624.67,292.23 625.08,292.50 625.49,292.77 625.90,293.05 626.31,293.32 626.72,293.59 627.13,293.87 627.54,294.14 627.95,294.41 628.35,294.69 628.76,294.96 629.17,295.24 629.58,295.51 629.99,295.79 630.40,296.06 630.81,296.34 631.22,296.61 631.63,296.89 632.04,297.16 632.44,297.44 632.85,297.71 633.26,297.99 633.67,298.26 634.08,298.54 634.49,298.81 634.90,299.09 635.31,299.37 635.72,299.64 636.13,299.92 636.53,300.20 636.94,300.47 637.35,300.75 637.76,301.03 638.17,301.30 638.58,301.58 638.99,301.86 639.40,302.13 639.81,302.41 640.22,302.69 640.62,302.97 641.03,303.24 641.44,303.52 641.85,303.80 642.26,304.08 642.67,304.36 643.08,304.64 643.49,304.91 643.90,305.19 644.31,305.47 644.71,305.75 645.12,306.03 645.53,306.31 645.94,306.59 646.35,306.87 646.76,307.15 647.17,307.42 647.58,307.70 647.99,307.98 648.40,308.26 648.80,308.54 649.21,308.82 649.62,309.10 650.03,309.38 650.44,309.66 650.85,309.95 651.26,310.23 651.67,310.51 652.08,310.79 652.49,311.07 652.89,311.35 653.30,311.63 653.71,311.91 654.12,312.19 654.53,312.47 654.94,312.76 655.35,313.04 655.76,313.32 656.17,313.60 656.58,313.88 656.98,314.17 657.39,314.45 657.80,314.73 658.21,315.01 658.62,315.29 659.03,315.58 659.44,315.86 659.85,316.14 660.26,316.43 660.67,316.71 661.07,316.99 661.48,317.28 661.89,317.56 662.30,317.84 662.71,318.13 663.12,318.41 663.53,318.69 663.94,318.98 664.35,319.26 664.76,319.55 665.16,319.83 665.57,320.11 665.98,320.40 666.39,320.68 666.80,320.97 667.21,321.25 667.62,321.54 668.03,321.82 668.44,322.11 668.85,322.39 669.25,322.68 669.66,322.96 670.07,323.25 670.48,323.54 670.89,323.82 671.30,324.11 671.71,324.39 672.12,324.68 672.53,324.96 672.94,325.25 673.34,325.54 673.75,325.82 674.16,326.11 674.57,326.40 674.98,326.68 675.39,326.97 675.80,327.26 676.21,327.54 676.62,327.83 677.03,328.12 677.43,328.41 677.84,328.69 678.25,328.98 678.66,329.27 679.07,329.56 679.48,329.84 679.89,330.13 680.30,330.42 680.71,330.71 681.12,331.00 681.52,331.29 681.93,331.57 682.34,331.86 682.75,332.15 683.16,332.44 683.57,332.73 683.98,333.02 684.39,333.31 684.80,333.60 685.21,333.88 685.61,334.17 686.02,334.46 686.43,334.75 686.84,335.04 687.25,335.33 687.66,335.62 688.07,335.91 688.48,336.20 688.89,336.49 689.30,336.78 689.70,337.07 690.11,337.36 690.52,337.65 690.93,337.94 691.34,338.23 691.75,338.52 692.16,338.82 692.57,339.11 692.98,339.40 693.39,339.69 693.79,339.98 694.20,340.27 694.61,340.56 695.02,340.85 695.43,341.15 695.84,341.44 696.25,341.73 696.66,342.02 697.07,342.31 697.48,342.60 697.88,342.90 698.29,343.19 698.70,343.48 699.11,343.77 699.52,344.07 699.93,344.36 700.34,344.65 700.75,344.94 701.16,345.24 701.57,345.53 701.97,345.82 702.38,346.12 702.79,346.41 703.20,346.70 703.61,347.00 704.02,347.29 704.43,347.58 704.84,347.88 705.25,348.17 705.66,348.46 706.06,348.76 706.47,349.05 706.88,349.35 707.29,349.64 707.70,349.93 708.11,350.23 708.52,350.52 708.93,350.82 709.34,351.11 709.75,351.41 710.15,351.70 710.56,352.00 710.97,352.29 711.38,352.59 711.79,352.88 712.20,353.18 712.61,353.47 713.02,353.77 713.43,354.06 713.84,354.36 714.24,354.65 714.65,354.95 715.06,355.24 715.47,355.54 715.88,355.84 716.29,356.13 716.70,356.43 717.11,356.72 717.52,357.02 717.93,357.32 718.33,357.61 718.74,357.91 719.15,358.21 719.56,358.50 719.97,358.80 720.38,359.10 720.79,359.39 721.20,359.69 721.61,359.99 722.02,360.28 722.42,360.58 722.83,360.88 723.24,361.18 723.65,361.47 724.06,361.77 724.47,362.07 724.88,362.37 725.29,362.66 725.70,362.96 726.11,363.26 726.51,363.56 726.92,363.86 727.33,364.15 727.74,364.45 728.15,364.75 728.56,365.05 728.97,365.35 729.38,365.65 729.79,365.95 730.20,366.24 730.60,366.54 731.01,366.84 731.42,367.14 731.83,367.44 732.24,367.74 732.65,368.04 733.06,368.34 733.47,368.64 733.88,368.94 734.29,369.24 734.69,369.53 735.10,369.83 735.51,370.13 735.92,370.43 736.33,370.73 736.74,371.03 737.15,371.33 737.56,371.63 737.97,371.93 738.38,372.23 738.78,372.53 739.19,372.83 739.60,373.13 740.01,373.44 740.42,373.74 740.83,374.04 741.24,374.34 741.65,374.64 742.06,374.94 742.47,375.24 742.87,375.54 743.28,375.84 743.69,376.14 744.10,376.44 744.51,376.75 744.92,377.05 745.33,377.35 745.74,377.65 746.15,377.95 746.56,378.25 746.96,378.55 747.37,378.86 747.78,379.16 748.19,379.46 748.60,379.76 749.01,380.06 749.42,380.37 749.83,380.67 750.24,380.97 750.65,381.27 751.05,381.58 751.46,381.88 751.87,382.18 752.28,382.48 752.69,382.79 753.10,383.09 753.51,383.39 753.92,383.69 754.33,384.00 754.74,384.30 755.14,384.60 755.55,384.91 755.96,385.21 756.37,385.51 756.78,385.82 757.19,386.12 757.60,386.42 758.01,386.73 758.42,387.03 758.83,387.33 759.23,387.64 759.64,387.94 760.05,388.24 760.46,388.55 760.87,388.85 761.28,389.16 761.69,389.46 762.10,389.76 762.51,390.07 762.92,390.37 763.32,390.68 763.73,390.98 764.14,391.28 764.55,391.59 764.96,391.89 765.37,392.20 765.78,392.50 766.19,392.81 766.60,393.11 767.01,393.42 767.41,393.72 767.82,394.03 768.23,394.33 768.64,394.64 769.05,394.94 769.46,395.25 769.87,395.55 770.28,395.86 770.69,396.16 771.10,396.47 771.50,396.77 771.91,397.08 772.32,397.39 772.73,397.69 773.14,398.00 773.55,398.30 773.96,398.61 774.37,398.91 774.78,399.22 775.19,399.53 775.59,399.83 776.00,400.14 776.41,400.44 776.82,400.75 777.23,401.06 777.64,401.36 778.05,401.67 778.46,401.98 778.87,402.28 779.28,402.59 779.68,402.90 780.09,403.20 780.50,403.51 780.91,403.82 781.32,404.12 781.73,404.43 782.14,404.74 782.55,405.04 782.96,405.35 783.37,405.66 783.77,405.96 784.18,406.27 784.59,406.58 785.00,406.89 785.41,407.19 785.82,407.50 786.23,407.81 786.64,408.12 787.05,408.42 787.46,408.73 787.86,409.04 788.27,409.35 788.68,409.65 789.09,409.96 789.50,410.27 789.91,410.58 790.32,410.89 790.73,411.19 791.14,411.50 791.55,411.81 791.95,412.12 792.36,412.43 792.77,412.73 793.18,413.04 793.59,413.35 794.00,413.66 794.41,413.97 794.82,414.28 795.23,414.58 795.64,414.89 796.04,415.20 796.45,415.51 796.86,415.82 797.27,416.13 797.68,416.44 798.09,416.75 798.50,417.05 798.91,417.36 799.32,417.67 799.73,417.98 800.13,418.29 800.54,418.60 800.95,418.91 801.36,419.22 801.77,419.53 802.18,419.84 802.59,420.15 803.00,420.45 803.41,420.76 803.82,421.07 804.22,421.38 804.63,421.69 805.04,422.00 805.45,422.31 805.86,422.62 806.27,422.93 806.68,423.24 807.09,423.55 807.50,423.86 807.91,424.17 808.31,424.48 808.72,424.79 809.13,425.10 809.54,425.41 809.95,425.72 810.36,426.03 810.77,426.34 811.18,426.65 811.59,426.96 812.00,427.27 812.40,427.58 812.81,427.89 813.22,428.20 813.63,428.51 814.04,428.82 814.45,429.13 814.86,429.44 815.27,429.75 815.68,430.07 816.09,430.38 816.49,430.69 816.90,431.00 817.31,431.31 817.72,431.62 818.13,431.93 818.54,432.24 818.95,432.55 819.36,432.86 819.77,433.17 820.18,433.48 820.58,433.80 820.99,434.11 821.40,434.42 821.81,434.73 822.22,435.04 822.63,435.35 823.04,435.66 823.45,435.97 823.86,436.28 824.27,436.60 824.67,436.91 825.08,437.22 825.49,437.53 825.90,437.84 826.31,438.15 826.72,438.46 827.13,438.78 827.54,439.09 827.95,439.40 828.36,439.71 828.76,440.02 829.17,440.33 829.58,440.65 829.99,440.96 830.40,441.27 830.81,441.58 831.22,441.89 831.63,442.21 832.04,442.52 832.45,442.83 832.85,443.14 833.26,443.45 833.67,443.77 834.08,444.08 834.49,444.39 834.90,444.70 835.31,445.01 835.72,445.33 836.13,445.64 836.54,445.95 836.94,446.26 837.35,446.57 837.76,446.89 838.17,447.20 838.58,447.51 838.99,447.82 839.40,448.14 839.81,448.45 840.22,448.76 840.63,449.07 841.03,449.39 841.44,449.70 841.85,450.01 842.26,450.32 842.67,450.64 843.08,450.95 843.49,451.26 843.90,451.57 844.31,451.89 844.72,452.20 845.12,452.51 845.53,452.83 845.94,453.14 846.35,453.45 846.76,453.76 847.17,454.08 847.58,454.39 847.99,454.70 848.40,455.02 848.81,455.33 849.21,455.64 849.62,455.95 850.03,456.27 850.44,456.58 850.85,456.89 851.26,457.21 851.67,457.52 852.08,457.83 852.49,458.15 852.90,458.46 853.30,458.77 853.71,459.09 854.12,459.40 854.53,459.71 854.94,460.03 855.35,460.34 855.76,460.65 856.17,460.97 856.58,461.28 856.99,461.59 857.39,461.91 857.80,462.22 858.21,462.53 858.62,462.85 859.03,463.16 859.44,463.47 859.85,463.79 860.26,464.10 860.67,464.41 861.08,464.73 861.48,465.04 861.89,465.35 862.30,465.67 862.71,465.98 863.12,466.29 863.53,466.61 863.94,466.92 864.35,467.24 864.76,467.55 865.17,467.86 865.57,468.18 865.98,468.49 866.39,468.80 866.80,469.12 867.21,469.43 867.62,469.75 868.03,470.06 868.44,470.37 868.85,470.69 869.26,471.00 869.66,471.31 870.07,471.63 870.48,471.94 870.89,472.26 871.30,472.57 871.71,472.88 872.12,473.20 872.53,473.51 872.94,473.83 873.35,474.14 873.75,474.45 874.16,474.77 874.57,475.08 874.98,475.39 875.39,475.71 875.80,476.02 876.21,476.34 876.62,476.65 877.03,476.96 877.44,477.28 877.84,477.59 878.25,477.91 878.66,478.22 879.07,478.53 879.48,478.85 879.89,479.16 880.30,479.48 880.71,479.79 881.12,480.10 881.53,480.42 881.93,480.73 882.34,481.05 882.75,481.36 883.16,481.68 883.57,481.99 883.98,482.30 884.39,482.62 884.80,482.93 885.21,483.25 885.62,483.56 886.02,483.87 886.43,484.19 886.84,484.50 887.25,484.82 887.66,485.13 888.07,485.44 888.48,485.76 888.89,486.07 889.30,486.39 889.71,486.70 890.11,487.02 890.52,487.33 890.93,487.64 891.34,487.96 891.75,488.27 892.16,488.59 892.57,488.90 892.98,489.21 893.39,489.53 893.80,489.84" fill="none" stroke="#D85A30" stroke-width="2.4" stroke-linejoin="round" stroke-linecap="round"/>
<polyline points="76.20,90.02 76.61,90.04 77.02,90.05 77.43,90.06 77.84,90.08 78.25,90.09 78.66,90.11 79.07,90.13 79.48,90.15 79.89,90.17 80.29,90.19 80.70,90.21 81.11,90.23 81.52,90.26 81.93,90.28 82.34,90.31 82.75,90.34 83.16,90.36 83.57,90.39 83.98,90.42 84.38,90.45 84.79,90.49 85.20,90.52 85.61,90.55 86.02,90.59 86.43,90.62 86.84,90.66 87.25,90.70 87.66,90.74 88.07,90.78 88.47,90.82 88.88,90.86 89.29,90.90 89.70,90.94 90.11,90.99 90.52,91.03 90.93,91.08 91.34,91.13 91.75,91.18 92.16,91.23 92.56,91.28 92.97,91.33 93.38,91.38 93.79,91.44 94.20,91.49 94.61,91.55 95.02,91.60 95.43,91.66 95.84,91.72 96.25,91.78 96.65,91.84 97.06,91.90 97.47,91.96 97.88,92.03 98.29,92.09 98.70,92.15 99.11,92.22 99.52,92.29 99.93,92.36 100.34,92.43 100.74,92.50 101.15,92.57 101.56,92.64 101.97,92.71 102.38,92.79 102.79,92.86 103.20,92.94 103.61,93.01 104.02,93.09 104.43,93.17 104.83,93.25 105.24,93.33 105.65,93.41 106.06,93.50 106.47,93.58 106.88,93.67 107.29,93.75 107.70,93.84 108.11,93.93 108.52,94.02 108.92,94.10 109.33,94.20 109.74,94.29 110.15,94.38 110.56,94.47 110.97,94.57 111.38,94.66 111.79,94.76 112.20,94.86 112.61,94.95 113.01,95.05 113.42,95.15 113.83,95.26 114.24,95.36 114.65,95.46 115.06,95.56 115.47,95.67 115.88,95.78 116.29,95.88 116.70,95.99 117.10,96.10 117.51,96.21 117.92,96.32 118.33,96.43 118.74,96.54 119.15,96.66 119.56,96.77 119.97,96.89 120.38,97.00 120.79,97.12 121.19,97.24 121.60,97.36 122.01,97.48 122.42,97.60 122.83,97.72 123.24,97.84 123.65,97.97 124.06,98.09 124.47,98.22 124.88,98.35 125.28,98.47 125.69,98.60 126.10,98.73 126.51,98.86 126.92,98.99 127.33,99.12 127.74,99.26 128.15,99.39 128.56,99.53 128.97,99.66 129.37,99.80 129.78,99.94 130.19,100.08 130.60,100.22 131.01,100.36 131.42,100.50 131.83,100.64 132.24,100.78 132.65,100.93 133.06,101.07 133.46,101.22 133.87,101.37 134.28,101.51 134.69,101.66 135.10,101.81 135.51,101.96 135.92,102.12 136.33,102.27 136.74,102.42 137.15,102.57 137.55,102.73 137.96,102.89 138.37,103.04 138.78,103.20 139.19,103.36 139.60,103.52 140.01,103.68 140.42,103.84 140.83,104.00 141.24,104.17 141.64,104.33 142.05,104.50 142.46,104.66 142.87,104.83 143.28,105.00 143.69,105.16 144.10,105.33 144.51,105.50 144.92,105.68 145.33,105.85 145.73,106.02 146.14,106.19 146.55,106.37 146.96,106.54 147.37,106.72 147.78,106.90 148.19,107.08 148.60,107.26 149.01,107.44 149.42,107.62 149.82,107.80 150.23,107.98 150.64,108.16 151.05,108.35 151.46,108.53 151.87,108.72 152.28,108.91 152.69,109.09 153.10,109.28 153.51,109.47 153.91,109.66 154.32,109.85 154.73,110.05 155.14,110.24 155.55,110.43 155.96,110.63 156.37,110.82 156.78,111.02 157.19,111.22 157.60,111.41 158.00,111.61 158.41,111.81 158.82,112.01 159.23,112.21 159.64,112.41 160.05,112.62 160.46,112.82 160.87,113.03 161.28,113.23 161.69,113.44 162.09,113.64 162.50,113.85 162.91,114.06 163.32,114.27 163.73,114.48 164.14,114.69 164.55,114.90 164.96,115.12 165.37,115.33 165.78,115.54 166.18,115.76 166.59,115.98 167.00,116.19 167.41,116.41 167.82,116.63 168.23,116.85 168.64,117.07 169.05,117.29 169.46,117.51 169.87,117.73 170.27,117.96 170.68,118.18 171.09,118.40 171.50,118.63 171.91,118.86 172.32,119.08 172.73,119.31 173.14,119.54 173.55,119.77 173.96,120.00 174.36,120.23 174.77,120.46 175.18,120.70 175.59,120.93 176.00,121.16 176.41,121.40 176.82,121.63 177.23,121.87 177.64,122.11 178.05,122.35 178.45,122.58 178.86,122.82 179.27,123.06 179.68,123.30 180.09,123.55 180.50,123.79 180.91,124.03 181.32,124.28 181.73,124.52 182.14,124.77 182.54,125.01 182.95,125.26 183.36,125.51 183.77,125.76 184.18,126.01 184.59,126.26 185.00,126.51 185.41,126.76 185.82,127.01 186.23,127.26 186.63,127.52 187.04,127.77 187.45,128.03 187.86,128.28 188.27,128.54 188.68,128.79 189.09,129.05 189.50,129.31 189.91,129.57 190.32,129.83 190.72,130.09 191.13,130.35 191.54,130.62 191.95,130.88 192.36,131.14 192.77,131.41 193.18,131.67 193.59,131.94 194.00,132.20 194.41,132.47 194.81,132.74 195.22,133.01 195.63,133.28 196.04,133.55 196.45,133.82 196.86,134.09 197.27,134.36 197.68,134.63 198.09,134.91 198.50,135.18 198.90,135.45 199.31,135.73 199.72,136.00 200.13,136.28 200.54,136.56 200.95,136.84 201.36,137.12 201.77,137.39 202.18,137.67 202.59,137.95 202.99,138.24 203.40,138.52 203.81,138.80 204.22,139.08 204.63,139.37 205.04,139.65 205.45,139.94 205.86,140.22 206.27,140.51 206.68,140.80 207.08,141.08 207.49,141.37 207.90,141.66 208.31,141.95 208.72,142.24 209.13,142.53 209.54,142.82 209.95,143.11 210.36,143.41 210.77,143.70 211.17,143.99 211.58,144.29 211.99,144.58 212.40,144.88 212.81,145.18 213.22,145.47 213.63,145.77 214.04,146.07 214.45,146.37 214.86,146.67 215.26,146.97 215.67,147.27 216.08,147.57 216.49,147.87 216.90,148.17 217.31,148.47 217.72,148.78 218.13,149.08 218.54,149.39 218.95,149.69 219.35,150.00 219.76,150.30 220.17,150.61 220.58,150.92 220.99,151.23 221.40,151.53 221.81,151.84 222.22,152.15 222.63,152.46 223.04,152.77 223.44,153.09 223.85,153.40 224.26,153.71 224.67,154.02 225.08,154.34 225.49,154.65 225.90,154.97 226.31,155.28 226.72,155.60 227.13,155.91 227.53,156.23 227.94,156.55 228.35,156.87 228.76,157.18 229.17,157.50 229.58,157.82 229.99,158.14 230.40,158.46 230.81,158.78 231.22,159.10 231.62,159.43 232.03,159.75 232.44,160.07 232.85,160.40 233.26,160.72 233.67,161.04 234.08,161.37 234.49,161.70 234.90,162.02 235.31,162.35 235.71,162.68 236.12,163.00 236.53,163.33 236.94,163.66 237.35,163.99 237.76,164.32 238.17,164.65 238.58,164.98 238.99,165.31 239.40,165.64 239.80,165.97 240.21,166.30 240.62,166.64 241.03,166.97 241.44,167.30 241.85,167.64 242.26,167.97 242.67,168.31 243.08,168.64 243.49,168.98 243.89,169.32 244.30,169.65 244.71,169.99 245.12,170.33 245.53,170.67 245.94,171.00 246.35,171.34 246.76,171.68 247.17,172.02 247.58,172.36 247.98,172.70 248.39,173.05 248.80,173.39 249.21,173.73 249.62,174.07 250.03,174.41 250.44,174.76 250.85,175.10 251.26,175.45 251.67,175.79 252.07,176.14 252.48,176.48 252.89,176.83 253.30,177.17 253.71,177.52 254.12,177.87 254.53,178.21 254.94,178.56 255.35,178.91 255.76,179.26 256.16,179.61 256.57,179.96 256.98,180.31 257.39,180.66 257.80,181.01 258.21,181.36 258.62,181.71 259.03,182.06 259.44,182.41 259.85,182.76 260.25,183.12 260.66,183.47 261.07,183.82 261.48,184.18 261.89,184.53 262.30,184.88 262.71,185.24 263.12,185.59 263.53,185.95 263.94,186.31 264.34,186.66 264.75,187.02 265.16,187.37 265.57,187.73 265.98,188.09 266.39,188.45 266.80,188.81 267.21,189.16 267.62,189.52 268.03,189.88 268.43,190.24 268.84,190.60 269.25,190.96 269.66,191.32 270.07,191.68 270.48,192.04 270.89,192.40 271.30,192.77 271.71,193.13 272.12,193.49 272.52,193.85 272.93,194.22 273.34,194.58 273.75,194.94 274.16,195.31 274.57,195.67 274.98,196.03 275.39,196.40 275.80,196.76 276.21,197.13 276.61,197.49 277.02,197.86 277.43,198.22 277.84,198.59 278.25,198.96 278.66,199.32 279.07,199.69 279.48,200.06 279.89,200.43 280.30,200.79 280.70,201.16 281.11,201.53 281.52,201.90 281.93,202.27 282.34,202.64 282.75,203.00 283.16,203.37 283.57,203.74 283.98,204.11 284.39,204.48 284.79,204.85 285.20,205.23 285.61,205.60 286.02,205.97 286.43,206.34 286.84,206.71 287.25,207.08 287.66,207.45 288.07,207.83 288.48,208.20 288.88,208.57 289.29,208.94 289.70,209.32 290.11,209.69 290.52,210.06 290.93,210.44 291.34,210.81 291.75,211.19 292.16,211.56 292.57,211.93 292.97,212.31 293.38,212.68 293.79,213.06 294.20,213.43 294.61,213.81 295.02,214.18 295.43,214.56 295.84,214.94 296.25,215.31 296.66,215.69 297.06,216.06 297.47,216.44 297.88,216.82 298.29,217.19 298.70,217.57 299.11,217.95 299.52,218.33 299.93,218.70 300.34,219.08 300.75,219.46 301.15,219.84 301.56,220.22 301.97,220.59 302.38,220.97 302.79,221.35 303.20,221.73 303.61,222.11 304.02,222.49 304.43,222.87 304.84,223.25 305.24,223.63 305.65,224.00 306.06,224.38 306.47,224.76 306.88,225.14 307.29,225.52 307.70,225.90 308.11,226.28 308.52,226.66 308.93,227.04 309.33,227.43 309.74,227.81 310.15,228.19 310.56,228.57 310.97,228.95 311.38,229.33 311.79,229.71 312.20,230.09 312.61,230.47 313.02,230.85 313.42,231.24 313.83,231.62 314.24,232.00 314.65,232.38 315.06,232.76 315.47,233.14 315.88,233.53 316.29,233.91 316.70,234.29 317.11,234.67 317.51,235.05 317.92,235.44 318.33,235.82 318.74,236.20 319.15,236.58 319.56,236.97 319.97,237.35 320.38,237.73 320.79,238.11 321.20,238.50 321.60,238.88 322.01,239.26 322.42,239.65 322.83,240.03 323.24,240.41 323.65,240.79 324.06,241.18 324.47,241.56 324.88,241.94 325.29,242.33 325.69,242.71 326.10,243.09 326.51,243.48 326.92,243.86 327.33,244.24 327.74,244.63 328.15,245.01 328.56,245.39 328.97,245.78 329.38,246.16 329.78,246.54 330.19,246.93 330.60,247.31 331.01,247.69 331.42,248.08 331.83,248.46 332.24,248.84 332.65,249.23 333.06,249.61 333.47,249.99 333.87,250.38 334.28,250.76 334.69,251.14 335.10,251.52 335.51,251.91 335.92,252.29 336.33,252.67 336.74,253.06 337.15,253.44 337.56,253.82 337.96,254.21 338.37,254.59 338.78,254.97 339.19,255.36 339.60,255.74 340.01,256.12 340.42,256.50 340.83,256.89 341.24,257.27 341.65,257.65 342.05,258.04 342.46,258.42 342.87,258.80 343.28,259.18 343.69,259.57 344.10,259.95 344.51,260.33 344.92,260.71 345.33,261.09 345.74,261.48 346.14,261.86 346.55,262.24 346.96,262.62 347.37,263.00 347.78,263.39 348.19,263.77 348.60,264.15 349.01,264.53 349.42,264.91 349.83,265.29 350.23,265.67 350.64,266.06 351.05,266.44 351.46,266.82 351.87,267.20 352.28,267.58 352.69,267.96 353.10,268.34 353.51,268.72 353.92,269.10 354.32,269.48 354.73,269.86 355.14,270.24 355.55,270.62 355.96,271.00 356.37,271.38 356.78,271.76 357.19,272.14 357.60,272.52 358.01,272.90 358.41,273.28 358.82,273.66 359.23,274.04 359.64,274.42 360.05,274.80 360.46,275.17 360.87,275.55 361.28,275.93 361.69,276.31 362.10,276.69 362.50,277.06 362.91,277.44 363.32,277.82 363.73,278.20 364.14,278.57 364.55,278.95 364.96,279.33 365.37,279.71 365.78,280.08 366.19,280.46 366.59,280.84 367.00,281.21 367.41,281.59 367.82,281.96 368.23,282.34 368.64,282.72 369.05,283.09 369.46,283.47 369.87,283.84 370.28,284.22 370.68,284.59 371.09,284.97 371.50,285.34 371.91,285.72 372.32,286.09 372.73,286.46 373.14,286.84 373.55,287.21 373.96,287.58 374.37,287.96 374.77,288.33 375.18,288.70 375.59,289.08 376.00,289.45 376.41,289.82 376.82,290.19 377.23,290.57 377.64,290.94 378.05,291.31 378.46,291.68 378.86,292.05 379.27,292.42 379.68,292.79 380.09,293.16 380.50,293.53 380.91,293.90 381.32,294.27 381.73,294.64 382.14,295.01 382.55,295.38 382.95,295.75 383.36,296.12 383.77,296.49 384.18,296.86 384.59,297.23 385.00,297.59 385.41,297.96 385.82,298.33 386.23,298.70 386.64,299.06 387.04,299.43 387.45,299.80 387.86,300.16 388.27,300.53 388.68,300.90 389.09,301.26 389.50,301.63 389.91,301.99 390.32,302.36 390.73,302.72 391.13,303.09 391.54,303.45 391.95,303.82 392.36,304.18 392.77,304.54 393.18,304.91 393.59,305.27 394.00,305.63 394.41,306.00 394.82,306.36 395.22,306.72 395.63,307.08 396.04,307.44 396.45,307.80 396.86,308.17 397.27,308.53 397.68,308.89 398.09,309.25 398.50,309.61 398.91,309.97 399.31,310.33 399.72,310.69 400.13,311.04 400.54,311.40 400.95,311.76 401.36,312.12 401.77,312.48 402.18,312.83 402.59,313.19 403.00,313.55 403.40,313.91 403.81,314.26 404.22,314.62 404.63,314.97 405.04,315.33 405.45,315.68 405.86,316.04 406.27,316.39 406.68,316.75 407.09,317.10 407.49,317.46 407.90,317.81 408.31,318.16 408.72,318.52 409.13,318.87 409.54,319.22 409.95,319.57 410.36,319.93 410.77,320.28 411.18,320.63 411.58,320.98 411.99,321.33 412.40,321.68 412.81,322.03 413.22,322.38 413.63,322.73 414.04,323.08 414.45,323.43 414.86,323.78 415.27,324.12 415.67,324.47 416.08,324.82 416.49,325.17 416.90,325.51 417.31,325.86 417.72,326.21 418.13,326.55 418.54,326.90 418.95,327.24 419.36,327.59 419.76,327.93 420.17,328.28 420.58,328.62 420.99,328.96 421.40,329.31 421.81,329.65 422.22,329.99 422.63,330.33 423.04,330.68 423.45,331.02 423.85,331.36 424.26,331.70 424.67,332.04 425.08,332.38 425.49,332.72 425.90,333.06 426.31,333.40 426.72,333.74 427.13,334.08 427.54,334.42 427.94,334.75 428.35,335.09 428.76,335.43 429.17,335.76 429.58,336.10 429.99,336.44 430.40,336.77 430.81,337.11 431.22,337.44 431.63,337.78 432.03,338.11 432.44,338.45 432.85,338.78 433.26,339.11 433.67,339.45 434.08,339.78 434.49,340.11 434.90,340.44 435.31,340.77 435.72,341.11 436.12,341.44 436.53,341.77 436.94,342.10 437.35,342.43 437.76,342.76 438.17,343.09 438.58,343.41 438.99,343.74 439.40,344.07 439.81,344.40 440.21,344.72 440.62,345.05 441.03,345.38 441.44,345.70 441.85,346.03 442.26,346.35 442.67,346.68 443.08,347.00 443.49,347.33 443.90,347.65 444.30,347.98 444.71,348.30 445.12,348.62 445.53,348.94 445.94,349.27 446.35,349.59 446.76,349.91 447.17,350.23 447.58,350.55 447.99,350.87 448.39,351.19 448.80,351.51 449.21,351.83 449.62,352.14 450.03,352.46 450.44,352.78 450.85,353.10 451.26,353.41 451.67,353.73 452.08,354.05 452.48,354.36 452.89,354.68 453.30,354.99 453.71,355.31 454.12,355.62 454.53,355.93 454.94,356.25 455.35,356.56 455.76,356.87 456.17,357.19 456.57,357.50 456.98,357.81 457.39,358.12 457.80,358.43 458.21,358.74 458.62,359.05 459.03,359.36 459.44,359.67 459.85,359.98 460.26,360.28 460.66,360.59 461.07,360.90 461.48,361.21 461.89,361.51 462.30,361.82 462.71,362.12 463.12,362.43 463.53,362.73 463.94,363.04 464.35,363.34 464.75,363.65 465.16,363.95 465.57,364.25 465.98,364.55 466.39,364.86 466.80,365.16 467.21,365.46 467.62,365.76 468.03,366.06 468.44,366.36 468.84,366.66 469.25,366.96 469.66,367.26 470.07,367.55 470.48,367.85 470.89,368.15 471.30,368.45 471.71,368.74 472.12,369.04 472.53,369.34 472.93,369.63 473.34,369.93 473.75,370.22 474.16,370.51 474.57,370.81 474.98,371.10 475.39,371.39 475.80,371.69 476.21,371.98 476.62,372.27 477.02,372.56 477.43,372.85 477.84,373.14 478.25,373.43 478.66,373.72 479.07,374.01 479.48,374.30 479.89,374.59 480.30,374.87 480.71,375.16 481.11,375.45 481.52,375.73 481.93,376.02 482.34,376.30 482.75,376.59 483.16,376.87 483.57,377.16 483.98,377.44 484.39,377.73 484.80,378.01 485.20,378.29 485.61,378.57 486.02,378.85 486.43,379.14 486.84,379.42 487.25,379.70 487.66,379.98 488.07,380.26 488.48,380.53 488.89,380.81 489.29,381.09 489.70,381.37 490.11,381.65 490.52,381.92 490.93,382.20 491.34,382.48 491.75,382.75 492.16,383.03 492.57,383.30 492.98,383.57 493.38,383.85 493.79,384.12 494.20,384.39 494.61,384.67 495.02,384.94 495.43,385.21 495.84,385.48 496.25,385.75 496.66,386.02 497.07,386.29 497.47,386.56 497.88,386.83 498.29,387.10 498.70,387.37 499.11,387.63 499.52,387.90 499.93,388.17 500.34,388.43 500.75,388.70 501.16,388.97 501.56,389.23 501.97,389.50 502.38,389.76 502.79,390.02 503.20,390.29 503.61,390.55 504.02,390.81 504.43,391.07 504.84,391.33 505.25,391.60 505.65,391.86 506.06,392.12 506.47,392.38 506.88,392.63 507.29,392.89 507.70,393.15 508.11,393.41 508.52,393.67 508.93,393.92 509.34,394.18 509.74,394.44 510.15,394.69 510.56,394.95 510.97,395.20 511.38,395.46 511.79,395.71 512.20,395.96 512.61,396.22 513.02,396.47 513.43,396.72 513.83,396.97 514.24,397.22 514.65,397.47 515.06,397.72 515.47,397.97 515.88,398.22 516.29,398.47 516.70,398.72 517.11,398.97 517.52,399.22 517.92,399.46 518.33,399.71 518.74,399.96 519.15,400.20 519.56,400.45 519.97,400.69 520.38,400.94 520.79,401.18 521.20,401.42 521.61,401.67 522.01,401.91 522.42,402.15 522.83,402.39 523.24,402.64 523.65,402.88 524.06,403.12 524.47,403.36 524.88,403.60 525.29,403.84 525.70,404.07 526.10,404.31 526.51,404.55 526.92,404.79 527.33,405.03 527.74,405.26 528.15,405.50 528.56,405.73 528.97,405.97 529.38,406.20 529.79,406.44 530.19,406.67 530.60,406.90 531.01,407.14 531.42,407.37 531.83,407.60 532.24,407.83 532.65,408.06 533.06,408.29 533.47,408.52 533.88,408.75 534.28,408.98 534.69,409.21 535.10,409.44 535.51,409.67 535.92,409.90 536.33,410.12 536.74,410.35 537.15,410.58 537.56,410.80 537.97,411.03 538.37,411.25 538.78,411.48 539.19,411.70 539.60,411.92 540.01,412.15 540.42,412.37 540.83,412.59 541.24,412.81 541.65,413.04 542.06,413.26 542.46,413.48 542.87,413.70 543.28,413.92 543.69,414.14 544.10,414.35 544.51,414.57 544.92,414.79 545.33,415.01 545.74,415.23 546.15,415.44 546.55,415.66 546.96,415.87 547.37,416.09 547.78,416.30 548.19,416.52 548.60,416.73 549.01,416.94 549.42,417.16 549.83,417.37 550.24,417.58 550.64,417.79 551.05,418.01 551.46,418.22 551.87,418.43 552.28,418.64 552.69,418.85 553.10,419.06 553.51,419.26 553.92,419.47 554.33,419.68 554.73,419.89 555.14,420.09 555.55,420.30 555.96,420.51 556.37,420.71 556.78,420.92 557.19,421.12 557.60,421.33 558.01,421.53 558.42,421.73 558.82,421.94 559.23,422.14 559.64,422.34 560.05,422.54 560.46,422.74 560.87,422.94 561.28,423.14 561.69,423.34 562.10,423.54 562.51,423.74 562.91,423.94 563.32,424.14 563.73,424.34 564.14,424.54 564.55,424.73 564.96,424.93 565.37,425.12 565.78,425.32 566.19,425.52 566.60,425.71 567.00,425.90 567.41,426.10 567.82,426.29 568.23,426.49 568.64,426.68 569.05,426.87 569.46,427.06 569.87,427.25 570.28,427.44 570.69,427.63 571.09,427.82 571.50,428.01 571.91,428.20 572.32,428.39 572.73,428.58 573.14,428.77 573.55,428.96 573.96,429.14 574.37,429.33 574.78,429.52 575.18,429.70 575.59,429.89 576.00,430.07 576.41,430.26 576.82,430.44 577.23,430.63 577.64,430.81 578.05,430.99 578.46,431.17 578.87,431.36 579.27,431.54 579.68,431.72 580.09,431.90 580.50,432.08 580.91,432.26 581.32,432.44 581.73,432.62 582.14,432.80 582.55,432.98 582.96,433.16 583.36,433.33 583.77,433.51 584.18,433.69 584.59,433.86 585.00,434.04 585.41,434.21 585.82,434.39 586.23,434.56 586.64,434.74 587.05,434.91 587.45,435.09 587.86,435.26 588.27,435.43 588.68,435.60 589.09,435.78 589.50,435.95 589.91,436.12 590.32,436.29 590.73,436.46 591.14,436.63 591.54,436.80 591.95,436.97 592.36,437.14 592.77,437.30 593.18,437.47 593.59,437.64 594.00,437.81 594.41,437.97 594.82,438.14 595.23,438.30 595.63,438.47 596.04,438.63 596.45,438.80 596.86,438.96 597.27,439.13 597.68,439.29 598.09,439.45 598.50,439.62 598.91,439.78 599.32,439.94 599.72,440.10 600.13,440.26 600.54,440.42 600.95,440.58 601.36,440.74 601.77,440.90 602.18,441.06 602.59,441.22 603.00,441.38 603.41,441.54 603.81,441.69 604.22,441.85 604.63,442.01 605.04,442.16 605.45,442.32 605.86,442.47 606.27,442.63 606.68,442.78 607.09,442.94 607.50,443.09 607.90,443.25 608.31,443.40 608.72,443.55 609.13,443.70 609.54,443.86 609.95,444.01 610.36,444.16 610.77,444.31 611.18,444.46 611.59,444.61 611.99,444.76 612.40,444.91 612.81,445.06 613.22,445.21 613.63,445.36 614.04,445.50 614.45,445.65 614.86,445.80 615.27,445.95 615.68,446.09 616.08,446.24 616.49,446.38 616.90,446.53 617.31,446.67 617.72,446.82 618.13,446.96 618.54,447.11 618.95,447.25 619.36,447.39 619.77,447.53 620.17,447.68 620.58,447.82 620.99,447.96 621.40,448.10 621.81,448.24 622.22,448.38 622.63,448.52 623.04,448.66 623.45,448.80 623.86,448.94 624.26,449.08 624.67,449.22 625.08,449.35 625.49,449.49 625.90,449.63 626.31,449.77 626.72,449.90 627.13,450.04 627.54,450.17 627.95,450.31 628.35,450.44 628.76,450.58 629.17,450.71 629.58,450.85 629.99,450.98 630.40,451.11 630.81,451.25 631.22,451.38 631.63,451.51 632.04,451.64 632.44,451.77 632.85,451.90 633.26,452.04 633.67,452.17 634.08,452.30 634.49,452.43 634.90,452.55 635.31,452.68 635.72,452.81 636.13,452.94 636.53,453.07 636.94,453.20 637.35,453.32 637.76,453.45 638.17,453.58 638.58,453.70 638.99,453.83 639.40,453.95 639.81,454.08 640.22,454.20 640.62,454.33 641.03,454.45 641.44,454.58 641.85,454.70 642.26,454.82 642.67,454.94 643.08,455.07 643.49,455.19 643.90,455.31 644.31,455.43 644.71,455.55 645.12,455.67 645.53,455.79 645.94,455.91 646.35,456.03 646.76,456.15 647.17,456.27 647.58,456.39 647.99,456.51 648.40,456.63 648.80,456.74 649.21,456.86 649.62,456.98 650.03,457.10 650.44,457.21 650.85,457.33 651.26,457.44 651.67,457.56 652.08,457.67 652.49,457.79 652.89,457.90 653.30,458.02 653.71,458.13 654.12,458.24 654.53,458.36 654.94,458.47 655.35,458.58 655.76,458.69 656.17,458.81 656.58,458.92 656.98,459.03 657.39,459.14 657.80,459.25 658.21,459.36 658.62,459.47 659.03,459.58 659.44,459.69 659.85,459.80 660.26,459.91 660.67,460.01 661.07,460.12 661.48,460.23 661.89,460.34 662.30,460.44 662.71,460.55 663.12,460.66 663.53,460.76 663.94,460.87 664.35,460.97 664.76,461.08 665.16,461.18 665.57,461.29 665.98,461.39 666.39,461.50 666.80,461.60 667.21,461.70 667.62,461.81 668.03,461.91 668.44,462.01 668.85,462.11 669.25,462.22 669.66,462.32 670.07,462.42 670.48,462.52 670.89,462.62 671.30,462.72 671.71,462.82 672.12,462.92 672.53,463.02 672.94,463.12 673.34,463.22 673.75,463.32 674.16,463.41 674.57,463.51 674.98,463.61 675.39,463.71 675.80,463.80 676.21,463.90 676.62,464.00 677.03,464.09 677.43,464.19 677.84,464.29 678.25,464.38 678.66,464.48 679.07,464.57 679.48,464.66 679.89,464.76 680.30,464.85 680.71,464.95 681.12,465.04 681.52,465.13 681.93,465.23 682.34,465.32 682.75,465.41 683.16,465.50 683.57,465.59 683.98,465.68 684.39,465.78 684.80,465.87 685.21,465.96 685.61,466.05 686.02,466.14 686.43,466.23 686.84,466.32 687.25,466.41 687.66,466.49 688.07,466.58 688.48,466.67 688.89,466.76 689.30,466.85 689.70,466.93 690.11,467.02 690.52,467.11 690.93,467.19 691.34,467.28 691.75,467.37 692.16,467.45 692.57,467.54 692.98,467.62 693.39,467.71 693.79,467.79 694.20,467.88 694.61,467.96 695.02,468.05 695.43,468.13 695.84,468.21 696.25,468.30 696.66,468.38 697.07,468.46 697.48,468.54 697.88,468.63 698.29,468.71 698.70,468.79 699.11,468.87 699.52,468.95 699.93,469.03 700.34,469.11 700.75,469.19 701.16,469.27 701.57,469.35 701.97,469.43 702.38,469.51 702.79,469.59 703.20,469.67 703.61,469.75 704.02,469.83 704.43,469.90 704.84,469.98 705.25,470.06 705.66,470.14 706.06,470.21 706.47,470.29 706.88,470.37 707.29,470.44 707.70,470.52 708.11,470.60 708.52,470.67 708.93,470.75 709.34,470.82 709.75,470.90 710.15,470.97 710.56,471.05 710.97,471.12 711.38,471.19 711.79,471.27 712.20,471.34 712.61,471.41 713.02,471.49 713.43,471.56 713.84,471.63 714.24,471.70 714.65,471.77 715.06,471.85 715.47,471.92 715.88,471.99 716.29,472.06 716.70,472.13 717.11,472.20 717.52,472.27 717.93,472.34 718.33,472.41 718.74,472.48 719.15,472.55 719.56,472.62 719.97,472.69 720.38,472.76 720.79,472.83 721.20,472.89 721.61,472.96 722.02,473.03 722.42,473.10 722.83,473.16 723.24,473.23 723.65,473.30 724.06,473.36 724.47,473.43 724.88,473.50 725.29,473.56 725.70,473.63 726.11,473.69 726.51,473.76 726.92,473.82 727.33,473.89 727.74,473.95 728.15,474.02 728.56,474.08 728.97,474.15 729.38,474.21 729.79,474.27 730.20,474.34 730.60,474.40 731.01,474.46 731.42,474.53 731.83,474.59 732.24,474.65 732.65,474.71 733.06,474.77 733.47,474.84 733.88,474.90 734.29,474.96 734.69,475.02 735.10,475.08 735.51,475.14 735.92,475.20 736.33,475.26 736.74,475.32 737.15,475.38 737.56,475.44 737.97,475.50 738.38,475.56 738.78,475.62 739.19,475.68 739.60,475.73 740.01,475.79 740.42,475.85 740.83,475.91 741.24,475.97 741.65,476.02 742.06,476.08 742.47,476.14 742.87,476.20 743.28,476.25 743.69,476.31 744.10,476.36 744.51,476.42 744.92,476.48 745.33,476.53 745.74,476.59 746.15,476.64 746.56,476.70 746.96,476.75 747.37,476.81 747.78,476.86 748.19,476.92 748.60,476.97 749.01,477.02 749.42,477.08 749.83,477.13 750.24,477.19 750.65,477.24 751.05,477.29 751.46,477.34 751.87,477.40 752.28,477.45 752.69,477.50 753.10,477.55 753.51,477.61 753.92,477.66 754.33,477.71 754.74,477.76 755.14,477.81 755.55,477.86 755.96,477.91 756.37,477.96 756.78,478.01 757.19,478.06 757.60,478.11 758.01,478.16 758.42,478.21 758.83,478.26 759.23,478.31 759.64,478.36 760.05,478.41 760.46,478.46 760.87,478.51 761.28,478.56 761.69,478.61 762.10,478.65 762.51,478.70 762.92,478.75 763.32,478.80 763.73,478.84 764.14,478.89 764.55,478.94 764.96,478.99 765.37,479.03 765.78,479.08 766.19,479.12 766.60,479.17 767.01,479.22 767.41,479.26 767.82,479.31 768.23,479.35 768.64,479.40 769.05,479.44 769.46,479.49 769.87,479.53 770.28,479.58 770.69,479.62 771.10,479.67 771.50,479.71 771.91,479.76 772.32,479.80 772.73,479.84 773.14,479.89 773.55,479.93 773.96,479.97 774.37,480.02 774.78,480.06 775.19,480.10 775.59,480.15 776.00,480.19 776.41,480.23 776.82,480.27 777.23,480.31 777.64,480.36 778.05,480.40 778.46,480.44 778.87,480.48 779.28,480.52 779.68,480.56 780.09,480.60 780.50,480.64 780.91,480.69 781.32,480.73 781.73,480.77 782.14,480.81 782.55,480.85 782.96,480.89 783.37,480.93 783.77,480.97 784.18,481.00 784.59,481.04 785.00,481.08 785.41,481.12 785.82,481.16 786.23,481.20 786.64,481.24 787.05,481.28 787.46,481.31 787.86,481.35 788.27,481.39 788.68,481.43 789.09,481.47 789.50,481.50 789.91,481.54 790.32,481.58 790.73,481.61 791.14,481.65 791.55,481.69 791.95,481.72 792.36,481.76 792.77,481.80 793.18,481.83 793.59,481.87 794.00,481.91 794.41,481.94 794.82,481.98 795.23,482.01 795.64,482.05 796.04,482.08 796.45,482.12 796.86,482.15 797.27,482.19 797.68,482.22 798.09,482.26 798.50,482.29 798.91,482.33 799.32,482.36 799.73,482.39 800.13,482.43 800.54,482.46 800.95,482.50 801.36,482.53 801.77,482.56 802.18,482.60 802.59,482.63 803.00,482.66 803.41,482.69 803.82,482.73 804.22,482.76 804.63,482.79 805.04,482.82 805.45,482.86 805.86,482.89 806.27,482.92 806.68,482.95 807.09,482.98 807.50,483.02 807.91,483.05 808.31,483.08 808.72,483.11 809.13,483.14 809.54,483.17 809.95,483.20 810.36,483.23 810.77,483.26 811.18,483.29 811.59,483.33 812.00,483.36 812.40,483.39 812.81,483.42 813.22,483.45 813.63,483.47 814.04,483.50 814.45,483.53 814.86,483.56 815.27,483.59 815.68,483.62 816.09,483.65 816.49,483.68 816.90,483.71 817.31,483.74 817.72,483.77 818.13,483.79 818.54,483.82 818.95,483.85 819.36,483.88 819.77,483.91 820.18,483.94 820.58,483.96 820.99,483.99 821.40,484.02 821.81,484.05 822.22,484.07 822.63,484.10 823.04,484.13 823.45,484.15 823.86,484.18 824.27,484.21 824.67,484.23 825.08,484.26 825.49,484.29 825.90,484.31 826.31,484.34 826.72,484.37 827.13,484.39 827.54,484.42 827.95,484.44 828.36,484.47 828.76,484.50 829.17,484.52 829.58,484.55 829.99,484.57 830.40,484.60 830.81,484.62 831.22,484.65 831.63,484.67 832.04,484.70 832.45,484.72 832.85,484.75 833.26,484.77 833.67,484.79 834.08,484.82 834.49,484.84 834.90,484.87 835.31,484.89 835.72,484.92 836.13,484.94 836.54,484.96 836.94,484.99 837.35,485.01 837.76,485.03 838.17,485.06 838.58,485.08 838.99,485.10 839.40,485.13 839.81,485.15 840.22,485.17 840.63,485.19 841.03,485.22 841.44,485.24 841.85,485.26 842.26,485.28 842.67,485.31 843.08,485.33 843.49,485.35 843.90,485.37 844.31,485.39 844.72,485.42 845.12,485.44 845.53,485.46 845.94,485.48 846.35,485.50 846.76,485.52 847.17,485.55 847.58,485.57 847.99,485.59 848.40,485.61 848.81,485.63 849.21,485.65 849.62,485.67 850.03,485.69 850.44,485.71 850.85,485.73 851.26,485.75 851.67,485.77 852.08,485.79 852.49,485.81 852.90,485.83 853.30,485.85 853.71,485.87 854.12,485.89 854.53,485.91 854.94,485.93 855.35,485.95 855.76,485.97 856.17,485.99 856.58,486.01 856.99,486.03 857.39,486.05 857.80,486.07 858.21,486.09 858.62,486.10 859.03,486.12 859.44,486.14 859.85,486.16 860.26,486.18 860.67,486.20 861.08,486.22 861.48,486.23 861.89,486.25 862.30,486.27 862.71,486.29 863.12,486.31 863.53,486.32 863.94,486.34 864.35,486.36 864.76,486.38 865.17,486.40 865.57,486.41 865.98,486.43 866.39,486.45 866.80,486.47 867.21,486.48 867.62,486.50 868.03,486.52 868.44,486.53 868.85,486.55 869.26,486.57 869.66,486.58 870.07,486.60 870.48,486.62 870.89,486.63 871.30,486.65 871.71,486.67 872.12,486.68 872.53,486.70 872.94,486.72 873.35,486.73 873.75,486.75 874.16,486.76 874.57,486.78 874.98,486.80 875.39,486.81 875.80,486.83 876.21,486.84 876.62,486.86 877.03,486.87 877.44,486.89 877.84,486.90 878.25,486.92 878.66,486.93 879.07,486.95 879.48,486.96 879.89,486.98 880.30,486.99 880.71,487.01 881.12,487.02 881.53,487.04 881.93,487.05 882.34,487.07 882.75,487.08 883.16,487.10 883.57,487.11 883.98,487.13 884.39,487.14 884.80,487.16 885.21,487.17 885.62,487.18 886.02,487.20 886.43,487.21 886.84,487.23 887.25,487.24 887.66,487.25 888.07,487.27 888.48,487.28 888.89,487.29 889.30,487.31 889.71,487.32 890.11,487.33 890.52,487.35 890.93,487.36 891.34,487.37 891.75,487.39 892.16,487.40 892.57,487.41 892.98,487.43 893.39,487.44 893.80,487.45" fill="none" stroke="#378ADD" stroke-width="2.4" stroke-linejoin="round" stroke-linecap="round"/>
<polyline points="76.20,94.40 76.61,97.53 77.02,99.64 77.43,101.33 77.84,102.78 78.25,104.06 78.66,105.21 79.07,106.27 79.48,107.25 79.89,108.18 80.29,109.04 80.70,109.86 81.11,110.64 81.52,111.39 81.93,112.11 82.34,112.79 82.75,113.45 83.16,114.09 83.57,114.71 83.98,115.31 84.38,115.89 84.79,116.45 85.20,117.00 85.61,117.53 86.02,118.05 86.43,118.56 86.84,119.05 87.25,119.54 87.66,120.01 88.07,120.48 88.47,120.93 88.88,121.38 89.29,121.81 89.70,122.24 90.11,122.66 90.52,123.08 90.93,123.48 91.34,123.88 91.75,124.27 92.16,124.66 92.56,125.04 92.97,125.42 93.38,125.78 93.79,126.15 94.20,126.51 94.61,126.86 95.02,127.21 95.43,127.55 95.84,127.89 96.25,128.23 96.65,128.56 97.06,128.88 97.47,129.20 97.88,129.52 98.29,129.84 98.70,130.15 99.11,130.46 99.52,130.76 99.93,131.06 100.34,131.36 100.74,131.65 101.15,131.94 101.56,132.23 101.97,132.51 102.38,132.80 102.79,133.07 103.20,133.35 103.61,133.62 104.02,133.90 104.43,134.16 104.83,134.43 105.24,134.69 105.65,134.95 106.06,135.21 106.47,135.47 106.88,135.72 107.29,135.97 107.70,136.22 108.11,136.47 108.52,136.72 108.92,136.96 109.33,137.20 109.74,137.44 110.15,137.68 110.56,137.91 110.97,138.15 111.38,138.38 111.79,138.61 112.20,138.84 112.61,139.06 113.01,139.29 113.42,139.51 113.83,139.73 114.24,139.95 114.65,140.17 115.06,140.39 115.47,140.60 115.88,140.82 116.29,141.03 116.70,141.24 117.10,141.45 117.51,141.66 117.92,141.87 118.33,142.07 118.74,142.27 119.15,142.48 119.56,142.68 119.97,142.88 120.38,143.08 120.79,143.27 121.19,143.47 121.60,143.67 122.01,143.86 122.42,144.05 122.83,144.24 123.24,144.43 123.65,144.62 124.06,144.81 124.47,145.00 124.88,145.18 125.28,145.37 125.69,145.55 126.10,145.73 126.51,145.92 126.92,146.10 127.33,146.28 127.74,146.46 128.15,146.63 128.56,146.81 128.97,146.99 129.37,147.16 129.78,147.33 130.19,147.51 130.60,147.68 131.01,147.85 131.42,148.02 131.83,148.19 132.24,148.36 132.65,148.53 133.06,148.69 133.46,148.86 133.87,149.02 134.28,149.19 134.69,149.35 135.10,149.51 135.51,149.68 135.92,149.84 136.33,150.00 136.74,150.16 137.15,150.32 137.55,150.47 137.96,150.63 138.37,150.79 138.78,150.94 139.19,151.10 139.60,151.25 140.01,151.41 140.42,151.56 140.83,151.71 141.24,151.86 141.64,152.01 142.05,152.16 142.46,152.31 142.87,152.46 143.28,152.61 143.69,152.76 144.10,152.91 144.51,153.05 144.92,153.20 145.33,153.34 145.73,153.49 146.14,153.63 146.55,153.77 146.96,153.92 147.37,154.06 147.78,154.20 148.19,154.34 148.60,154.48 149.01,154.62 149.42,154.76 149.82,154.90 150.23,155.04 150.64,155.18 151.05,155.31 151.46,155.45 151.87,155.58 152.28,155.72 152.69,155.85 153.10,155.99 153.51,156.12 153.91,156.26 154.32,156.39 154.73,156.52 155.14,156.65 155.55,156.78 155.96,156.92 156.37,157.05 156.78,157.18 157.19,157.31 157.60,157.43 158.00,157.56 158.41,157.69 158.82,157.82 159.23,157.95 159.64,158.07 160.05,158.20 160.46,158.32 160.87,158.45 161.28,158.57 161.69,158.70 162.09,158.82 162.50,158.95 162.91,159.07 163.32,159.19 163.73,159.31 164.14,159.44 164.55,159.56 164.96,159.68 165.37,159.80 165.78,159.92 166.18,160.04 166.59,160.16 167.00,160.28 167.41,160.39 167.82,160.51 168.23,160.63 168.64,160.75 169.05,160.86 169.46,160.98 169.87,161.10 170.27,161.21 170.68,161.33 171.09,161.44 171.50,161.56 171.91,161.67 172.32,161.79 172.73,161.90 173.14,162.01 173.55,162.13 173.96,162.24 174.36,162.35 174.77,162.46 175.18,162.58 175.59,162.69 176.00,162.80 176.41,162.91 176.82,163.02 177.23,163.13 177.64,163.24 178.05,163.35 178.45,163.46 178.86,163.56 179.27,163.67 179.68,163.78 180.09,163.89 180.50,164.00 180.91,164.10 181.32,164.21 181.73,164.32 182.14,164.42 182.54,164.53 182.95,164.63 183.36,164.74 183.77,164.84 184.18,164.95 184.59,165.05 185.00,165.15 185.41,165.26 185.82,165.36 186.23,165.46 186.63,165.57 187.04,165.67 187.45,165.77 187.86,165.87 188.27,165.98 188.68,166.08 189.09,166.18 189.50,166.28 189.91,166.38 190.32,166.48 190.72,166.58 191.13,166.68 191.54,166.78 191.95,166.88 192.36,166.98 192.77,167.07 193.18,167.17 193.59,167.27 194.00,167.37 194.41,167.47 194.81,167.56 195.22,167.66 195.63,167.76 196.04,167.85 196.45,167.95 196.86,168.05 197.27,168.14 197.68,168.24 198.09,168.33 198.50,168.43 198.90,168.52 199.31,168.62 199.72,168.71 200.13,168.81 200.54,168.90 200.95,168.99 201.36,169.09 201.77,169.18 202.18,169.27 202.59,169.37 202.99,169.46 203.40,169.55 203.81,169.64 204.22,169.73 204.63,169.83 205.04,169.92 205.45,170.01 205.86,170.10 206.27,170.19 206.68,170.28 207.08,170.37 207.49,170.46 207.90,170.55 208.31,170.64 208.72,170.73 209.13,170.82 209.54,170.91 209.95,171.00 210.36,171.08 210.77,171.17 211.17,171.26 211.58,171.35 211.99,171.44 212.40,171.52 212.81,171.61 213.22,171.70 213.63,171.79 214.04,171.87 214.45,171.96 214.86,172.05 215.26,172.13 215.67,172.22 216.08,172.30 216.49,172.39 216.90,172.47 217.31,172.56 217.72,172.64 218.13,172.73 218.54,172.81 218.95,172.90 219.35,172.98 219.76,173.07 220.17,173.15 220.58,173.23 220.99,173.32 221.40,173.40 221.81,173.48 222.22,173.57 222.63,173.65 223.04,173.73 223.44,173.81 223.85,173.90 224.26,173.98 224.67,174.06 225.08,174.14 225.49,174.22 225.90,174.30 226.31,174.38 226.72,174.47 227.13,174.55 227.53,174.63 227.94,174.71 228.35,174.79 228.76,174.87 229.17,174.95 229.58,175.03 229.99,175.11 230.40,175.19 230.81,175.27 231.22,175.35 231.62,175.42 232.03,175.50 232.44,175.58 232.85,175.66 233.26,175.74 233.67,175.82 234.08,175.89 234.49,175.97 234.90,176.05 235.31,176.13 235.71,176.20 236.12,176.28 236.53,176.36 236.94,176.44 237.35,176.51 237.76,176.59 238.17,176.67 238.58,176.74 238.99,176.82 239.40,176.89 239.80,176.97 240.21,177.05 240.62,177.12 241.03,177.20 241.44,177.27 241.85,177.35 242.26,177.42 242.67,177.50 243.08,177.57 243.49,177.65 243.89,177.72 244.30,177.79 244.71,177.87 245.12,177.94 245.53,178.02 245.94,178.09 246.35,178.16 246.76,178.24 247.17,178.31 247.58,178.38 247.98,178.45 248.39,178.53 248.80,178.60 249.21,178.67 249.62,178.75 250.03,178.82 250.44,178.89 250.85,178.96 251.26,179.03 251.67,179.11 252.07,179.18 252.48,179.25 252.89,179.32 253.30,179.39 253.71,179.46 254.12,179.53 254.53,179.60 254.94,179.67 255.35,179.74 255.76,179.82 256.16,179.89 256.57,179.96 256.98,180.03 257.39,180.10 257.80,180.17 258.21,180.23 258.62,180.30 259.03,180.37 259.44,180.44 259.85,180.51 260.25,180.58 260.66,180.65 261.07,180.72 261.48,180.79 261.89,180.86 262.30,180.92 262.71,180.99 263.12,181.06 263.53,181.13 263.94,181.20 264.34,181.26 264.75,181.33 265.16,181.40 265.57,181.47 265.98,181.53 266.39,181.60 266.80,181.67 267.21,181.74 267.62,181.80 268.03,181.87 268.43,181.94 268.84,182.00 269.25,182.07 269.66,182.14 270.07,182.20 270.48,182.27 270.89,182.33 271.30,182.40 271.71,182.47 272.12,182.53 272.52,182.60 272.93,182.66 273.34,182.73 273.75,182.79 274.16,182.86 274.57,182.92 274.98,182.99 275.39,183.05 275.80,183.12 276.21,183.18 276.61,183.25 277.02,183.31 277.43,183.37 277.84,183.44 278.25,183.50 278.66,183.57 279.07,183.63 279.48,183.69 279.89,183.76 280.30,183.82 280.70,183.88 281.11,183.95 281.52,184.01 281.93,184.07 282.34,184.14 282.75,184.20 283.16,184.26 283.57,184.33 283.98,184.39 284.39,184.45 284.79,184.51 285.20,184.58 285.61,184.64 286.02,184.70 286.43,184.76 286.84,184.82 287.25,184.89 287.66,184.95 288.07,185.01 288.48,185.07 288.88,185.13 289.29,185.19 289.70,185.25 290.11,185.32 290.52,185.38 290.93,185.44 291.34,185.50 291.75,185.56 292.16,185.62 292.57,185.68 292.97,185.74 293.38,185.80 293.79,185.86 294.20,185.92 294.61,185.98 295.02,186.04 295.43,186.10 295.84,186.16 296.25,186.22 296.66,186.28 297.06,186.34 297.47,186.40 297.88,186.46 298.29,186.52 298.70,186.58 299.11,186.64 299.52,186.70 299.93,186.75 300.34,186.81 300.75,186.87 301.15,186.93 301.56,186.99 301.97,187.05 302.38,187.11 302.79,187.16 303.20,187.22 303.61,187.28 304.02,187.34 304.43,187.40 304.84,187.46 305.24,187.51 305.65,187.57 306.06,187.63 306.47,187.69 306.88,187.74 307.29,187.80 307.70,187.86 308.11,187.92 308.52,187.97 308.93,188.03 309.33,188.09 309.74,188.14 310.15,188.20 310.56,188.26 310.97,188.31 311.38,188.37 311.79,188.43 312.20,188.48 312.61,188.54 313.02,188.60 313.42,188.65 313.83,188.71 314.24,188.76 314.65,188.82 315.06,188.88 315.47,188.93 315.88,188.99 316.29,189.04 316.70,189.10 317.11,189.15 317.51,189.21 317.92,189.26 318.33,189.32 318.74,189.37 319.15,189.43 319.56,189.48 319.97,189.54 320.38,189.59 320.79,189.65 321.20,189.70 321.60,189.76 322.01,189.81 322.42,189.87 322.83,189.92 323.24,189.98 323.65,190.03 324.06,190.08 324.47,190.14 324.88,190.19 325.29,190.25 325.69,190.30 326.10,190.35 326.51,190.41 326.92,190.46 327.33,190.52 327.74,190.57 328.15,190.62 328.56,190.68 328.97,190.73 329.38,190.78 329.78,190.84 330.19,190.89 330.60,190.94 331.01,190.99 331.42,191.05 331.83,191.10 332.24,191.15 332.65,191.21 333.06,191.26 333.47,191.31 333.87,191.36 334.28,191.42 334.69,191.47 335.10,191.52 335.51,191.57 335.92,191.62 336.33,191.68 336.74,191.73 337.15,191.78 337.56,191.83 337.96,191.88 338.37,191.94 338.78,191.99 339.19,192.04 339.60,192.09 340.01,192.14 340.42,192.19 340.83,192.24 341.24,192.30 341.65,192.35 342.05,192.40 342.46,192.45 342.87,192.50 343.28,192.55 343.69,192.60 344.10,192.65 344.51,192.70 344.92,192.75 345.33,192.80 345.74,192.85 346.14,192.90 346.55,192.96 346.96,193.01 347.37,193.06 347.78,193.11 348.19,193.16 348.60,193.21 349.01,193.26 349.42,193.31 349.83,193.36 350.23,193.41 350.64,193.46 351.05,193.51 351.46,193.55 351.87,193.60 352.28,193.65 352.69,193.70 353.10,193.75 353.51,193.80 353.92,193.85 354.32,193.90 354.73,193.95 355.14,194.00 355.55,194.05 355.96,194.10 356.37,194.15 356.78,194.19 357.19,194.24 357.60,194.29 358.01,194.34 358.41,194.39 358.82,194.44 359.23,194.49 359.64,194.53 360.05,194.58 360.46,194.63 360.87,194.68 361.28,194.73 361.69,194.78 362.10,194.82 362.50,194.87 362.91,194.92 363.32,194.97 363.73,195.02 364.14,195.06 364.55,195.11 364.96,195.16 365.37,195.21 365.78,195.25 366.19,195.30 366.59,195.35 367.00,195.40 367.41,195.44 367.82,195.49 368.23,195.54 368.64,195.59 369.05,195.63 369.46,195.68 369.87,195.73 370.28,195.77 370.68,195.82 371.09,195.87 371.50,195.91 371.91,195.96 372.32,196.01 372.73,196.05 373.14,196.10 373.55,196.15 373.96,196.19 374.37,196.24 374.77,196.29 375.18,196.33 375.59,196.38 376.00,196.43 376.41,196.47 376.82,196.52 377.23,196.56 377.64,196.61 378.05,196.66 378.46,196.70 378.86,196.75 379.27,196.79 379.68,196.84 380.09,196.88 380.50,196.93 380.91,196.98 381.32,197.02 381.73,197.07 382.14,197.11 382.55,197.16 382.95,197.20 383.36,197.25 383.77,197.29 384.18,197.34 384.59,197.38 385.00,197.43 385.41,197.47 385.82,197.52 386.23,197.56 386.64,197.61 387.04,197.65 387.45,197.70 387.86,197.74 388.27,197.79 388.68,197.83 389.09,197.88 389.50,197.92 389.91,197.96 390.32,198.01 390.73,198.05 391.13,198.10 391.54,198.14 391.95,198.19 392.36,198.23 392.77,198.27 393.18,198.32 393.59,198.36 394.00,198.41 394.41,198.45 394.82,198.49 395.22,198.54 395.63,198.58 396.04,198.63 396.45,198.67 396.86,198.71 397.27,198.76 397.68,198.80 398.09,198.84 398.50,198.89 398.91,198.93 399.31,198.97 399.72,199.02 400.13,199.06 400.54,199.10 400.95,199.15 401.36,199.19 401.77,199.23 402.18,199.28 402.59,199.32 403.00,199.36 403.40,199.40 403.81,199.45 404.22,199.49 404.63,199.53 405.04,199.58 405.45,199.62 405.86,199.66 406.27,199.70 406.68,199.75 407.09,199.79 407.49,199.83 407.90,199.87 408.31,199.92 408.72,199.96 409.13,200.00 409.54,200.04 409.95,200.08 410.36,200.13 410.77,200.17 411.18,200.21 411.58,200.25 411.99,200.29 412.40,200.34 412.81,200.38 413.22,200.42 413.63,200.46 414.04,200.50 414.45,200.55 414.86,200.59 415.27,200.63 415.67,200.67 416.08,200.71 416.49,200.75 416.90,200.79 417.31,200.84 417.72,200.88 418.13,200.92 418.54,200.96 418.95,201.00 419.36,201.04 419.76,201.08 420.17,201.12 420.58,201.17 420.99,201.21 421.40,201.25 421.81,201.29 422.22,201.33 422.63,201.37 423.04,201.41 423.45,201.45 423.85,201.49 424.26,201.53 424.67,201.57 425.08,201.61 425.49,201.65 425.90,201.69 426.31,201.74 426.72,201.78 427.13,201.82 427.54,201.86 427.94,201.90 428.35,201.94 428.76,201.98 429.17,202.02 429.58,202.06 429.99,202.10 430.40,202.14 430.81,202.18 431.22,202.22 431.63,202.26 432.03,202.30 432.44,202.34 432.85,202.38 433.26,202.42 433.67,202.46 434.08,202.50 434.49,202.54 434.90,202.58 435.31,202.62 435.72,202.65 436.12,202.69 436.53,202.73 436.94,202.77 437.35,202.81 437.76,202.85 438.17,202.89 438.58,202.93 438.99,202.97 439.40,203.01 439.81,203.05 440.21,203.09 440.62,203.13 441.03,203.17 441.44,203.20 441.85,203.24 442.26,203.28 442.67,203.32 443.08,203.36 443.49,203.40 443.90,203.44 444.30,203.48 444.71,203.52 445.12,203.55 445.53,203.59 445.94,203.63 446.35,203.67 446.76,203.71 447.17,203.75 447.58,203.79 447.99,203.82 448.39,203.86 448.80,203.90 449.21,203.94 449.62,203.98 450.03,204.02 450.44,204.05 450.85,204.09 451.26,204.13 451.67,204.17 452.08,204.21 452.48,204.24 452.89,204.28 453.30,204.32 453.71,204.36 454.12,204.40 454.53,204.43 454.94,204.47 455.35,204.51 455.76,204.55 456.17,204.58 456.57,204.62 456.98,204.66 457.39,204.70 457.80,204.73 458.21,204.77 458.62,204.81 459.03,204.85 459.44,204.88 459.85,204.92 460.26,204.96 460.66,205.00 461.07,205.03 461.48,205.07 461.89,205.11 462.30,205.15 462.71,205.18 463.12,205.22 463.53,205.26 463.94,205.29 464.35,205.33 464.75,205.37 465.16,205.41 465.57,205.44 465.98,205.48 466.39,205.52 466.80,205.55 467.21,205.59 467.62,205.63 468.03,205.66 468.44,205.70 468.84,205.74 469.25,205.77 469.66,205.81 470.07,205.85 470.48,205.88 470.89,205.92 471.30,205.96 471.71,205.99 472.12,206.03 472.53,206.06 472.93,206.10 473.34,206.14 473.75,206.17 474.16,206.21 474.57,206.25 474.98,206.28 475.39,206.32 475.80,206.35 476.21,206.39 476.62,206.43 477.02,206.46 477.43,206.50 477.84,206.53 478.25,206.57 478.66,206.61 479.07,206.64 479.48,206.68 479.89,206.71 480.30,206.75 480.71,206.78 481.11,206.82 481.52,206.86 481.93,206.89 482.34,206.93 482.75,206.96 483.16,207.00 483.57,207.03 483.98,207.07 484.39,207.10 484.80,207.14 485.20,207.17 485.61,207.21 486.02,207.25 486.43,207.28 486.84,207.32 487.25,207.35 487.66,207.39 488.07,207.42 488.48,207.46 488.89,207.49 489.29,207.53 489.70,207.57 490.11,207.60 490.52,207.64 490.93,207.67 491.34,207.71 491.75,207.75 492.16,207.78 492.57,207.82 492.98,207.85 493.38,207.89 493.79,207.93 494.20,207.96 494.61,208.00 495.02,208.04 495.43,208.07 495.84,208.11 496.25,208.14 496.66,208.18 497.07,208.22 497.47,208.25 497.88,208.29 498.29,208.33 498.70,208.36 499.11,208.40 499.52,208.44 499.93,208.47 500.34,208.51 500.75,208.55 501.16,208.59 501.56,208.62 501.97,208.66 502.38,208.70 502.79,208.73 503.20,208.77 503.61,208.81 504.02,208.85 504.43,208.88 504.84,208.92 505.25,208.96 505.65,209.00 506.06,209.03 506.47,209.07 506.88,209.11 507.29,209.15 507.70,209.18 508.11,209.22 508.52,209.26 508.93,209.30 509.34,209.33 509.74,209.37 510.15,209.41 510.56,209.45 510.97,209.49 511.38,209.52 511.79,209.56 512.20,209.60 512.61,209.64 513.02,209.68 513.43,209.72 513.83,209.75 514.24,209.79 514.65,209.83 515.06,209.87 515.47,209.91 515.88,209.95 516.29,209.98 516.70,210.02 517.11,210.06 517.52,210.10 517.92,210.14 518.33,210.18 518.74,210.22 519.15,210.26 519.56,210.30 519.97,210.33 520.38,210.37 520.79,210.41 521.20,210.45 521.61,210.49 522.01,210.53 522.42,210.57 522.83,210.61 523.24,210.65 523.65,210.69 524.06,210.73 524.47,210.77 524.88,210.81 525.29,210.85 525.70,210.89 526.10,210.93 526.51,210.97 526.92,211.01 527.33,211.05 527.74,211.09 528.15,211.13 528.56,211.17 528.97,211.21 529.38,211.25 529.79,211.29 530.19,211.33 530.60,211.37 531.01,211.41 531.42,211.45 531.83,211.49 532.24,211.53 532.65,211.57 533.06,211.61 533.47,211.65 533.88,211.69 534.28,211.73 534.69,211.77 535.10,211.81 535.51,211.86 535.92,211.90 536.33,211.94 536.74,211.98 537.15,212.02 537.56,212.06 537.97,212.10 538.37,212.14 538.78,212.18 539.19,212.23 539.60,212.27 540.01,212.31 540.42,212.35 540.83,212.39 541.24,212.43 541.65,212.48 542.06,212.52 542.46,212.56 542.87,212.60 543.28,212.64 543.69,212.69 544.10,212.73 544.51,212.77 544.92,212.81 545.33,212.85 545.74,212.90 546.15,212.94 546.55,212.98 546.96,213.02 547.37,213.07 547.78,213.11 548.19,213.15 548.60,213.19 549.01,213.24 549.42,213.28 549.83,213.32 550.24,213.36 550.64,213.41 551.05,213.45 551.46,213.49 551.87,213.54 552.28,213.58 552.69,213.62 553.10,213.67 553.51,213.71 553.92,213.75 554.33,213.80 554.73,213.84 555.14,213.88 555.55,213.93 555.96,213.97 556.37,214.02 556.78,214.06 557.19,214.10 557.60,214.15 558.01,214.19 558.42,214.23 558.82,214.28 559.23,214.32 559.64,214.37 560.05,214.41 560.46,214.46 560.87,214.50 561.28,214.54 561.69,214.59 562.10,214.63 562.51,214.68 562.91,214.72 563.32,214.77 563.73,214.81 564.14,214.86 564.55,214.90 564.96,214.95 565.37,214.99 565.78,215.04 566.19,215.08 566.60,215.13 567.00,215.17 567.41,215.22 567.82,215.26 568.23,215.31 568.64,215.36 569.05,215.40 569.46,215.45 569.87,215.49 570.28,215.54 570.69,215.58 571.09,215.63 571.50,215.68 571.91,215.72 572.32,215.77 572.73,215.82 573.14,215.86 573.55,215.91 573.96,215.95 574.37,216.00 574.78,216.05 575.18,216.09 575.59,216.14 576.00,216.19 576.41,216.23 576.82,216.28 577.23,216.33 577.64,216.38 578.05,216.42 578.46,216.47 578.87,216.52 579.27,216.56 579.68,216.61 580.09,216.66 580.50,216.71 580.91,216.75 581.32,216.80 581.73,216.85 582.14,216.90 582.55,216.94 582.96,216.99 583.36,217.04 583.77,217.09 584.18,217.14 584.59,217.19 585.00,217.23 585.41,217.28 585.82,217.33 586.23,217.38 586.64,217.43 587.05,217.48 587.45,217.52 587.86,217.57 588.27,217.62 588.68,217.67 589.09,217.72 589.50,217.77 589.91,217.82 590.32,217.87 590.73,217.92 591.14,217.97 591.54,218.02 591.95,218.06 592.36,218.11 592.77,218.16 593.18,218.21 593.59,218.26 594.00,218.31 594.41,218.36 594.82,218.41 595.23,218.46 595.63,218.51 596.04,218.56 596.45,218.61 596.86,218.66 597.27,218.71 597.68,218.76 598.09,218.82 598.50,218.87 598.91,218.92 599.32,218.97 599.72,219.02 600.13,219.07 600.54,219.12 600.95,219.17 601.36,219.22 601.77,219.27 602.18,219.33 602.59,219.38 603.00,219.43 603.41,219.48 603.81,219.53 604.22,219.58 604.63,219.64 605.04,219.69 605.45,219.74 605.86,219.79 606.27,219.84 606.68,219.90 607.09,219.95 607.50,220.00 607.90,220.05 608.31,220.11 608.72,220.16 609.13,220.21 609.54,220.26 609.95,220.32 610.36,220.37 610.77,220.42 611.18,220.48 611.59,220.53 611.99,220.58 612.40,220.64 612.81,220.69 613.22,220.74 613.63,220.80 614.04,220.85 614.45,220.90 614.86,220.96 615.27,221.01 615.68,221.07 616.08,221.12 616.49,221.18 616.90,221.23 617.31,221.28 617.72,221.34 618.13,221.39 618.54,221.45 618.95,221.50 619.36,221.56 619.77,221.61 620.17,221.67 620.58,221.72 620.99,221.78 621.40,221.83 621.81,221.89 622.22,221.94 622.63,222.00 623.04,222.06 623.45,222.11 623.86,222.17 624.26,222.22 624.67,222.28 625.08,222.34 625.49,222.39 625.90,222.45 626.31,222.50 626.72,222.56 627.13,222.62 627.54,222.67 627.95,222.73 628.35,222.79 628.76,222.84 629.17,222.90 629.58,222.96 629.99,223.02 630.40,223.07 630.81,223.13 631.22,223.19 631.63,223.25 632.04,223.30 632.44,223.36 632.85,223.42 633.26,223.48 633.67,223.54 634.08,223.59 634.49,223.65 634.90,223.71 635.31,223.77 635.72,223.83 636.13,223.89 636.53,223.95 636.94,224.01 637.35,224.06 637.76,224.12 638.17,224.18 638.58,224.24 638.99,224.30 639.40,224.36 639.81,224.42 640.22,224.48 640.62,224.54 641.03,224.60 641.44,224.66 641.85,224.72 642.26,224.78 642.67,224.84 643.08,224.90 643.49,224.96 643.90,225.02 644.31,225.08 644.71,225.15 645.12,225.21 645.53,225.27 645.94,225.33 646.35,225.39 646.76,225.45 647.17,225.51 647.58,225.58 647.99,225.64 648.40,225.70 648.80,225.76 649.21,225.82 649.62,225.89 650.03,225.95 650.44,226.01 650.85,226.07 651.26,226.14 651.67,226.20 652.08,226.26 652.49,226.32 652.89,226.39 653.30,226.45 653.71,226.51 654.12,226.58 654.53,226.64 654.94,226.71 655.35,226.77 655.76,226.83 656.17,226.90 656.58,226.96 656.98,227.03 657.39,227.09 657.80,227.15 658.21,227.22 658.62,227.28 659.03,227.35 659.44,227.41 659.85,227.48 660.26,227.55 660.67,227.61 661.07,227.68 661.48,227.74 661.89,227.81 662.30,227.87 662.71,227.94 663.12,228.01 663.53,228.07 663.94,228.14 664.35,228.21 664.76,228.27 665.16,228.34 665.57,228.41 665.98,228.47 666.39,228.54 666.80,228.61 667.21,228.67 667.62,228.74 668.03,228.81 668.44,228.88 668.85,228.95 669.25,229.01 669.66,229.08 670.07,229.15 670.48,229.22 670.89,229.29 671.30,229.36 671.71,229.43 672.12,229.49 672.53,229.56 672.94,229.63 673.34,229.70 673.75,229.77 674.16,229.84 674.57,229.91 674.98,229.98 675.39,230.05 675.80,230.12 676.21,230.19 676.62,230.26 677.03,230.33 677.43,230.40 677.84,230.48 678.25,230.55 678.66,230.62 679.07,230.69 679.48,230.76 679.89,230.83 680.30,230.91 680.71,230.98 681.12,231.05 681.52,231.12 681.93,231.19 682.34,231.27 682.75,231.34 683.16,231.41 683.57,231.49 683.98,231.56 684.39,231.63 684.80,231.71 685.21,231.78 685.61,231.85 686.02,231.93 686.43,232.00 686.84,232.08 687.25,232.15 687.66,232.22 688.07,232.30 688.48,232.37 688.89,232.45 689.30,232.52 689.70,232.60 690.11,232.68 690.52,232.75 690.93,232.83 691.34,232.90 691.75,232.98 692.16,233.06 692.57,233.13 692.98,233.21 693.39,233.29 693.79,233.36 694.20,233.44 694.61,233.52 695.02,233.60 695.43,233.67 695.84,233.75 696.25,233.83 696.66,233.91 697.07,233.99 697.48,234.06 697.88,234.14 698.29,234.22 698.70,234.30 699.11,234.38 699.52,234.46 699.93,234.54 700.34,234.62 700.75,234.70 701.16,234.78 701.57,234.86 701.97,234.94 702.38,235.02 702.79,235.10 703.20,235.18 703.61,235.26 704.02,235.34 704.43,235.43 704.84,235.51 705.25,235.59 705.66,235.67 706.06,235.75 706.47,235.84 706.88,235.92 707.29,236.00 707.70,236.09 708.11,236.17 708.52,236.25 708.93,236.34 709.34,236.42 709.75,236.50 710.15,236.59 710.56,236.67 710.97,236.76 711.38,236.84 711.79,236.93 712.20,237.01 712.61,237.10 713.02,237.18 713.43,237.27 713.84,237.36 714.24,237.44 714.65,237.53 715.06,237.62 715.47,237.70 715.88,237.79 716.29,237.88 716.70,237.96 717.11,238.05 717.52,238.14 717.93,238.23 718.33,238.32 718.74,238.41 719.15,238.49 719.56,238.58 719.97,238.67 720.38,238.76 720.79,238.85 721.20,238.94 721.61,239.03 722.02,239.12 722.42,239.21 722.83,239.30 723.24,239.39 723.65,239.49 724.06,239.58 724.47,239.67 724.88,239.76 725.29,239.85 725.70,239.95 726.11,240.04 726.51,240.13 726.92,240.22 727.33,240.32 727.74,240.41 728.15,240.51 728.56,240.60 728.97,240.69 729.38,240.79 729.79,240.88 730.20,240.98 730.60,241.07 731.01,241.17 731.42,241.26 731.83,241.36 732.24,241.46 732.65,241.55 733.06,241.65 733.47,241.75 733.88,241.85 734.29,241.94 734.69,242.04 735.10,242.14 735.51,242.24 735.92,242.34 736.33,242.43 736.74,242.53 737.15,242.63 737.56,242.73 737.97,242.83 738.38,242.93 738.78,243.03 739.19,243.13 739.60,243.24 740.01,243.34 740.42,243.44 740.83,243.54 741.24,243.64 741.65,243.75 742.06,243.85 742.47,243.95 742.87,244.05 743.28,244.16 743.69,244.26 744.10,244.37 744.51,244.47 744.92,244.58 745.33,244.68 745.74,244.79 746.15,244.89 746.56,245.00 746.96,245.10 747.37,245.21 747.78,245.32 748.19,245.43 748.60,245.53 749.01,245.64 749.42,245.75 749.83,245.86 750.24,245.97 750.65,246.07 751.05,246.18 751.46,246.29 751.87,246.40 752.28,246.51 752.69,246.63 753.10,246.74 753.51,246.85 753.92,246.96 754.33,247.07 754.74,247.18 755.14,247.30 755.55,247.41 755.96,247.52 756.37,247.64 756.78,247.75 757.19,247.87 757.60,247.98 758.01,248.10 758.42,248.21 758.83,248.33 759.23,248.44 759.64,248.56 760.05,248.68 760.46,248.79 760.87,248.91 761.28,249.03 761.69,249.15 762.10,249.27 762.51,249.39 762.92,249.51 763.32,249.63 763.73,249.75 764.14,249.87 764.55,249.99 764.96,250.11 765.37,250.23 765.78,250.35 766.19,250.48 766.60,250.60 767.01,250.72 767.41,250.85 767.82,250.97 768.23,251.10 768.64,251.22 769.05,251.35 769.46,251.47 769.87,251.60 770.28,251.73 770.69,251.85 771.10,251.98 771.50,252.11 771.91,252.24 772.32,252.37 772.73,252.50 773.14,252.63 773.55,252.76 773.96,252.89 774.37,253.02 774.78,253.15 775.19,253.28 775.59,253.42 776.00,253.55 776.41,253.68 776.82,253.82 777.23,253.95 777.64,254.09 778.05,254.22 778.46,254.36 778.87,254.49 779.28,254.63 779.68,254.77 780.09,254.91 780.50,255.04 780.91,255.18 781.32,255.32 781.73,255.46 782.14,255.60 782.55,255.74 782.96,255.88 783.37,256.03 783.77,256.17 784.18,256.31 784.59,256.46 785.00,256.60 785.41,256.74 785.82,256.89 786.23,257.04 786.64,257.18 787.05,257.33 787.46,257.48 787.86,257.62 788.27,257.77 788.68,257.92 789.09,258.07 789.50,258.22 789.91,258.37 790.32,258.52 790.73,258.68 791.14,258.83 791.55,258.98 791.95,259.14 792.36,259.29 792.77,259.45 793.18,259.60 793.59,259.76 794.00,259.92 794.41,260.07 794.82,260.23 795.23,260.39 795.64,260.55 796.04,260.71 796.45,260.87 796.86,261.03 797.27,261.20 797.68,261.36 798.09,261.52 798.50,261.69 798.91,261.85 799.32,262.02 799.73,262.19 800.13,262.35 800.54,262.52 800.95,262.69 801.36,262.86 801.77,263.03 802.18,263.20 802.59,263.37 803.00,263.54 803.41,263.72 803.82,263.89 804.22,264.07 804.63,264.24 805.04,264.42 805.45,264.60 805.86,264.77 806.27,264.95 806.68,265.13 807.09,265.31 807.50,265.49 807.91,265.68 808.31,265.86 808.72,266.04 809.13,266.23 809.54,266.41 809.95,266.60 810.36,266.79 810.77,266.98 811.18,267.17 811.59,267.36 812.00,267.55 812.40,267.74 812.81,267.93 813.22,268.13 813.63,268.32 814.04,268.52 814.45,268.71 814.86,268.91 815.27,269.11 815.68,269.31 816.09,269.51 816.49,269.71 816.90,269.92 817.31,270.12 817.72,270.33 818.13,270.53 818.54,270.74 818.95,270.95 819.36,271.16 819.77,271.37 820.18,271.58 820.58,271.79 820.99,272.01 821.40,272.22 821.81,272.44 822.22,272.66 822.63,272.87 823.04,273.09 823.45,273.32 823.86,273.54 824.27,273.76 824.67,273.99 825.08,274.21 825.49,274.44 825.90,274.67 826.31,274.90 826.72,275.13 827.13,275.36 827.54,275.60 827.95,275.83 828.36,276.07 828.76,276.31 829.17,276.55 829.58,276.79 829.99,277.04 830.40,277.28 830.81,277.53 831.22,277.77 831.63,278.02 832.04,278.27 832.45,278.53 832.85,278.78 833.26,279.03 833.67,279.29 834.08,279.55 834.49,279.81 834.90,280.07 835.31,280.34 835.72,280.60 836.13,280.87 836.54,281.14 836.94,281.41 837.35,281.68 837.76,281.96 838.17,282.24 838.58,282.52 838.99,282.80 839.40,283.08 839.81,283.36 840.22,283.65 840.63,283.94 841.03,284.23 841.44,284.52 841.85,284.82 842.26,285.12 842.67,285.42 843.08,285.72 843.49,286.02 843.90,286.33 844.31,286.64 844.72,286.95 845.12,287.26 845.53,287.58 845.94,287.90 846.35,288.22 846.76,288.55 847.17,288.87 847.58,289.20 847.99,289.53 848.40,289.87 848.81,290.21 849.21,290.55 849.62,290.89 850.03,291.24 850.44,291.59 850.85,291.94 851.26,292.30 851.67,292.65 852.08,293.02 852.49,293.38 852.90,293.75 853.30,294.12 853.71,294.50 854.12,294.88 854.53,295.26 854.94,295.65 855.35,296.04 855.76,296.43 856.17,296.83 856.58,297.24 856.99,297.64 857.39,298.05 857.80,298.47 858.21,298.89 858.62,299.31 859.03,299.74 859.44,300.17 859.85,300.61 860.26,301.05 860.67,301.50 861.08,301.95 861.48,302.41 861.89,302.87 862.30,303.34 862.71,303.81 863.12,304.29 863.53,304.78 863.94,305.27 864.35,305.77 864.76,306.27 865.17,306.78 865.57,307.30 865.98,307.82 866.39,308.35 866.80,308.89 867.21,309.43 867.62,309.99 868.03,310.55 868.44,311.11 868.85,311.69 869.26,312.28 869.66,312.87 870.07,313.47 870.48,314.09 870.89,314.71 871.30,315.34 871.71,315.98 872.12,316.63 872.53,317.30 872.94,317.97 873.35,318.66 873.75,319.36 874.16,320.07 874.57,320.79 874.98,321.53 875.39,322.28 875.80,323.05 876.21,323.83 876.62,324.63 877.03,325.45 877.44,326.28 877.84,327.13 878.25,328.00 878.66,328.89 879.07,329.80 879.48,330.73 879.89,331.69 880.30,332.67 880.71,333.67 881.12,334.70 881.53,335.77 881.93,336.86 882.34,337.98 882.75,339.14 883.16,340.33 883.57,341.57 883.98,342.85 884.39,344.17 884.80,345.54 885.21,346.96 885.62,348.44 886.02,349.98 886.43,351.59 886.84,353.28 887.25,355.04 887.66,356.90 888.07,358.87 888.48,360.95 888.89,363.15 889.30,365.52 889.71,368.05 890.11,370.79 890.52,373.78 890.93,377.08 891.34,380.74 891.75,384.90 892.16,389.71 892.57,395.46 892.98,402.71 893.39,412.76 893.80,430.84" fill="none" stroke="#534AB7" stroke-width="2.4" stroke-linejoin="round" stroke-linecap="round"/>
<rect x="712" y="58" width="164" height="84" fill="white" opacity="0.86" stroke="#D1D5DB"/>
<line x1="724" y1="74" x2="752" y2="74" stroke="#D85A30" stroke-width="3"/>
<text x="760" y="78" font-family="Arial" font-size="13" fill="#111827">cosine</text>
<line x1="724" y1="98" x2="752" y2="98" stroke="#378ADD" stroke-width="3"/>
<text x="760" y="102" font-family="Arial" font-size="13" fill="#111827">linear_ddpm</text>
<line x1="724" y1="122" x2="752" y2="122" stroke="#534AB7" stroke-width="3"/>
<text x="760" y="126" font-family="Arial" font-size="13" fill="#111827">laplace_centered</text>
<text x="485.0" y="540" text-anchor="middle" font-family="Arial" font-size="15">normalized timestep t</text>
<text x="20" y="274.0" text-anchor="middle" font-family="Arial" font-size="15" transform="rotate(-90 20 274.0)">R(t)</text>
</svg>